<?xml version="1.0" standalone="no"?>
<!DOCTYPE svg PUBLIC "-//W3C//DTD SVG 20010904//EN"
 "http://www.w3.org/TR/2001/REC-SVG-20010904/DTD/svg10.dtd">
<svg version="1.0" xmlns="http://www.w3.org/2000/svg"
 width="1420.000000pt" height="1420.000000pt" viewBox="0 0 1420.000000 1420.000000"
 preserveAspectRatio="xMidYMid meet">
<metadata>
Created by potrace 1.11, written by Peter Selinger 2001-2013
</metadata>
<g transform="translate(0.000000,1420.000000) scale(0.100000,-0.100000)"
fill="#000000" stroke="none">
<path d="M6653 13775 c-165 -45 -295 -175 -339 -340 -11 -39 -14 -178 -14
-632 l0 -583 -112 0 c-197 0 -312 -43 -417 -156 -64 -68 -102 -139 -120 -222
-8 -38 -11 -741 -11 -2505 0 -2675 -4 -2501 56 -2618 32 -64 100 -138 165
-180 79 -50 157 -70 307 -76 l132 -6 0 -321 c0 -180 5 -340 11 -365 37 -162
188 -313 350 -350 26 -6 219 -11 470 -11 396 0 431 1 490 20 173 53 304 207
329 385 5 39 10 199 10 356 l0 286 126 5 c116 5 130 3 186 -19 280 -113 644
-119 944 -14 49 17 92 31 96 31 4 0 8 -286 8 -635 l0 -635 -1357 0 c-1102 0
-1367 -3 -1408 -14 -159 -42 -282 -158 -334 -313 -19 -55 -21 -86 -21 -266 0
-156 4 -216 16 -258 40 -137 145 -252 285 -311 l54 -23 1380 -5 1380 -5 3
-922 2 -923 -352 0 -353 0 -21 98 c-71 323 -289 608 -580 755 l-51 26 -5 163
c-5 131 -10 176 -27 228 -57 170 -201 291 -381 321 -95 15 -794 11 -873 -6
-170 -36 -307 -159 -357 -324 -16 -51 -20 -92 -20 -220 l0 -156 -67 -35 c-207
-108 -400 -312 -498 -523 -35 -76 -77 -209 -90 -284 l-7 -43 -1521 0 c-1322 0
-1530 -2 -1586 -15 -174 -42 -313 -175 -356 -343 -14 -52 -16 -127 -13 -499 3
-428 4 -439 26 -494 50 -125 155 -231 279 -281 l58 -23 5045 0 5045 0 56 23
c125 50 231 156 281 280 22 56 23 65 26 485 2 292 0 446 -8 483 -36 171 -179
323 -344 365 l-46 11 -3 2787 -3 2786 -22 130 c-54 317 -134 568 -267 841
-391 797 -1135 1374 -2004 1553 -250 52 -276 53 -993 58 l-678 5 -2 776 -3
777 -23 58 c-33 80 -106 173 -172 218 -90 63 -155 80 -312 86 l-137 6 -3 591
c-4 582 -4 592 -26 650 -32 87 -64 135 -124 193 -60 56 -136 99 -213 119 -74
20 -868 19 -942 -1z m878 -388 c38 -29 39 -41 39 -611 l0 -556 -445 0 -446 0
3 564 3 564 24 26 24 26 391 0 c292 -1 395 -4 407 -13z m664 -1581 c13 -13 26
-39 30 -57 3 -19 4 -643 3 -1388 l-3 -1354 -82 -42 c-386 -201 -644 -541 -734
-968 -28 -134 -31 -368 -6 -507 35 -189 110 -371 220 -533 37 -54 67 -100 67
-103 0 -2 -360 -4 -799 -4 l-799 0 -31 26 -31 26 0 2435 0 2435 29 29 29 29
1042 0 1041 0 24 -24z m1125 -2352 c0 -430 -1 -456 -17 -449 -179 70 -307 96
-515 102 l-178 5 0 399 0 399 355 0 355 0 0 -456z m626 445 c293 -28 590 -114
863 -250 721 -359 1223 -1039 1355 -1839 33 -200 36 -419 36 -3042 l0 -2618
-1250 0 -1250 0 1 533 c1 345 4 511 10 472 51 -349 322 -646 662 -725 123 -28
203 -33 308 -20 297 39 537 203 673 461 101 193 129 382 87 586 -38 181 -113
317 -252 455 l-88 87 247 3 247 3 69 32 c125 60 211 153 259 281 19 52 21 77
22 272 0 203 -1 219 -24 280 -13 36 -35 83 -49 104 -35 57 -119 134 -177 164
-105 53 -81 52 -1072 52 l-923 0 0 761 0 761 71 76 c186 202 310 454 354 721
26 155 17 408 -20 550 -63 245 -194 479 -354 636 l-51 49 0 583 0 583 68 0
c38 0 118 -5 178 -11z m-994 -1193 c428 -83 756 -445 797 -881 47 -486 -263
-925 -747 -1057 -116 -32 -353 -32 -477 1 -396 103 -686 426 -746 830 -15 105
-7 257 21 369 88 363 380 650 744 732 101 23 304 26 408 6z m-1382 -2541 c0
-335 -2 -346 -68 -365 -25 -8 -157 -10 -399 -8 l-363 3 -27 28 -28 27 -3 305
-3 305 445 0 446 0 0 -295z m3965 -1390 c24 -24 25 -28 25 -180 0 -152 -1
-156 -25 -180 l-24 -25 -2439 0 -2439 0 -24 26 c-23 25 -24 30 -24 179 0 149
1 154 24 179 l24 26 2439 0 2439 0 24 -25z m-1557 -857 c-47 -46 -99 -104
-116 -129 -75 -111 -133 -259 -151 -384 -6 -42 -9 39 -10 268 l-1 327 181 0
181 0 -84 -82z m727 -163 c32 -9 81 -28 109 -43 65 -34 164 -133 198 -198 153
-286 -14 -643 -334 -710 -311 -66 -610 196 -584 513 25 307 315 515 611 438z
m-3164 -424 c28 -28 29 -34 29 -115 l0 -86 -445 0 -445 0 0 70 c0 76 17 132
47 149 12 7 147 10 401 11 l384 0 29 -29z m107 -607 c254 -52 470 -246 551
-493 12 -35 21 -68 21 -73 0 -4 -492 -8 -1094 -8 l-1094 0 15 58 c46 176 193
358 363 446 156 81 182 84 708 85 376 1 466 -2 530 -15z m4901 -979 c16 -8 31
-22 35 -30 3 -9 6 -190 6 -401 l0 -385 -25 -24 -24 -25 -4971 0 -4971 0 -24
25 -25 24 0 388 c1 406 1 405 45 431 15 9 1267 11 4973 12 4328 0 4957 -2
4981 -15z"/>
</g>
</svg>
