<svg xmlns="http://www.w3.org/2000/svg" width="350" height="124"><path fill="#FFF" d="M296.126 35.031h22.342V62.55h-22.342z"/><path d="M320.233 64.313h-25.875V33.266h25.875v31.047zm-22.342-3.529h18.812V36.792h-18.812v23.992z"/><path fill="#FFF" d="M344.012 59.551c0-13.542-10.979-24.52-24.521-24.52h-1.73v75.557h26.252V59.551z"/><path d="M345.779 112.351h-29.78V33.266h3.491c14.491 0 26.289 11.791 26.289 26.285v52.8zm-26.253-3.53h22.725v-49.27c0-12.537-10.19-22.736-22.725-22.759v72.029z"/><path fill="#BDBDBE" d="M338.19 61.552c0-13.544-7.832-24.522-17.487-24.522h-1.235v75.557h18.723V61.552z"/><path fill="#FFF" d="M347.634 118.382a2.565 2.565 0 0 1-2.561 2.566h-90.031a2.561 2.561 0 0 1-2.557-2.566v-6.466a2.556 2.556 0 0 1 2.557-2.559h90.031a2.561 2.561 0 0 1 2.561 2.559v6.466z"/><path fill="#BDBDBE" d="M255.042 111.121a.793.793 0 0 0-.792.795v6.466c0 .442.356.801.792.801h86.884v-8.062h-86.884z"/><path fill="#FFF" d="M338.224 86.396a2.557 2.557 0 0 1-2.557 2.562h-43.808a2.563 2.563 0 0 1-2.559-2.562v-2.235a2.56 2.56 0 0 1 2.559-2.559h43.808a2.554 2.554 0 0 1 2.557 2.559v2.235z"/><path d="M335.667 90.722h-43.808a4.33 4.33 0 0 1-4.325-4.325v-2.235a4.33 4.33 0 0 1 4.325-4.323h43.808a4.327 4.327 0 0 1 4.322 4.323v2.235a4.328 4.328 0 0 1-4.322 4.325zm-43.808-7.359a.796.796 0 0 0-.792.798v2.235c0 .438.356.794.792.794h43.808a.794.794 0 0 0 .793-.794v-2.235a.797.797 0 0 0-.793-.798h-43.808z"/><path fill="#FFF" d="M299.259 3.188a2.56 2.56 0 0 1 2.559 2.559v67.801a2.557 2.557 0 0 1-2.559 2.558h-6.469a2.56 2.56 0 0 1-2.562-2.558V5.746a2.563 2.563 0 0 1 2.562-2.559h6.469z"/><path d="M299.259 77.867h-6.469a4.325 4.325 0 0 1-4.325-4.32V5.746a4.327 4.327 0 0 1 4.325-4.321h6.469a4.329 4.329 0 0 1 4.322 4.321v67.801a4.327 4.327 0 0 1-4.322 4.32zM292.79 4.952a.796.796 0 0 0-.795.794v67.801c0 .438.354.797.795.797h6.469a.794.794 0 0 0 .789-.797V5.746a.794.794 0 0 0-.789-.794h-6.469z"/><path fill="#FFF" d="M305.253 17.536a2.56 2.56 0 0 1 2.56 2.562V63.9a2.562 2.562 0 0 1-2.56 2.561h-18.466a2.56 2.56 0 0 1-2.559-2.561V20.098a2.56 2.56 0 0 1 2.559-2.562h18.466zM301.817 97.334a2.56 2.56 0 0 0-2.559-2.562h-6.469a2.563 2.563 0 0 0-2.562 2.562v5.525h11.59v-5.525z"/><path d="M303.581 104.619h-15.116v-7.285a4.325 4.325 0 0 1 4.325-4.324h6.469a4.328 4.328 0 0 1 4.322 4.324v7.285zm-11.586-3.526h8.053v-3.759a.794.794 0 0 0-.789-.796h-6.469a.796.796 0 0 0-.795.796v3.759z"/><path fill="#FFF" d="M307.896 108.884c0-4.672-3.789-8.466-8.464-8.466h-6.821a8.468 8.468 0 0 0-8.467 8.466v.474h23.752v-.474z"/><path d="M309.663 111.124h-27.286v-2.24c0-5.639 4.591-10.229 10.233-10.229h6.821c5.641 0 10.231 4.59 10.231 10.229v2.24zm-23.634-3.534h19.98a6.71 6.71 0 0 0-6.578-5.405h-6.821a6.714 6.714 0 0 0-6.581 5.405z"/><g><path fill="#FFF" d="M333.758 97.244a6.232 6.232 0 1 1-12.464-.002 6.232 6.232 0 0 1 12.464.002z"/><path d="M327.526 105.243c-4.413 0-8-3.591-8-7.999 0-4.41 3.587-7.997 8-7.997 4.408 0 7.994 3.587 7.994 7.997.001 4.408-3.585 7.999-7.994 7.999zm0-12.468a4.48 4.48 0 0 0-4.474 4.469 4.476 4.476 0 0 0 4.474 4.467 4.473 4.473 0 0 0 4.467-4.467 4.477 4.477 0 0 0-4.467-4.469z"/></g><path fill="#BDBDBE" d="M302.005 41.964V17.152h-16.466v43.751h6.377a16.569 16.569 0 0 1-.384-3.529c0-6.986 4.343-12.972 10.473-15.41z"/><path d="M305.253 68.223h-18.466a4.325 4.325 0 0 1-4.319-4.322V20.098a4.327 4.327 0 0 1 4.319-4.326h18.466a4.325 4.325 0 0 1 4.322 4.326V63.9a4.325 4.325 0 0 1-4.322 4.323zm-18.466-48.922a.791.791 0 0 0-.791.797V63.9c0 .44.352.795.791.795h18.466c.44 0 .796-.354.796-.795V20.098a.795.795 0 0 0-.796-.797h-18.466z"/><g><path fill="#FFF" d="M321.764 56.671c0 5.974-4.843 10.818-10.825 10.818-5.97 0-10.816-4.845-10.816-10.818 0-5.977 4.847-10.821 10.816-10.821 5.982 0 10.825 4.844 10.825 10.821z"/><path d="M310.938 69.252c-6.934 0-12.582-5.644-12.582-12.581 0-6.94 5.648-12.587 12.582-12.587 6.941 0 12.586 5.646 12.586 12.587 0 6.937-5.644 12.581-12.586 12.581zm0-21.639c-4.992 0-9.05 4.062-9.05 9.058 0 4.991 4.058 9.052 9.05 9.052 5 0 9.062-4.061 9.062-9.052 0-4.995-4.062-9.058-9.062-9.058z"/></g><path d="M345.073 122.709h-90.031a4.336 4.336 0 0 1-4.325-4.327v-6.466a4.336 4.336 0 0 1 4.325-4.326h90.031a4.33 4.33 0 0 1 4.326 4.326v6.466a4.33 4.33 0 0 1-4.326 4.327zm-90.031-11.588a.793.793 0 0 0-.792.795v6.466c0 .442.356.801.792.801h90.031a.8.8 0 0 0 .801-.801v-6.466a.797.797 0 0 0-.801-.795h-90.031z"/><g><g fill="#009ADA"><path d="M13.79 30.128c1.271 1.03 2.648 1.298 3.722-.03 1.076-1.326.529-2.618-.743-3.647l-3.119-2.526-.782.967 2.918 2.364c.644.519 1.507 1.306.841 2.127s-1.612.142-2.257-.379l-2.917-2.363-.781.966 3.118 2.521zM17.496 23.204l-.823.852 3.143 3.033.823-.85-1.555-1.503c-.378-.365-.969-.946-.48-1.451.466-.48.933.008 1.31.373l1.665 1.606.822-.851-1.921-1.853c-.729-.705-1.549-1.048-2.325-.246-.294.305-.472.706-.361 1.157l-.01.012-.288-.279zM21.472 19.446l-.879.79 2.922 3.248.879-.792-2.922-3.246zm-2.162-1.514c-.288.258-.294.719-.027 1.019.272.304.727.339 1.016.076.289-.258.302-.714.027-1.017-.269-.297-.724-.341-1.016-.078zM23.489 17.839l-1.037.783 4.199 2.416.489-.367-1.161-4.71-1.032.779.802 2.481zM31.401 15.349l-.082-.13c-.697-1.116-1.773-1.689-2.93-.971-1.136.713-1.152 1.95-.45 3.073.701 1.124 1.878 1.521 2.967.841.738-.459 1.097-1.259.876-2.151l-1.022.419c.048.38-.027.721-.358.926-.524.327-1.027-.093-1.317-.562l2.316-1.445zm-2.698.771c-.188-.416-.194-.916.208-1.169.389-.24.847-.016 1.133.332l-1.341.837zM32.628 12.048l-1.062.521 1.914 3.925 1.063-.518-.861-1.766c-.295-.61-.556-1.335.181-1.693a.815.815 0 0 1 .51-.069l-.377-1.104a1.341 1.341 0 0 0-.487.12c-.396.193-.62.54-.667.987l-.014.007-.2-.41zM37.677 10.128c-.43-.162-.999-.085-1.407.08-.722.292-.998 1.048-.694 1.805.265.653.745.737 1.2.756s.871-.056 1.015.3a.46.46 0 0 1-.263.614c-.32.132-.691.021-1.004-.141l-.225.889c.51.291 1.112.336 1.628.128.809-.328 1.28-1.142.918-2.041-.285-.701-.79-.824-1.264-.845-.463-.021-.896.057-1.018-.24-.08-.196.039-.418.221-.49.218-.091.474-.048.693.045l.2-.86zM40.207 8.883l-1.119.385 1.423 4.13 1.118-.383-1.422-4.132zm-1.396-2.237c-.368.125-.553.548-.424.925.133.387.535.598.905.472.367-.13.554-.541.421-.927-.13-.382-.535-.598-.902-.47zM43.24 9.027l.694-.211-.305-1.003-.695.211L42.5 6.61l-1.131.349.433 1.412-.389.117.307 1.004.389-.117.969 3.173 1.133-.346zM46.757 10.924l-.715 3.216 1.272-.27 1.56-7.18-1.29.274-.525 2.649-1.485-2.223-1.314.28zM55.342 5.936c-1.291.043-2.144 1.044-2.097 2.405.046 1.351.962 2.291 2.261 2.245 1.301-.047 2.146-1.046 2.097-2.397-.046-1.362-.968-2.301-2.261-2.253zm.041 1.099c.607-.019 1.001.588 1.022 1.194.02.587-.331 1.23-.938 1.252-.608.022-1.001-.598-1.021-1.184-.021-.603.327-1.239.937-1.262zM60.123 7.095l.947.034.036-1.05-.945-.034.039-1.101c.011-.355-.022-1.079.503-1.061.176.005.326.083.476.168l.039-1.11a1.17 1.17 0 0 0-.56-.163c-1.143-.04-1.598.878-1.635 1.946l-.046 1.279-.395-.013-.036 1.051.396.014-.117 3.317 1.182.041.116-3.318zM69.889 5.013a2.837 2.837 0 0 0-1.345-.603c-1.843-.287-3.363 1.179-3.655 3.062-.283 1.827.779 3.641 2.551 3.914.508.079.994-.018 1.487-.173l.241-1.542c-.406.361-.978.572-1.505.49-1.144-.179-1.673-1.402-1.499-2.521.175-1.141 1.029-2.181 2.208-1.997.527.08 1.003.423 1.276.918l.241-1.548zM75.329 8.752l-1.116-.336-.119.391a1.512 1.512 0 0 0-.951-.864c-1.139-.343-2.141.553-2.477 1.66-.343 1.135-.017 2.447 1.148 2.8.414.126.892.067 1.233-.193l.017.005-.114.385 1.116.336 1.263-4.184zm-2.936 2.675c-.582-.177-.753-.898-.583-1.461.17-.56.708-1.058 1.292-.882.581.176.764.891.593 1.453-.169.562-.717 1.066-1.302.89zM78.16 9.727l-1.098-.439-2.488 6.221 1.098.438 1.018-2.544.019.006c.086.42.429.768.821.926 1.137.454 2.212-.362 2.654-1.471.427-1.064.188-2.405-.901-2.844a1.522 1.522 0 0 0-1.271.079l.148-.372zm-.464 3.483c-.567-.225-.671-.957-.455-1.503.218-.545.799-.993 1.362-.768.565.226.677.95.459 1.495-.217.545-.8 1.004-1.366.776zM84.588 15.395l.068-.134c.616-1.166.571-2.386-.631-3.019-1.188-.627-2.266-.019-2.882 1.152-.621 1.175-.374 2.392.764 2.99.769.405 1.644.313 2.302-.325l-.876-.673c-.304.229-.638.339-.981.156-.545-.288-.436-.933-.178-1.423l2.414 1.276zm-2.026-1.944c.264-.374.697-.628 1.115-.408.404.212.439.725.284 1.146l-1.399-.738zM92.013 15.965l1.042.749.666-.924-3.096-2.225-.663.925 1.041.75-3.249 4.524 1.009.724zM94.464 19.247c-.991-.832-2.295-.659-3.168.383-.869 1.036-.82 2.345.175 3.18 1.001.838 2.296.661 3.166-.377.875-1.041.819-2.353-.173-3.186zm-.709.848c.467.388.35 1.103-.037 1.567-.377.45-1.069.696-1.536.305-.466-.394-.344-1.115.034-1.565.388-.463 1.072-.703 1.539-.307zM97.795 22.475l-.882-.948-1.957 4.439.416.445 2.621-1.092-1.341 2.464.409.44 4.575-1.632-.878-.941-2.468 1.102 1.277-2.589-.388-.415-2.637 1.074zM103.157 28.745l-.696-.959-3.534 2.568.695.958 1.752-1.27c.424-.311 1.097-.79 1.512-.222.391.541-.169.917-.597 1.227l-1.873 1.359.699.957 2.158-1.57c.822-.595 1.302-1.343.646-2.243-.25-.343-.615-.587-1.076-.556l-.01-.014.324-.235zM104.256 36.511c.268.485.905.664 1.428.375.521-.291.717-.919.442-1.413-.272-.494-.91-.66-1.429-.367-.522.289-.712.919-.441 1.405zM110.069 41.014l-.445-1.098-4.051 1.638.444 1.098 4.052-1.638zm2.16-1.514c-.145-.36-.575-.523-.946-.373-.379.154-.57.568-.422.927.146.361.567.528.949.376.37-.152.566-.567.419-.93zM110.013 44.534l-2.923.948.386 1.183 2.92-.951 4.083.791-.452-1.384-2.602-.433 1.883-1.786-.447-1.376zM112.489 48.188l-2.516.537c-1.243.264-1.767 1.014-1.509 2.222.256 1.209 1.039 1.68 2.282 1.416l2.516-.532-.245-1.158-2.317.491c-.487.102-1.084.152-1.208-.436-.126-.587.44-.784.929-.888l2.313-.492-.245-1.16zM113.77 54.927l-.146-1.176-4.336.532.146 1.176 2.145-.264c.521-.065 1.345-.156 1.428.541.082.661-.593.72-1.114.783l-2.295.283.146 1.173 2.649-.326c1.007-.121 1.788-.542 1.652-1.649-.052-.418-.252-.813-.67-1.009l-.002-.017.397-.047zM114.199 60.659l-.043-1.185-4.364.151.04 1.185 4.367-.151zm2.549-.683c-.013-.39-.362-.69-.761-.675-.41.014-.728.34-.714.726.013.39.353.693.763.676.399-.013.725-.338.712-.727zM114.229 63.298l.043-1.3-4.52 1.746-.02.608 4.387 2.066.046-1.291-2.435-.942zM111.109 71.243l.149.022c1.303.18 2.438-.273 2.627-1.621.188-1.334-.751-2.137-2.063-2.325-1.315-.18-2.375.463-2.554 1.733-.121.863.261 1.652 1.085 2.059l.337-1.052c-.323-.208-.535-.489-.481-.873.087-.607.733-.723 1.278-.647l-.378 2.704zm1.142-2.562c.44.124.827.439.762.908-.066.453-.535.661-.981.659l.219-1.567zM112.335 75.635c.373-.266.63-.783.721-1.212.162-.761-.309-1.417-1.111-1.585-.686-.146-1.024.204-1.294.571-.267.366-.442.752-.817.675a.46.46 0 0 1-.361-.564c.072-.339.369-.586.679-.754l-.612-.684c-.528.263-.9.733-1.016 1.28-.183.857.229 1.697 1.178 1.904.741.154 1.123-.198 1.404-.579.278-.368.457-.771.771-.707.208.046.324.271.283.456-.049.232-.224.419-.427.551l.602.648zM111.798 78.58l.343-1.13-4.185-1.265-.339 1.135 4.181 1.26zm2.634.177c.112-.37-.122-.766-.506-.885-.393-.117-.794.09-.908.462-.112.368.114.764.503.881.382.117.798-.081.911-.458zM109.874 81.125l-.232.686.992.34.232-.685 1.399.471.383-1.12-1.398-.474.13-.388-.993-.334-.13.386-3.144-1.072-.379 1.124zM113.007 84.717l-6.901-3.044-.478 1.087 1.978.867c.482.213 1.233.554.951 1.198-.27.609-.877.313-1.359.104l-2.117-.939-.479 1.084 2.444 1.078c.927.41 1.814.45 2.263-.572.173-.384.202-.822-.026-1.194l.006-.014 3.24 1.433.478-1.088zM107.096 89.677l.569-1.038-3.829-2.103-.569 1.038 3.829 2.103zm2.537.719c.188-.341.043-.776-.308-.973-.358-.192-.798-.079-.986.262-.188.343-.049.774.31.971.351.192.798.083.984-.26zM100.827 92.653l-1.651-2.852-.754 1.057 3.714 6.346.762-1.079-1.405-2.305 2.594.633.779-1.092zM98.452 101.314l.787-.861-.302-.272a1.52 1.52 0 0 0 1.189-.487c.803-.876.428-2.171-.425-2.95-.874-.799-2.201-1.07-3.021-.176-.292.32-.445.776-.358 1.198l-.014.016-.294-.271-.787.857 3.225 2.946zm-1.141-3.798c.411-.452 1.134-.294 1.566.097.434.401.651 1.102.24 1.548-.409.451-1.131.307-1.567-.088-.432-.4-.65-1.111-.239-1.557zM94.907 104.285c.461 0 .968-.276 1.291-.572.573-.526.568-1.336.013-1.938-.476-.515-.955-.425-1.384-.28-.433.141-.798.356-1.056.075a.457.457 0 0 1 .027-.668c.257-.235.643-.265.992-.222l-.102-.908a1.864 1.864 0 0 0-1.571.45c-.64.591-.797 1.519-.141 2.229.512.558 1.028.497 1.479.348.441-.137.821-.368 1.037-.131.145.16.11.404-.034.537-.175.158-.427.21-.665.203l.114.877zM89.242 106.121l.091.12c.805 1.042 1.933 1.511 3.01.684 1.066-.826.959-2.057.15-3.104-.81-1.052-2.018-1.332-3.036-.55-.688.529-.965 1.363-.662 2.227l.977-.519c-.084-.371-.042-.714.266-.954.49-.375 1.029-.007 1.367.426l-2.163 1.67zm2.609-1.033c.228.395.283.895-.093 1.185-.362.275-.843.1-1.16-.221l1.253-.964zM87.812 109.376l.016-.007 1.478 2.409 1.058-.647-3.503-5.718-1.061.646 1.575 2.572-.013.009-3.313-1.509-1.361.839 4.062 1.747-.442 3.903 1.305-.804zM80.027 114.041l1.053-.5-.176-.368c.412.2.895.183 1.285 0 1.075-.515 1.212-1.854.716-2.896-.51-1.067-1.639-1.818-2.735-1.293-.389.183-.702.551-.782.968l-.014.007-.176-.356-1.051.502 1.88 3.936zm.374-3.946c.549-.267 1.16.15 1.414.684.251.527.188 1.261-.361 1.521-.55.265-1.165-.142-1.417-.673-.253-.528-.186-1.272.364-1.532zM76.865 115.24l1.121-.377-2.123-6.352-1.124.375.869 2.596-.015.007c-.338-.262-.825-.307-1.227-.175-1.162.393-1.452 1.709-1.072 2.842.362 1.089 1.412 1.955 2.526 1.585.417-.142.768-.474.918-.88l.127.379zm-1.899-2.959c.577-.19 1.133.298 1.319.854.186.56.032 1.272-.544 1.465-.576.2-1.13-.285-1.317-.838-.184-.56-.035-1.288.542-1.481zM68.14 117.584l1.14-.247-.087-.399c.357.287.829.386 1.25.294 1.164-.253 1.607-1.521 1.364-2.652-.25-1.156-1.174-2.15-2.364-1.89-.421.088-.81.374-.983.77l-.018.002-.084-.391-1.139.244.921 4.269zm1.272-3.761c.594-.127 1.093.42 1.219.994.123.569-.109 1.269-.701 1.396-.597.133-1.102-.405-1.226-.98-.123-.575.113-1.284.708-1.41zM62.602 114.989c-.553.048-.976.561-.924 1.153.052.592.545 1.029 1.11.978.565-.047.975-.562.915-1.157-.05-.59-.55-1.021-1.101-.974zM58.575 116.869c.055-1.633-.565-2.896-2.27-2.951-1.709-.057-2.407 1.162-2.461 2.791l-.131 4.014 1.24.043.124-3.756c.027-.824.136-1.986 1.19-1.952 1.056.038 1.086 1.205 1.058 2.026l-.125 3.756 1.241.04.134-4.011zM50.615 118.003l1.174.169.606-4.326-1.172-.163-.3 2.142c-.075.522-.197 1.339-.892 1.235-.661-.09-.542-.756-.471-1.273l.321-2.295-1.17-.163-.371 2.642c-.142 1.007.062 1.874 1.167 2.024.417.057.849-.027 1.146-.386l.017.002-.055.392zM45.229 117.044l1.16.248.909-4.275-1.16-.244-.909 4.271zm.045 2.639c.382.081.759-.184.841-.576.085-.401-.151-.787-.532-.867-.382-.083-.756.174-.841.576-.084.394.153.787.532.867zM42.733 116.392l1.248.374-.516-4.815-.584-.18-3.129 3.704 1.236.383 1.538-2.106zM36.056 111.491l-.056.145c-.495 1.222-.327 2.428.935 2.938 1.249.506 2.257-.212 2.754-1.44.497-1.228.126-2.415-1.065-2.896-.807-.325-1.664-.144-2.257.558l.939.577c.279-.256.603-.396.959-.249.576.229.529.879.322 1.396l-2.531-1.029zm2.208 1.732c-.223.401-.626.695-1.063.521-.425-.171-.512-.677-.399-1.112l1.462.591zM32.836 112.574l1.065.521 1.916-3.927-1.064-.52-.862 1.766c-.297.61-.708 1.261-1.446.897a.798.798 0 0 1-.37-.354l-.635.974c.108.128.242.239.392.312.396.195.808.159 1.188-.081l.014.009-.198.403zM28.199 109.593c.129.444.536.849.912 1.076.667.404 1.438.168 1.859-.534.362-.601.14-1.036-.119-1.411-.26-.368-.567-.663-.372-.99a.461.461 0 0 1 .649-.161c.297.18.434.543.492.89l.844-.354a1.86 1.86 0 0 0-.878-1.379c-.746-.448-1.683-.335-2.183.493-.386.649-.182 1.131.086 1.516.261.383.586.686.421.96-.109.182-.36.22-.527.116-.203-.116-.322-.343-.379-.58l-.805.358zM25.615 108.234l.97.677 2.504-3.579-.97-.677-2.504 3.579zm-.991 2.447c.318.224.769.122.999-.205.235-.338.166-.781-.152-1.004-.317-.227-.763-.132-.998.2-.229.329-.167.783.151 1.009zM23.939 105.707l-.581-.435-.632.836.58.435-.888 1.182.944.711.889-1.177.325.242.632-.837-.324-.244 1.998-2.65-.945-.713zM20.651 101.079l-.102.117c-.88.979-1.138 2.167-.124 3.082.998.897 2.19.57 3.077-.414s.946-2.229-.011-3.09c-.646-.577-1.513-.7-2.308-.248l.685.869c.351-.148.7-.169.989.094.458.406.193 1.009-.177 1.42l-2.029-1.83zm1.487 2.381c-.349.299-.829.442-1.181.126-.338-.311-.249-.81.007-1.187l1.174 1.061zM17.203 100.967l.822.853 3.145-3.034-.823-.854-3.144 3.035zm-1.438 2.216c.27.277.729.264 1.019-.009.294-.285.312-.743.043-1.019-.271-.284-.725-.277-1.021.009-.285.274-.312.738-.041 1.019zM16.051 98.159l-.487-.542-.781.706.486.54-1.098.987.792.879 1.098-.987.272.301.779-.704-.269-.301 2.466-2.22-.792-.879zM11.642 94.125l.711 1.095 2.703-4.025-.334-.507-4.778.824.704 1.083 2.531-.623zM7.436 87.007l.547 1.031.361-.192c-.178.421-.145.898.056 1.282.56 1.049 1.903 1.133 2.924.587 1.044-.554 1.75-1.713 1.18-2.787-.203-.378-.583-.677-1.007-.737l-.008-.016.352-.187-.547-1.031-3.858 2.05zm3.965.197c.285.54-.106 1.168-.625 1.443-.518.279-1.251.247-1.538-.294-.284-.537.095-1.17.613-1.444.519-.275 1.263-.244 1.55.295zM6.183 84.166l.442 1.098 4.051-1.637-.444-1.097-2.002.811c-.49.196-1.26.499-1.521-.153-.25-.618.384-.847.871-1.043l2.145-.869-.443-1.097-2.475 1c-.941.379-1.586.991-1.169 2.022.157.393.454.72.907.799l.008.016-.37.15zM3.914 75.881l.006.017-2.767.608.269 1.213 6.55-1.442-.266-1.215-2.945.65-.003-.014 2.508-2.64-.343-1.559-2.98 3.267-3.544-1.7.329 1.498zM1.902 67.203l.149 1.154.404-.054a1.52 1.52 0 0 0-.399 1.222c.152 1.183 1.379 1.731 2.528 1.586 1.173-.152 2.24-.984 2.086-2.191-.055-.43-.304-.84-.681-1.049l-.003-.016.397-.051-.149-1.162-4.332.561zm3.638 1.586c.078.603-.51 1.054-1.092 1.129-.582.074-1.256-.213-1.333-.815-.078-.606.501-1.065 1.083-1.14.582-.074 1.267.224 1.342.826zM1.707 61.359l.026 1.165.407-.009c-.348.296-.534.74-.526 1.172.027 1.192 1.193 1.869 2.349 1.843 1.184-.027 2.333-.749 2.306-1.963-.01-.435-.217-.868-.568-1.112v-.021l.399-.006-.026-1.167-4.367.098zm3.452 1.959c.015.608-.619.995-1.205 1.009s-1.227-.345-1.24-.953c-.017-.605.608-1.002 1.195-1.015.587-.015 1.235.351 1.25.959zM1.884 58.259l-.097 1.179 6.676.55.097-1.177-2.731-.228.001-.018c.375-.203.606-.636.643-1.058.098-1.219-.996-2.006-2.184-2.104-1.143-.096-2.357.526-2.453 1.697a1.5 1.5 0 0 0 .447 1.191l-.399-.032zm3.468-.58c-.052.607-.719.928-1.306.876-.585-.047-1.184-.468-1.134-1.075.049-.605.709-.927 1.294-.878.588.047 1.195.471 1.146 1.077zM3.194 50.999c-.368.276-.613.797-.694 1.228-.146.762.337 1.405 1.144 1.559.689.133 1.022-.226 1.281-.599.26-.37.427-.763.803-.69.28.054.423.296.373.554-.065.343-.357.595-.661.771l.623.667c.522-.27.885-.751.991-1.299.164-.854-.266-1.693-1.22-1.875-.742-.143-1.117.215-1.39.604-.272.379-.44.784-.756.724-.208-.039-.329-.261-.292-.452.044-.23.215-.423.414-.557l-.616-.635zM4.562 48.365l.172-.704-1.019-.251-.175.707-1.434-.352-.28 1.15 1.432.351-.096.394 1.021.25.094-.395 3.226.794.282-1.149zM5.282 42.42l-.362 1.109.389.128a1.499 1.499 0 0 0-.881.93c-.369 1.134.507 2.156 1.605 2.514 1.125.363 2.449.065 2.826-1.091.13-.412.082-.89-.169-1.239l.005-.018.381.127.36-1.111-4.154-1.349zm2.611 2.99c-.188.58-.913.733-1.473.553-.558-.181-1.042-.729-.855-1.307.189-.581.908-.746 1.465-.566.558.181 1.053.742.863 1.32zM11.163 39.896l.5-1.075-6.838-3.189-.501 1.073 3.241 1.51-.006.015a1.435 1.435 0 0 0-.971.799c-.504 1.079.24 2.2 1.287 2.689 1.072.5 2.423.364 2.939-.739.182-.39.19-.873-.029-1.242l.007-.016.371.175zm-1.236.375c-.257.548-.995.616-1.528.368-.532-.247-.947-.854-.689-1.403.257-.552.987-.624 1.519-.375.531.248.956.857.698 1.41zM12.526 34.421c.304-.467.159-1.114-.34-1.438-.501-.326-1.149-.204-1.456.269-.308.479-.156 1.115.348 1.437.501.325 1.146.196 1.448-.268z"/></g><path fill="none" d="M8.42 62.116c0-27.212 22.06-49.275 49.274-49.275 27.214 0 49.275 22.063 49.275 49.275 0 27.218-22.062 49.277-49.275 49.277C30.48 111.394 8.42 89.334 8.42 62.116z"/><path fill="#231F20" d="M29.772 28.856h55.847v35.312c0 28.336-27.924 37.777-27.924 37.777s-27.923-9.44-27.923-37.735V28.856z"/><path fill="#FFF" d="M84.797 29.678v34.491c0 26.125-24.295 35.867-27.102 36.908-2.804-1.041-27.099-10.781-27.099-36.867V29.678h54.201z"/><path fill="#231F20" d="M82.333 64.169c0 22.661-19.65 32.211-24.638 34.262-4.99-2.051-24.636-11.597-24.636-34.221V32.142h49.273v32.027z"/><path fill="#231F20" d="M57.695 97.54C52.292 95.254 33.88 85.839 33.88 64.21V32.964h47.632v31.205c0 21.665-18.416 31.085-23.817 33.371z"/><path fill="#FFF" d="M57.91 56.208c1.108 0 1.747.813 1.747 1.762 0 .241-.071.687-.28.888h-.117s-.039.001-.039-.079c0-.081.093-.261.123-.394.031-.155.044-.4.044-.48 0-.519-.421-1.408-1.029-1.408h-.462c-.086 0-.093.062-.157.121.07.272.322.254.519.434.291.272.424.734.424 1.014 0 .22-.192.827-.56.827h-1.472c-.315 0-.39-.503-.39-.633 0-.078-.069-.174-.069-.256-.001-.908.707-1.796 1.718-1.796z"/><path fill="#FFF" d="M58.06 54.851c.211 0 .801.114.942.305.072.091.219.146.219.229 0 .009.369.591.364.748v.364c-.637-.525-1.092-.679-1.675-.679-.54 0-1.009.188-1.54.615-.01-.048-.044-.033-.044-.111 0-.082.056-.164.076-.229.249-.809.914-1.242 1.658-1.242zM60.576 54.691a12.05 12.05 0 0 1 3.621 1.208.611.611 0 0 1-.216.101c-.936.118-1.886.239-2.836.301-.208-.493-.612-1.45-.612-1.532-.001-.08.003-.044.043-.078zM55.2 54.656l.351.04a4.884 4.884 0 0 0-.744 1.768h-.511c-.642.002-2.631-.354-2.979-.497 1.241-.761 2.64-1.04 3.883-1.311z"/><path fill="#FFF" d="M59.069 54.46c.17.033.388.011.576.076.441.157.887 1.192.887 1.558 0 .083.031.188.064.294-.036.039-.031.062.003.45-.03.373-.166.948-.563 1.278-.037-1.027-.178-.772-.145-1.731.015-.356-.138-.822-.492-1.196-.47-.504-.84-.596-1.34-.596-1.198 0-1.999 1.01-1.999 1.823 0 .08-.04.105-.05.135-.02.128.006.261-.012.386-.059.392-.259.773-.213 1.175-.262-.008-.466-.783-.466-1 0-.081-.068-.192-.068-.273 0-.72.597-2.199 1.225-2.345l2.593-.034zM53.265 53.846c.16 0 .271.6.271.6 0 .248-.224.181-.449.279-.318.149-.677.245-1.007.357-.405.143-.841.348-1.253.541-.137-.157-.285-.471-.285-.628 0-.281 2.613-1.149 2.723-1.149zM62.23 53.815c.18 0 2.839.884 2.839 1.196 0 .109-.19.548-.283.548-.085 0-.773-.318-1.151-.478-.459-.192-.983-.313-1.48-.506-.144-.052-.144-.168-.144-.21.001-.02.096-.55.219-.55zM51.005 53.43c.107.199.244.563.244.646 0 .128-.712.417-.862.45-.03-.022-.316-.558-.316-.644-.001-.124.674-.456.934-.452zM64.585 53.396c.093 0 .957.389.957.518 0 .079-.169.408-.276.61-.065-.013-.968-.302-.968-.515 0-.103.202-.613.287-.613zM58.229 53.201c.084 0 .134.008.773.032.913.031 1.931.222 2.906.522v.168c.002.14-.12.506-.234.506-.083 0-.927-.22-1.363-.282-.399-.06-.842-.074-1.245-.138l-1.013-.035a1.576 1.576 0 0 1-.11-.104v-.527c.04-.063.2-.142.286-.142zM57.662 53.201a.632.632 0 0 1 .114.325c0 .477-.176.483-.63.483h-.428c-.534 0-2.567.45-2.796.45-.175 0-.286-.433-.286-.562 0-.083.003-.111.051-.169.229-.074.498-.137.771-.196.729-.16 1.481-.21 2.221-.3l.983-.031zM60.312 52.2c.362 0 3.918.792 3.918 1.114 0 .165-.224.609-.28.663-.718-.229-1.45-.482-2.195-.674-.504-.124-1.154-.128-1.66-.37.029-.365.037-.384-.002-.426.04-.07.025-.307.219-.307zM55.374 52.2c.159.183.146.464.146.646 0 .197-.251.171-.419.2-.536.096-1.12.189-1.645.357-.594.187-1.354.48-1.962.603-.111-.201-.245-.531-.245-.61 0-.23.708-.39.75-.402 1.07-.367 2.294-.664 3.375-.794zM58.795 52.035c.082 0 .679.066 1.021.106.07.062.109.12.109.201s-.035.233-.068.321c.03.024-.014.169-.039.274-.852-.027-1.175-.092-1.259-.092h-1.606c-.085 0-.743.064-1.122.094-.122-.132-.145-.391-.145-.55 0-.08.004-.152.043-.21a8.12 8.12 0 0 1 1.021-.146h2.045zM52.71 51.616c.084 0 .118.009.138.042.047.164.15.416.147.498v.198l-3.047 1.104c-.142-.201-.247-.503-.247-.581 0-.128.4-.311.447-.332.206-.101 2.041-.929 2.562-.929zM62.785 51.583c.202 0 3.197 1.009 3.197 1.264 0 .077-.138.378-.216.542-.023.031-.036.037-.121.037-.084 0-1.39-.549-2.109-.801-.289-.1-.651-.152-.944-.277-.075-.032-.109-.116-.109-.196 0-.079.102-.364.183-.522.03-.014.035-.047.119-.047zM50.206 51.323c.085 0 .089.037.117.048.083.155.186.458.186.536 0 .144-.822.476-.963.517-.065-.069-.28-.519-.28-.628-.001-.089.876-.473.94-.473zM65.324 51.259c.136 0 1.061.461 1.061.57 0 .131-.19.562-.303.562-.083 0-.662-.289-1.001-.431-.035-.024-.042-.037-.042-.117 0-.082.099-.29.099-.371 0-.08.103-.213.186-.213zM58.463 50.871c.084 0 .543.008 1.212.065.449.04 2.74.401 2.74.63 0 .167-.082.467-.213.662-.481-.095-.983-.204-1.455-.281a34.066 34.066 0 0 0-2.155-.233h-.47c-.07-.033-.113-.108-.149-.172 0-.036.034-.068 0-.329.01-.375.229-.342.49-.342zM57.521 50.871c.083 0 .1.034.207.072.003.04.048.107.046.662l-.112.108h-.607c-.796 0-3.542.518-3.745.548-.077-.171-.176-.447-.174-.528v-.209c.955-.312 2.003-.457 3.004-.552a27.437 27.437 0 0 1 1.381-.101zM63.971 50.811h.139c.05-.002.862.287.862.402 0 .13-.185.565-.318.565-.086 0-.549-.16-.813-.27-.035-.012-.08-.086-.08-.166-.001-.083.137-.361.21-.531zM51.533 50.809c.103 0 .253.595.253.614 0 .083-.008.095-.042.114-.306.144-.815.339-.902.339-.113 0-.301-.58-.301-.632.001-.073.948-.435.992-.435zM60.471 49.972h.243c.081-.003.579.126.856.194.003.044.035.028.035.109 0 .089-.12.596-.231.596-.085 0-.597-.087-.894-.14-.065-.008-.151-.114-.151-.197 0-.081.067-.361.142-.562zM55.067 49.969c.135 0 .185.521.185.565 0 .335-.999.337-1.169.335a2.241 2.241 0 0 1-.143-.562c-.001-.171.992-.338 1.127-.338zM59.059 49.841c.119-.002 1.104-.102 1.104.271 0 .082-.037.327-.073.494-.073.04-.197.041-.282.041-.263 0-.56.012-.808-.113-.042-.053-.048-.131-.048-.211a1.513 1.513 0 0 1 .107-.482zM56.179 49.841h.377c.1.164.105.343.105.466a.393.393 0 0 1-.027.175c-.136.117-.426.166-.599.165h-.479c-.038-.175-.105-.452-.105-.534.002-.258.503-.274.728-.272zM64.349 49.675c.095 0 2.507.88 2.507 1.054 0 .08-.17.429-.314.663a59.813 59.813 0 0 0-2.432-.99c-.011-.022-.046.002-.046-.078-.001-.063.157-.649.285-.649zM51.249 49.675c.125 0 .269.665.269.665 0 .081-.078.11-.112.132-.47.175-1.317.531-1.403.531-.082 0-.701.282-.896.353-.11-.198-.281-.547-.281-.627 0-.239 2.354-1.054 2.423-1.054zM59.302 48.676c.252 0 2.128.27 2.431.331a.178.178 0 0 1 .078.153c0 .128-.074.551-.27.615l-2.456-.361c-.033-.398 0-.579 0-.657 0-.081.136-.081.217-.081zM56.146 48.681s.417.067.437.104c.015.065.044.409.044.487 0 .083-.064.141-.106.196-.85.078-1.724.176-2.608.303a2.702 2.702 0 0 1-.143-.595c0-.081.003-.104.041-.164.325-.09 2.114-.336 2.335-.331zM55.402 46.735l5.169.015c.166-.038.49.222.628.416v.091h-6.516c.052-.311.485-.528.719-.522zM55.801 46.218l4.216.029c.005.043.246.115.244.222a.514.514 0 0 1-.217.072l-4.447-.033c-.04-.037-.044-.032-.044-.114 0-.147.124-.119.248-.176zM56.376 45.604l3.063.029c.074.012.252.115.252.198 0 .08-.11.125-.114.204l-3.101-.012c-.167-.047-.317-.034-.317-.209 0-.11.078-.195.217-.21zM57.035 44.956l1.908.019c.166.019.31.097.31.242 0 .074-.031.153-.183.162l-2.335-.009c-.086-.022-.256-.204-.273-.271.138-.157.411-.143.573-.143zM56.464 43.992c.67.078 1.021.188 1.53.188.41 0 .759-.11 1.39-.188v.136c.003.08-.167.368-.249.523-.164.047-.403.08-.487.08h-1.887c-.04-.033-.056-.098-.087-.115-.074-.152-.214-.431-.21-.511v-.113zM54.411 42.63c.217 0 .614.366.602.578h-.18c-.137.003-.59-.335-.59-.433 0-.085.077-.145.168-.145zM55.283 42.6c.359 0 .627.602.708.791-.037.044-.036.079-.119.079-.292 0-.788-.507-.788-.712-.001-.134.134-.158.199-.158zM56.261 42.566c.339 0 .401.642.401.729 0 .085-.092.234-.184.27-.152-.035-.417-.521-.417-.724 0-.173.042-.275.2-.275zM60.648 42.534c.15 0 .15.141.15.158 0 .198-.418.604-.581.68h-.149c-.036-.035-.041-.016-.041-.095.001-.107.353-.743.621-.743zM59.826 42.534a.19.19 0 0 1 .202.19c0 .113-.388.745-.625.745-.156 0-.15-.143-.15-.162-.001-.147.283-.773.573-.773zM58.799 42.534c.201 0 .286.254.286.339 0 .128-.184.758-.403.758-.246 0-.204-.44-.204-.452.001-.149.006-.645.321-.645zM57.957 42.534c.271 0 .286.38.286.482 0 .11-.055.614-.27.614-.264 0-.3-.653-.3-.678 0-.189.041-.418.284-.418zM57.084 42.534c.281 0 .386.362.386.53 0 .09-.101.535-.237.535-.276 0-.402-.721-.402-.744.001-.146.05-.321.253-.321zM51.474 40.301c.261-.025.278.392.278.486 0 .678-.874.873-1.21.873-.644 0-1.752-.63-2.326-1.359h3.258zM63.792 40.25s-.588 1.491-1.948 2.12c-.076.034-.321-.161-.406-.161-.083 0-.352.161-.434.161-.086 0-.32-.128-.404-.128-.085 0-.253.128-.336.128-.068 0-.319-.128-.438-.128-.084 0-.438.128-.472.128-.084 0-.354-.128-.437-.128-.084 0-.404.161-.486.161-.087 0-.372-.161-.458-.161-.083 0-.319.128-.402.128-.086 0-.318-.128-.401-.128-.085 0-.438.191-.523.191-.083 0-.37-.128-.455-.128-.084 0-.283.128-.369.128-.083 0-.42-.159-.503-.159-.084 0-.37.159-.456.159-.083 0-.42-.128-.503-.128-.271 0-.439.261-.505.261-.085 0-.248-.144-.347-.224-.44-.344-.879-.918-1.093-1.273-.128-.205-.392-.819-.392-.819h11.768zM65.028 39.618v.29c-.055-.102-.073-.058-.107-.058H52.332c-.163 0-.362 0-.577-.043v-.189h13.273zM46.842 39.169c.231 0 .4.453.761.453h3.703c.071.073.111.148.106.224h-4.28c-.138.005-.593-.284-.593-.482-.001-.124.282-.195.303-.195zM59.629 38.332h.107c.086-.002.755.551 1.131.852-.032.076-.135.117-.219.117-.398 0-1.059-.595-1.059-.856 0-.085.034-.066.04-.113zM58.177 38.264c.173 0 .302.525.302.565 0 .272-.195.374-.368.374-.268 0-.303-.109-.303-.26 0-.105.192-.679.369-.679zM58.755 38.23h.139c.233 0 .729.72.729.762 0 .182-.19.244-.299.244-.361 0-.642-.63-.642-.777 0-.08.034-.153.073-.229zM56.82 38.23c.038.038.079.066.079.148 0 .175-.597.857-.797.855h-.405c-.037-.035-.044-.013-.044-.097 0-.08.905-.83 1.167-.906zM57.571 38.168c.125 0 .136.143.136.162 0 .239-.332.906-.623.906-.135 0-.253-.069-.253-.208.001-.173.43-.86.74-.86zM56.98 37.523l2.597-.021c.004.044.114.101.114.182 0 .08-.095.082-.225.109l-2.659.02c-.039-.036-.073-.036-.109-.076v-.11c.075-.039.178-.073.282-.104z"/><path fill="#FFF" d="M66.823 37.327c.96 0 2.219.57 2.219 1.714 0 1.365-1.927 2.448-3.109 2.657-.473.089-.978.28-1.45.336-.792.103-1.747.344-2.556 1.014-.045-.035-.05-.031-.05-.111 0-.448 1.428-1.058 1.492-1.073 1.096-.337 2.355-.577 3.462-1.085.966-.445 1.471-1.075 1.471-1.802 0-.774-.93-1.099-1.446-1.099-.312 0-1.176.204-1.314.437.034.057.133.086.195.123.083.049.21.272.21.328 0 .349-.337.535-.657.535-.356 0-.756-.199-.756-.601 0-.081.103-.271.193-.397.505-.694 1.426-.976 2.096-.976zM58.193 36.035c.238 0 .555.149.555.471 0 .346-.276.53-.571.53-.289 0-.503-.282-.503-.5-.001-.299.229-.501.519-.501zM54.171 35.103c-.246.399-.708.321-1.044.581-.278.212-.044.772-.517.772-.083 0-.708-.13-.789-.13-.178 0-.238-.043-.438.21.249.323.605.5.605.855 0 .081-.034.13-.034.211 0 .223-.677.437-.957.501l-1.012-.032c-.186-.032-.555.267-.701.485-.158-.134-.354-.383-.354-.567 0-.366.527-.242.623-.242h.53c.273 0 .663-.383.663-.595 0-.516-.91-.541-.91-1.102 0-.433.554-.536.826-.536.084 0 1.21.262 1.293.262.32 0 .604-.308.884-.475.207-.119.51-.163.748-.172.434-.019.496.003.584-.026zM57.962 80.022c.419 0 .915.258.908.855.066 4.444.086 4.463.077 4.494.01.157.077.374.077.455 0 .078.109.417.157.607.229.841.958 1.377 1.673 1.377 2.001 0 5.918-2.74 7.413-4.175-.163-.154-.518-.538-.63-.619-.04-.033-.379-.307-.379-.474 0-.154 2.258-1.412 2.348-1.475.311-.209.615-.408.877-.619.159-.125.772-.583.991-.583.221 0 .025 1.029.062 1.072-.066.36-.203 1.035-.203 1.121 0 .08-.2.711-.2.791 0 .453-.46 1.46-.616 1.785a.813.813 0 0 1-.173.234c-.406-.028-1.164-.734-1.288-.734-.184 0-1.87 1.612-2.537 2.239-.417.384-.903.723-1.277 1.052-.819.729-5.708 4.523-7.407 4.523-1.699 0-6.586-3.794-7.405-4.523-.376-.329-.863-.668-1.28-1.052-.668-.627-2.351-2.239-2.534-2.239-.129 0-.885.706-1.291.734a.79.79 0 0 1-.173-.234c-.155-.325-.613-1.332-.613-1.785 0-.08-.205-.711-.205-.791 0-.086-.134-.761-.202-1.121.038-.043-.159-1.072.065-1.072.218 0 .831.458.988.583.262.211.567.41.875.619.091.062 2.352 1.32 2.352 1.475 0 .167-.341.44-.384.474-.11.081-.465.465-.627.619 1.497 1.435 5.41 4.175 7.409 4.175.721 0 1.448-.536 1.675-1.377.051-.19.16-.529.16-.607 0-.081.064-.298.074-.455-.009-.031.012-.05.079-4.494-.008-.598.487-.855.909-.855h.255zM45.411 65.965l-.004 10.238s1.064.841 5.055-.222c0 0 4.006-1.516 7.09.339V65.788s-1.978-1.769-6.857-.482c0 0-3.11 1.007-4.506.678-1.051-.255-.778-.019-.778-.019zM57.461 79.143a.438.438 0 0 1-.33 0c-.002-.038-.036-.038-.036-.12 0-.231.296-1.142.354-1.228.015.146.05.823.012 1.348zM57.75 77.764c.026.092.108.207.131.323.06.305.052.639.048.694v.399l-.268.012c-.007-.175-.029-.204-.029-.22v-.841c0-.081.05-.043.002-.052.033-.077.066-.207.116-.315zM57.191 77.732v.24c.006.08-.195.687-.305 1.016h-.151a.249.249 0 0 1-.076-.178c.001-.151.487-1.051.532-1.078zM56.988 77.609c-.13.343-.297.697-.471 1.057-.042.002-.026.031-.109.031-.084 0-.15-.079-.15-.16 0-.132.678-.905.73-.928zM56.757 77.345l-.04.147c-.201.261-.396.525-.606.821-.167-.085-.157-.169-.157-.175.001-.159.638-.729.803-.793zM70.16 65.965l.005 10.238s-1.064.841-5.057-.222c0 0-3.943-1.516-7.081.339V65.768s1.972-1.748 6.847-.462c0 0 3.112 1.007 4.508.678 1.049-.255.778-.019.778-.019zM58.11 79.143a.433.433 0 0 0 .328 0c.003-.038.037-.038.037-.12 0-.231-.299-1.142-.354-1.228-.013.146-.049.823-.011 1.348zM58.381 77.732v.24c-.004.08.195.687.303 1.016h.15a.241.241 0 0 0 .077-.178c0-.151-.488-1.051-.53-1.078zM58.585 77.609c.125.343.292.697.469 1.057.04.002.025.031.11.031.082 0 .15-.079.15-.16 0-.132-.675-.905-.729-.928zM70.626 66.183v10.576l-.134-.165-.165-.245V65.911l.299.272zm.405.19v10.909l-.286-.388V66.2l.286.173zm.364.247v11.105l-.084-.089-.162-.205V66.553l.246.067zM58.814 77.345l.04.147c.2.261.393.525.607.821.167-.085.153-.169.153-.175 0-.159-.634-.729-.8-.793z"/><path fill="#FFF" d="M71.722 66.94h.406v11.62l-12.243.005-.004-.031a2.485 2.485 0 0 1-2.045 1.208h-.049c-.017 0-.035.002-.05 0a2.484 2.484 0 0 1-2.046-1.208l-.006.031H43.443V66.94h.405v11.233H55.74l-.031.229a2.434 2.434 0 0 0 2.079 1.264 2.432 2.432 0 0 0 2.076-1.261l-.031-.231h11.891V66.94z"/><ellipse fill="#FFF" cx="49.279" cy="39.081" rx=".248" ry=".237"/><path fill="#FFF" d="M61.471 42.63c-.218 0-.615.366-.602.578h.179c.139.003.592-.335.592-.433 0-.085-.08-.145-.169-.145zM57.772 65.366l-.977-.635c.004-.218-.003-.606.002-.852-.008-.599.487-.857.909-.857h.255c.419 0 .915.259.908.857.003.245.007.634.011.852l-1.108.635zM50.775 59.316l1.508-.019v2.198l-1.496-.275zM48.219 59.543h2.251v1.479l-2.251-.34zM48.057 59.575l-.456.326v1.147l.458-.284z"/><path fill="#231F20" d="M51.434 59.501a.347.347 0 0 1 .111-.016c.208 0 .375.162.375.36 0 .2-.168.362-.375.362-.081 0-.216-.131-.276-.174.151-.047.327-.018.327-.236a.396.396 0 0 0-.162-.296zM51.434 60.409a.322.322 0 0 1 .111-.017c.208 0 .375.157.375.359a.365.365 0 0 1-.375.356c-.081 0-.216-.123-.276-.167.151-.049.327-.019.327-.236a.386.386 0 0 0-.162-.295z"/><path fill="#FFF" d="M48.173 60.856l2.287.352v.322l-2.713-.416zM50.794 61.42l1.489.279-.004.293-1.487-.3zM52.558 61.643l5.214.913v.257l-5.214-.853zM64.747 59.297h-1.488v2.198l1.498-.275zM67.323 59.543h-2.254v1.479l2.254-.34z"/><path fill="#231F20" d="M63.786 59.501a.337.337 0 0 1 .112-.016c.206 0 .375.162.375.36a.37.37 0 0 1-.375.362c-.083 0-.217-.131-.276-.174.147-.047.323-.018.323-.236a.396.396 0 0 0-.159-.296zM63.786 60.409a.313.313 0 0 1 .112-.017c.206 0 .375.157.375.359a.366.366 0 0 1-.375.356c-.083 0-.217-.123-.276-.167.147-.049.323-.019.323-.236a.386.386 0 0 0-.159-.295z"/><path fill="#FFF" d="M67.323 60.844l-2.24.364v.322l2.044-.351zM64.747 61.42l-1.488.279v.241l1.491-.248zM57.772 62.264l-5.195-.905v-1.798h10.388v1.798zM62.982 61.643l-5.21.913v.257l5.21-.853z"/><path fill="#231F20" d="M59.962 68.416c.58.019 1.032.303 1.032.777 0 .228-.095.413-.372.606.176.251.541.483.541.8 0 .711-.776.835-1.248.835-.086 0-.326 0-.969-.036-.042-.036-.073-.036-.112-.076.07-.107.168-.238.221-.363V68.73c-.05-.095-.152-.191-.184-.273.115-.007.249-.041 1.091-.041zM62.899 68.611c.856 0 1.199.773 1.199 1.379 0 .735-.49 1.538-1.299 1.538s-1.3-.773-1.3-1.374c.001-.65.423-1.543 1.4-1.543zM64.518 68.743c1.102 0 .786.759 1.552 1.614.183-.222.151-.601.151-.871 0-.231-.005-.248-.231-.476.048-.012.048-.048.133-.048s.459.07.675.148c-.454.256-.326.777-.372 1.172-.082.709-.07 1.136-.147 1.573-.632-.688-.844-1.432-1.361-2.079-.027.002-.047.059-.07.087-.04.388-.177 1.144-.177 1.227 0 .186.15.38.27.559-.222.045-.543.083-.806-.027 0 0 0-.047.009-.078.352-.15.292-.727.292-.987 0-.082.167-1.172.167-1.253 0-.097-.1-.287-.271-.446.083-.094.129-.115.186-.115zM67.517 69.101c.277.029.787.029.894.067 0 0 .04-.005.04.075 0 .079-.1.142-.1.229 0 .077.192.647.324.964.164.406.227 1 .652 1.365v.107c-.352.04-.691.04-1.037.004 0 0-.043.003-.043-.075 0-.081.137-.197.137-.274 0-.196-.149-.521-.39-.521h-.568c-.08.04-.222.401-.222.537 0 .079.064.155.132.266-.249.04-.523.014-.772-.031.069-.115.254-.183.323-.339.296-.625.722-1.925.722-2.002 0-.088-.136-.198-.136-.279 0-.078.006-.058.044-.093z"/><path fill="#FFF" d="M62.965 68.837c.366 0 .432.344.491.697-.034.391-.037.411-.001.451-.011.079-.099 1.32-.691 1.32-.523 0-.591-.815-.591-1.009-.001-.279.122-1.459.792-1.459zM67.753 70.006c.073.031.326.525.326.632 0 .079-.034.034-.039.11h-.425c-.037-.036-.077-.076-.077-.159.001-.08.104-.38.215-.583zM59.915 69.972c.38 0 .574.267.574.569 0 .299-.228.636-.556.636a.527.527 0 0 1-.288-.11v-.886c-.001-.168.111-.209.27-.209zM59.962 68.708c.318 0 .456.129.456.455 0 .339-.155.549-.503.549a.338.338 0 0 1-.237-.105c0-.657.032-.749.035-.856a.545.545 0 0 1 .249-.043z"/><g><path fill="#231F20" d="M55.064 68.416h.681c.041.07.041.633 0 .742-.135-.002-.219-.379-.421-.446a.776.776 0 0 0-.23-.036c-.176 0-.456.067-.456.303 0 .65 1.419.623 1.419 1.657 0 .489-.36.792-.878.792-.085 0-.595-.095-.869-.145-.118-.131-.109-.39-.109-.587 0-.081.035-.165.08-.275.214.384.515.749.95.749.191 0 .353-.128.353-.339 0-.595-1.417-.722-1.417-1.64-.001-.557.441-.777.897-.775zM53.221 68.676c.083 0 .126.063.196.102v.704c-.126-.135-.2-.285-.324-.381-.114-.1-.343-.14-.429-.14-.082 0-.49.056-.521.248.032.387.027.432 0 .454.043.061-.023.401.168.401.229 0 .29-.225.458-.354.045.076.045.142.08.213-.036.04-.033.062-.009.597-.153-.123-.264-.259-.429-.259-.146 0-.18.131-.202.212.036.414.028.463 0 .49.036.121.017.289.075.413.058.123.195.083.263.083.397 0 .778-.131.959-.646.048.036.052.08.052.161s-.064.376-.118.58c-.501.133-1.507.266-1.59.263h-.447c-.004-.08.113-.182.155-.247a.795.795 0 0 0 .078-.334l-.103-1.82c0-.173-.201-.393-.269-.431-.001-.04.041-.083.078-.107.61-.073 1.796-.202 1.879-.202zM50.033 69.058c.585 0 .995.312.995.862 0 .613-.323.923-1.264.932-.114.042-.088.258-.088.289 0 .078.047.438.142.657.035.076.156.118.264.192-.104.2-.442.121-.623.15-.439 0-.518 0-.554-.04-.003-.072.086-.106.121-.176.069-.154.045-.398.045-.481l-.068-1.78c-.048-.117-.057-.211-.202-.361.321-.199.861-.244 1.232-.244zM47.282 69.161c.085 0 .185.03.872.037-.083.126.005.32.005.431 0 .081-.035.23-.076.372-.122-.105-.159-.289-.27-.395-.096-.092-.361-.154-.445-.154-.178 0-.39.052-.39.294 0 .354 1.139.898 1.065 1.002-.041.059.116.104.169.168.045.061.116.168.123.265.023.032.096.022.096.103 0 .079-.069-.047-.069.032 0 .078.069.047.069.128 0 .083-.069.052-.069.134 0 .076.02.014.067.022-.102.146-.173.346-.344.472a1.089 1.089 0 0 1-.499.167c-.086 0-.424-.122-.629-.188-.096-.029-.234-.007-.342-.012-.009-.076-.042-.139-.042-.627 0-.065.036-.167.083-.242.258.368.436.775.878.775.181 0 .389-.186.389-.354 0-.609-1.386-.635-1.386-1.604.001-.391.248-.826.745-.826z"/><path fill="#FFF" d="M49.913 69.319c.406 0 .507.42.507.633 0 .345-.15.663-.524.663-.077 0-.256.019-.251-.213.015-.482-.035-.641-.035-.727-.001-.279.034-.356.303-.356z"/></g><path fill="#009ADA" d="M57.695 97.54C52.292 95.254 33.88 85.839 33.88 64.21v-2.267a300.94 300.94 0 0 1 5.699-1.679s1.925-.878 5.349.514c0 0 5.49 2.255 11.224 2.768.173.045.107 1.022.132 1.168l-.218-.054c-.086.004-.148-.059-.258-.069a13.951 13.951 0 0 0-1.961-.142c-1.182 0-1.245.135-2.784.368-.246.037-.992.242-1.255.318-.861.258-1.796.497-2.714.497-.088 0-.888-.103-1.155-.147-.334-.052-.587.062-.674.062-.186 0-1.196.881-1.515 1.036-.15.069-.65-.105-.651.159l.02 12.059h12.326c.141 0 .84 1.095.84 1.097v5.491c0 .083-.167.569-.167.646 0 .086-.308.655-.522.906-.328.388-.714.408-1.025.408-1.709 0-5.407-2.571-6.595-3.83.019-.024.876-.755.876-1.005 0-.334-.862-.682-.965-.739-.136-.076-.296-.202-.474-.308-.394-.244-.855-.479-1.278-.76-.285-.2-1.5-1.195-1.978-1.216-.326-.013-.492.46-.492.595l.043 1.292c0 .08.154.881.245 1.293.108.521.279 1.074.468 1.617.016.056.467 1.054.75 1.054 0 0 1.283-.773 1.362-.773.169 0 .958.931 1.192 1.142.497.462 1.03 1.058 1.626 1.564.85.722 1.793 1.363 2.678 2.024.322.24.639.496.954.725.455.32.958.65 1.48.964.216.137.52.218.739.346.658.388 1.64 1.022 2.377 1.022h.5c.739 0 1.723-.635 2.379-1.022.218-.128.521-.209.741-.346a24.438 24.438 0 0 0 1.478-.964c.314-.229.634-.484.954-.725.885-.661 1.829-1.303 2.677-2.024.597-.507 1.132-1.103 1.627-1.564.234-.211 1.022-1.142 1.191-1.142.077 0 1.363.773 1.363.773.28 0 .734-.998.75-1.054a13.62 13.62 0 0 0 .47-1.617c.087-.412.244-1.213.244-1.293v-1.416c0-.13-.201-.531-.471-.531-.479 0-1.675 1.076-1.958 1.276-.422.28-.884.516-1.28.76-.176.105-.336.231-.473.308-.104.058-.965.405-.965.739 0 .25.855.98.873 1.005-1.183 1.259-4.879 3.83-6.591 3.83-.311 0-.695-.021-1.03-.408-.21-.251-.52-.82-.52-.906 0-.076-.166-.562-.166-.646v-5.491c0-.002.717-1.097.862-1.097h12.324V66.743c-.001-.265-.579-.193-.733-.265-.316-.157-1.226-1.007-1.413-1.007-.084 0-.584.054-.915.105-.271.038-.695.238-1.085.125-.879-.253-1.777-.056-2.696-.544-.242-.135-.925-.319-1.173-.354-1.538-.235-1.5-.387-2.681-.387-.729 0-1.291-.038-1.965.049-.112.012-.205.048-.29.048l-.188.052c.025-.148-.086-.975.085-1.02 5.733-.513 11.223-2.768 11.223-2.768 3.428-1.392 5.349-.514 5.349-.514 1.324.363 4.437 1.362 5.436 1.694v2.21c0 21.667-18.416 31.087-23.817 33.373z"/><path fill="#FFF" d="M44.421 77.385l-.244.329V66.74l.244-.161v10.806zm.821-11.339v10.241l-.293.396V66.231l.293-.185zm-.416.265v10.536l-.286.382V66.503l.286-.192zM44.827 77.537c.05.021.108.041.181.068.173.051.408.111.702.165.76.133 1.92.211 3.53-.012l.861-.165 1.689-.395s.641-.189 1.5-.24c.848-.052 1.912.039 2.768.592l-.052.055c-.835-.537-1.875-.626-2.712-.577a7.662 7.662 0 0 0-1.233.173 9.54 9.54 0 0 1 1.353-.117c.831-.009 1.829.097 2.537.577l-.049.051c-.689-.459-1.663-.571-2.486-.561-.869.012-1.561.162-1.561.162l-1.743.346-.88.206c-1.617.224-2.778.137-3.531-.014a5.13 5.13 0 0 1-.716-.182c-.08-.022-.146-.045-.203-.064l.045-.068zm.643-.95c.031.014.065.024.103.041 1.127.411 2.538.296 3.665.016l2.477-.615s.867-.22 1.956-.247c1.075-.028 2.376.124 3.269.851l-.05.049c-.871-.705-2.147-.858-3.218-.829a10.102 10.102 0 0 0-1.939.242l-2.477.62c-1.144.279-2.565.393-3.708-.022-.045-.016-.087-.03-.121-.046l.043-.06zm-.341.502c.196.067.538.178 1.001.256a7.747 7.747 0 0 0 3.108-.142l2.477-.614s.779-.218 1.767-.254c.969-.03 2.14.108 2.98.792l-.048.054c-.819-.668-1.967-.805-2.927-.773a8.411 8.411 0 0 0-1.753.252l-2.477.611a7.651 7.651 0 0 1-3.136.142 5.665 5.665 0 0 1-1.031-.265l.039-.059zM70.506 77.67c-.616.206-1.978.504-4.244.195l-.887-.206-1.737-.346c-.004 0-2.566-.541-4 .368l-.05-.05c.705-.46 1.677-.557 2.49-.548a9.07 9.07 0 0 1 1.349.117c-.677-.155-2.535-.469-3.893.37l-.051-.052c.847-.528 1.887-.612 2.717-.561.86.051 1.503.24 1.503.24l1.684.395.863.165c1.611.223 2.773.145 3.529.012a7.01 7.01 0 0 0 .708-.165c.173-.062.281-.11.336-.14l.055.069a2.507 2.507 0 0 1-.372.137zm-.353-1.063c-.267.125-1.615.67-3.916.106l-2.476-.62c-.005-.003-3.348-.823-5.116.552l-.051-.047c.893-.7 2.168-.846 3.227-.817a9.87 9.87 0 0 1 1.957.247l2.474.615c1.131.28 2.538.396 3.667-.016.083-.029.146-.059.189-.077l.045.057zm.383.491c-.278.112-1.943.752-4.299.173l-2.477-.611c-.004-.002-2.969-.821-4.636.483l-.049-.049c.837-.657 1.984-.789 2.934-.759.988.036 1.771.254 1.771.254l2.474.614a7.772 7.772 0 0 0 3.109.142 5.56 5.56 0 0 0 1.128-.303l.045.056z"/></g><g fill="#415D56"><path d="M138.959 18.502v23.792c0 7.114 2.697 10.729 7.48 10.729 4.907 0 7.605-3.435 7.605-10.729V18.502h9.317v23.177c0 12.755-6.437 18.825-17.229 18.825-10.423 0-16.557-5.765-16.557-18.948V18.502h9.384zM201.809 58.664c-1.718.858-5.584 1.777-10.606 1.777-14.288 0-21.644-8.889-21.644-20.661 0-14.104 10.056-21.954 22.559-21.954 4.848 0 8.527.984 10.181 1.841l-1.9 7.42c-1.9-.797-4.537-1.531-7.85-1.531-7.417 0-13.182 4.475-13.182 13.673 0 8.273 4.906 13.488 13.244 13.488 2.821 0 5.949-.613 7.787-1.348l1.411 7.295zM216.771 26.352H205.67v-7.85h31.762v7.85H226.15V59.83h-9.38V26.352zM127.75 66.086c1.538-.262 3.697-.459 6.738-.459 3.074 0 5.267.587 6.737 1.77 1.408 1.111 2.355 2.938 2.355 5.101 0 2.156-.721 3.989-2.027 5.23-1.701 1.604-4.219 2.324-7.163 2.324a12.39 12.39 0 0 1-1.701-.1v7.884h-4.939v-21.75zm4.94 10.005c.424.102.947.131 1.667.131 2.651 0 4.284-1.339 4.284-3.595 0-2.029-1.406-3.24-3.892-3.24-1.015 0-1.701.1-2.06.197v6.507zM155.092 87.836l-.295-1.604h-.099c-1.047 1.279-2.681 1.961-4.579 1.961-3.236 0-5.168-2.354-5.168-4.904 0-4.155 3.73-6.15 9.387-6.119v-.224c0-.855-.458-2.063-2.912-2.063-1.632 0-3.368.558-4.415 1.208l-.915-3.201c1.112-.622 3.302-1.406 6.213-1.406 5.331 0 7.031 3.138 7.031 6.901v5.557c0 1.538.065 3.011.228 3.895h-4.476zm-.59-7.559c-2.617-.03-4.643.59-4.643 2.521 0 1.276.849 1.899 1.962 1.899 1.24 0 2.256-.816 2.583-1.835.065-.262.098-.554.098-.847v-1.738zM168.566 67.261v4.584h3.565v3.664h-3.565v5.787c0 1.93.456 2.81 1.962 2.81a8 8 0 0 0 1.47-.133l.033 3.763c-.654.262-1.832.426-3.237.426-1.602 0-2.943-.557-3.729-1.374-.915-.948-1.374-2.487-1.374-4.742V75.51h-2.125v-3.664h2.125v-3.471l4.875-1.114zM175.006 64.615h4.969v9.124h.067c.524-.688 1.177-1.211 1.962-1.637.72-.393 1.668-.619 2.586-.619 3.172 0 5.589 2.19 5.589 6.996v9.356h-4.971V79.04c0-2.094-.718-3.531-2.583-3.531-1.308 0-2.125.847-2.486 1.724-.133.334-.164.761-.164 1.117v9.486h-4.969V64.615zM194.497 82.701c1.343.688 3.401 1.373 5.526 1.373 2.29 0 3.5-.948 3.5-2.389 0-1.374-1.047-2.159-3.697-3.107-3.666-1.275-6.047-3.301-6.047-6.51 0-3.76 3.136-6.637 8.338-6.637 2.482 0 4.318.524 5.624 1.111l-1.109 4.023a10.561 10.561 0 0 0-4.611-1.048c-2.16 0-3.208.983-3.208 2.126 0 1.406 1.247 2.029 4.088 3.105 3.896 1.442 5.725 3.467 5.725 6.572 0 3.697-2.846 6.839-8.894 6.839-2.521 0-5.009-.649-6.249-1.338l1.014-4.12zM211.699 64.615h4.968v23.221h-4.968V64.615zM225.828 67.396c0 1.372-1.05 2.481-2.683 2.481-1.569 0-2.614-1.109-2.585-2.481-.029-1.44 1.016-2.521 2.618-2.521 1.6 0 2.616 1.081 2.65 2.521zm-5.136 20.44V71.845h4.971v15.991h-4.971zM245.153 64.615V83.06c0 1.798.067 3.695.132 4.775h-4.413l-.23-2.356h-.062c-1.014 1.798-2.948 2.714-5.007 2.714-3.797 0-6.837-3.236-6.837-8.212-.033-5.393 3.336-8.498 7.162-8.498 1.964 0 3.5.687 4.218 1.798h.068v-8.666h4.969zm-4.969 13.996c0-.262-.037-.618-.068-.884-.294-1.341-1.375-2.45-2.911-2.45-2.253 0-3.431 2.025-3.431 4.543 0 2.715 1.341 4.417 3.401 4.417 1.436 0 2.582-.982 2.877-2.389.095-.358.132-.717.132-1.143v-2.094zM252.97 81.424c.163 2.061 2.188 3.043 4.512 3.043 1.699 0 3.074-.229 4.415-.65l.656 3.363c-1.636.656-3.631.981-5.791.981-5.429 0-8.536-3.142-8.536-8.144 0-4.054 2.517-8.534 8.08-8.534 5.167 0 7.128 4.025 7.128 7.978 0 .851-.099 1.606-.165 1.963H252.97zm5.852-3.4c0-1.211-.521-3.238-2.812-3.238-2.094 0-2.943 1.895-3.074 3.238h5.886zM266.374 83.484c.919.554 2.815 1.213 4.284 1.213 1.506 0 2.129-.525 2.129-1.341 0-.821-.489-1.212-2.353-1.835-3.308-1.109-4.583-2.91-4.552-4.808 0-2.975 2.552-5.23 6.509-5.23 1.865 0 3.532.424 4.515.915l-.88 3.435c-.723-.393-2.097-.916-3.467-.916-1.215 0-1.901.49-1.901 1.305 0 .758.624 1.149 2.585 1.836 3.042 1.047 4.319 2.581 4.354 4.936 0 2.975-2.359 5.168-6.938 5.168-2.092 0-3.957-.46-5.166-1.109l.881-3.569z"/></g></svg>