<svg xmlns="http://www.w3.org/2000/svg" width="153.004" height="54"><path fill="#FFF" d="M129.397 15.206h9.73v11.985h-9.73z"/><path d="M139.896 27.959h-11.269V14.437h11.269v13.522zm-9.73-1.537h8.193V15.973h-8.193v10.449z"/><path fill="#FFF" d="M150.253 25.885c0-5.898-4.781-10.679-10.68-10.679h-.754v32.907h11.434V25.885z"/><path d="M151.022 48.881h-12.97V14.437h1.521c6.312 0 11.449 5.135 11.449 11.448v22.996zm-11.433-1.537h9.897V25.885c0-5.46-4.438-9.902-9.897-9.912v31.371z"/><path fill="#BDBDBE" d="M147.718 26.756c0-5.898-3.411-10.68-7.616-10.68h-.538v32.907h8.154V26.756z"/><path fill="#FFF" d="M151.831 51.508c0 .616-.5 1.117-1.115 1.117h-39.212a1.115 1.115 0 0 1-1.113-1.117v-2.816c0-.615.497-1.114 1.113-1.114h39.212c.615 0 1.115.499 1.115 1.114v2.816z"/><path fill="#BDBDBE" d="M111.504 48.346a.346.346 0 0 0-.345.346v2.816c0 .192.155.349.345.349h37.841v-3.511h-37.841z"/><path fill="#FFF" d="M147.732 37.577c0 .616-.497 1.116-1.113 1.116h-19.08c-.614 0-1.114-.5-1.114-1.116v-.974c0-.616.5-1.114 1.114-1.114h19.08c.616 0 1.113.498 1.113 1.114v.974z"/><path d="M146.619 39.461h-19.08a1.886 1.886 0 0 1-1.883-1.884v-.974c0-1.038.845-1.883 1.883-1.883h19.08c1.038 0 1.882.845 1.882 1.883v.974a1.886 1.886 0 0 1-1.882 1.884zm-19.08-3.205a.348.348 0 0 0-.345.348v.974c0 .19.155.346.345.346h19.08a.347.347 0 0 0 .345-.346v-.974a.348.348 0 0 0-.345-.348h-19.08z"/><path fill="#FFF" d="M130.762 1.337c.615 0 1.114.5 1.114 1.114V31.98c0 .616-.499 1.114-1.114 1.114h-2.817a1.115 1.115 0 0 1-1.116-1.114V2.452c0-.615.501-1.114 1.116-1.114h2.817z"/><path d="M130.762 33.862h-2.817a1.884 1.884 0 0 1-1.884-1.882V2.452c0-1.037.844-1.882 1.884-1.882h2.817c1.037 0 1.883.845 1.883 1.882V31.98a1.885 1.885 0 0 1-1.883 1.882zm-2.818-31.756a.347.347 0 0 0-.346.346V31.98c0 .191.154.348.346.348h2.817a.347.347 0 0 0 .344-.348V2.452a.346.346 0 0 0-.344-.346h-2.817z"/><path fill="#FFF" d="M133.372 7.586c.616 0 1.115.5 1.115 1.116v19.077c0 .615-.499 1.115-1.115 1.115h-8.042c-.616 0-1.114-.5-1.114-1.115V8.702c0-.616.498-1.116 1.114-1.116h8.042zM131.876 42.341c0-.616-.499-1.115-1.114-1.115h-2.817c-.615 0-1.116.499-1.116 1.115v2.406h5.048v-2.406z"/><path d="M132.645 45.514h-6.584v-3.173c0-1.04.844-1.884 1.884-1.884h2.817c1.037 0 1.883.844 1.883 1.884v3.173zm-5.046-1.536h3.507v-1.637a.347.347 0 0 0-.344-.347h-2.817a.347.347 0 0 0-.346.347v1.637z"/><path fill="#FFF" d="M134.523 47.371a3.688 3.688 0 0 0-3.687-3.688h-2.971a3.688 3.688 0 0 0-3.688 3.688v.206h10.345v-.206z"/><path d="M135.293 48.347h-11.884v-.976c0-2.456 2-4.455 4.457-4.455h2.971a4.46 4.46 0 0 1 4.456 4.455v.976zM125 46.808h8.702a2.922 2.922 0 0 0-2.865-2.354h-2.971A2.923 2.923 0 0 0 125 46.808z"/><g><circle fill="#FFF" cx="143.073" cy="42.302" r="2.714"/><path d="M143.073 45.785a3.487 3.487 0 0 1-3.484-3.483 3.487 3.487 0 0 1 3.484-3.483 3.485 3.485 0 0 1 3.481 3.483 3.485 3.485 0 0 1-3.481 3.483zm0-5.43a1.95 1.95 0 0 0-1.948 1.946 1.95 1.95 0 0 0 1.948 1.945 1.948 1.948 0 0 0 1.945-1.945 1.948 1.948 0 0 0-1.945-1.946z"/></g><path fill="#BDBDBE" d="M131.958 18.226V7.419h-7.171v19.055h2.776a7.281 7.281 0 0 1-.167-1.537c0-3.042 1.892-5.649 4.562-6.711z"/><path d="M133.372 29.662h-8.042a1.884 1.884 0 0 1-1.881-1.883V8.702c0-1.039.844-1.884 1.881-1.884h8.042c1.04 0 1.883.845 1.883 1.884v19.077a1.884 1.884 0 0 1-1.883 1.883zM125.33 8.355a.345.345 0 0 0-.345.347v19.077c0 .192.153.347.345.347h8.042a.347.347 0 0 0 .348-.347V8.702a.347.347 0 0 0-.348-.347h-8.042z"/><g><path fill="#FFF" d="M140.563 24.631a4.712 4.712 0 1 1-9.425 0 4.712 4.712 0 0 1 9.425 0z"/><path d="M135.849 30.11a5.486 5.486 0 0 1-5.479-5.479 5.488 5.488 0 0 1 5.479-5.482 5.487 5.487 0 0 1 5.481 5.482 5.486 5.486 0 0 1-5.481 5.479zm0-9.424a3.946 3.946 0 0 0-3.941 3.945 3.946 3.946 0 0 0 3.941 3.942 3.948 3.948 0 0 0 3.947-3.942 3.95 3.95 0 0 0-3.947-3.945z"/></g><path d="M150.716 53.393h-39.212a1.89 1.89 0 0 1-1.884-1.885v-2.816a1.89 1.89 0 0 1 1.884-1.884h39.212c1.04 0 1.884.847 1.884 1.884v2.816a1.887 1.887 0 0 1-1.884 1.885zm-39.212-5.047a.346.346 0 0 0-.345.346v2.816c0 .192.155.349.345.349h39.212a.35.35 0 0 0 .349-.349v-2.816a.347.347 0 0 0-.349-.346h-39.212z"/><g><g fill="#009ADA"><path d="M6.432 13.071c.553.449 1.153.565 1.621-.013.469-.578.23-1.141-.324-1.589l-1.358-1.1-.341.421 1.271 1.03c.28.226.656.569.366.926-.29.358-.702.062-.983-.165l-1.271-1.029-.34.421 1.359 1.098zM8.046 10.055l-.358.371 1.369 1.321.358-.37-.677-.655c-.165-.159-.422-.412-.209-.632.203-.209.406.003.571.163l.725.7.358-.371-.837-.808c-.318-.307-.675-.456-1.013-.107-.128.133-.206.308-.157.504l-.004.005-.126-.121zM9.777 8.418l-.382.345 1.273 1.415.383-.345-1.274-1.415zm-.941-.659c-.126.112-.128.313-.012.443a.314.314 0 0 0 .443.034.314.314 0 0 0 .012-.443c-.118-.129-.316-.148-.443-.034zM10.656 7.718l-.452.342 1.829 1.052.213-.16-.505-2.052-.45.34.35 1.08zM14.102 6.634l-.036-.057c-.304-.486-.772-.736-1.276-.423-.495.311-.502.85-.196 1.339.305.489.818.663 1.292.366a.832.832 0 0 0 .382-.937l-.446.182c.021.166-.012.314-.156.403-.229.143-.447-.041-.574-.245l1.01-.628zm-1.175.336c-.082-.181-.084-.399.09-.509.169-.105.369-.007.494.145l-.584.364zM14.637 5.196l-.463.227.834 1.709.463-.226-.375-.769c-.128-.266-.242-.581.079-.737a.354.354 0 0 1 .222-.03l-.165-.481a.515.515 0 0 0-.503.482l-.006.003-.086-.178zM16.835 4.36c-.187-.07-.435-.037-.613.035-.314.127-.435.456-.302.786.115.284.325.321.522.329.198.008.379-.024.442.13a.2.2 0 0 1-.114.268c-.139.057-.301.009-.438-.061l-.098.387a.819.819 0 0 0 .709.056c.352-.143.558-.498.4-.889-.123-.306-.343-.359-.55-.368-.202-.01-.39.024-.443-.105-.035-.085.017-.182.097-.213.095-.04.206-.021.302.02l.086-.375zM17.938 3.818l-.488.167.62 1.799.487-.167-.619-1.799zm-.609-.975c-.16.055-.241.239-.185.403.058.168.233.26.394.206a.315.315 0 0 0 .184-.404.314.314 0 0 0-.393-.205zM19.258 3.881l.303-.092-.133-.437-.303.092-.189-.616-.493.152.189.615-.17.051.134.437.17-.051.422 1.382.493-.15zM20.79 4.707l-.311 1.4.554-.117.679-3.127-.562.119-.229 1.154-.646-.969-.572.123zM24.529 2.534c-.562.019-.934.455-.913 1.047.02.588.419.998.985.978.567-.021.935-.456.914-1.044-.021-.593-.423-1.002-.986-.981zm.018.479c.264-.008.436.256.445.52.009.256-.144.536-.409.545-.265.01-.436-.26-.445-.516-.008-.262.143-.539.409-.549zM26.611 3.039l.413.015.016-.457-.412-.015.017-.479c.005-.155-.009-.47.219-.462a.449.449 0 0 1 .208.073l.017-.484a.514.514 0 0 0-.244-.071c-.498-.018-.696.382-.712.848l-.02.557-.173-.006-.016.458.173.006-.051 1.445.515.018.05-1.446zM30.865 2.132a1.24 1.24 0 0 0-.586-.263c-.803-.125-1.465.514-1.592 1.333-.123.796.34 1.585 1.111 1.705.221.035.433-.007.647-.075l.105-.671a.83.83 0 0 1-.655.213c-.498-.078-.729-.611-.653-1.098.076-.497.448-.95.962-.87a.783.783 0 0 1 .556.4l.105-.674zM33.234 3.761l-.486-.146-.052.17a.656.656 0 0 0-.414-.376c-.496-.149-.933.241-1.079.723-.149.494-.007 1.066.5 1.219.18.055.388.029.537-.084l.007.002-.049.167.486.146.55-1.821zm-1.279 1.165c-.253-.077-.328-.391-.254-.636.074-.244.309-.461.562-.384.253.076.333.388.258.633-.072.244-.311.463-.566.387zM34.467 4.185l-.478-.191-1.084 2.709.479.191.443-1.108.008.002a.586.586 0 0 0 .358.403c.495.198.963-.158 1.156-.641.186-.463.082-1.047-.393-1.238a.66.66 0 0 0-.553.034l.064-.161zm-.202 1.518c-.247-.098-.292-.417-.198-.655.095-.237.348-.433.593-.334.246.099.294.414.2.651-.095.237-.349.437-.595.338zM37.267 6.654l.03-.058c.269-.508.249-1.039-.275-1.315-.518-.273-.987-.008-1.255.502-.271.512-.163 1.042.333 1.302a.832.832 0 0 0 1.003-.142l-.383-.293c-.132.101-.278.148-.427.068-.237-.125-.19-.406-.078-.62l1.052.556zm-.883-.846c.116-.163.304-.274.486-.178.176.092.191.315.124.499l-.61-.321zM40.5 6.902l.454.327.29-.403-1.348-.969-.289.403.454.326-1.415 1.971.439.315zM41.568 8.332c-.432-.362-1-.287-1.38.167-.378.451-.357 1.021.076 1.384.436.365 1 .288 1.379-.164.381-.453.357-1.025-.075-1.387zm-.309.369c.203.169.152.48-.016.683-.165.196-.466.303-.669.133-.203-.171-.15-.486.015-.682.169-.202.467-.306.67-.134zM43.019 9.737l-.385-.412-.852 1.933.181.194 1.142-.475-.584 1.072.178.192 1.992-.711-.382-.409-1.075.479.557-1.127-.169-.181-1.149.468zM45.354 12.468l-.303-.417-1.54 1.119.303.417.763-.553c.185-.135.478-.344.658-.097.17.236-.074.399-.26.534l-.815.592.304.417.94-.684c.358-.259.567-.585.281-.977-.109-.149-.268-.256-.468-.242l-.004-.006.141-.103zM45.833 15.851a.456.456 0 0 0 .622.163.454.454 0 0 0 .192-.615.45.45 0 0 0-.622-.16.45.45 0 0 0-.192.612zM48.364 17.812l-.194-.478-1.764.713.193.478 1.765-.713zm.941-.66c-.063-.157-.25-.228-.412-.162-.165.067-.249.247-.184.403.063.157.247.23.414.164a.316.316 0 0 0 .182-.405zM48.34 19.345l-1.273.413.167.515 1.273-.414 1.778.344-.197-.602-1.133-.189.82-.778-.195-.599zM49.418 20.937l-1.096.234c-.542.115-.77.441-.658.968s.453.731.994.617l1.096-.232-.106-.504-1.009.214c-.212.044-.472.066-.526-.189-.055-.256.192-.342.405-.387l1.007-.214-.107-.507zM49.976 23.871l-.063-.512-1.888.231.063.512.934-.115c.227-.028.586-.068.622.235.036.288-.258.313-.485.341l-1 .123.063.511 1.154-.142c.438-.053.779-.236.72-.718-.022-.182-.11-.354-.292-.439l-.001-.007.173-.02zM50.163 26.368l-.019-.516-1.901.066.017.516 1.903-.066zm1.11-.298c-.005-.17-.158-.301-.332-.294a.313.313 0 0 0-.311.316c.006.17.154.302.333.294a.313.313 0 0 0 .31-.316zM50.176 27.517l.019-.566-1.969.76-.008.265 1.91.9.02-.563-1.06-.41zM48.817 30.978l.065.01c.567.078 1.062-.119 1.144-.706.082-.581-.327-.931-.898-1.013-.573-.078-1.035.201-1.112.755a.833.833 0 0 0 .473.896l.147-.458c-.141-.091-.233-.213-.209-.38.038-.265.319-.315.557-.282l-.167 1.178zm.497-1.117c.192.054.36.191.332.396-.029.197-.233.288-.428.287l.096-.683zM49.351 32.89c.163-.115.274-.341.314-.527.07-.331-.135-.617-.484-.69-.299-.063-.446.089-.564.249-.116.159-.192.327-.356.294a.2.2 0 0 1-.157-.246c.031-.147.161-.255.296-.328l-.267-.298a.813.813 0 0 0-.442.558c-.08.373.1.739.513.829.323.067.489-.086.612-.252.121-.16.199-.336.335-.308.091.02.141.117.124.198a.397.397 0 0 1-.186.24l.262.281zM49.117 34.173l.149-.492-1.823-.551-.148.494 1.822.549zm1.147.077c.049-.161-.053-.334-.22-.386a.314.314 0 0 0-.396.201c-.049.16.05.333.219.384.167.051.348-.035.397-.199zM48.279 35.281l-.101.299.432.149.101-.299.609.205.168-.488-.61-.207.057-.169-.433-.145-.056.168-1.369-.467-.165.489zM49.644 36.846l-3.006-1.326-.208.474.861.378c.21.093.537.241.414.521-.118.266-.382.137-.592.046l-.922-.409-.208.472 1.064.47c.404.179.79.196.986-.249.075-.167.088-.358-.011-.521l.002-.006 1.411.624.209-.474zM47.069 39.006l.248-.452-1.667-.916-.248.452 1.667.916zm1.105.313c.082-.148.019-.338-.134-.424a.316.316 0 0 0-.429.114.313.313 0 0 0 .135.423c.152.084.347.037.428-.113zM44.339 40.302l-.719-1.242-.328.461 1.617 2.763.332-.47-.612-1.003 1.13.275.339-.476zM43.305 44.074l.343-.375-.132-.119a.656.656 0 0 0 .518-.212c.35-.382.187-.945-.185-1.285-.38-.348-.959-.466-1.316-.076a.61.61 0 0 0-.156.521l-.006.007-.128-.117-.343.373 1.405 1.283zm-.497-1.654c.179-.197.494-.128.682.042.189.175.284.479.104.674-.178.197-.493.134-.683-.038-.187-.174-.282-.484-.103-.678zM41.761 45.368c.201 0 .421-.12.562-.249.25-.229.248-.582.005-.845-.207-.224-.416-.185-.603-.122-.188.062-.348.155-.46.033a.2.2 0 0 1 .012-.291c.112-.103.28-.115.432-.097l-.044-.396a.813.813 0 0 0-.684.196c-.279.257-.347.661-.062.971.223.243.448.217.645.151.192-.06.357-.16.452-.057.063.069.048.176-.015.233a.412.412 0 0 1-.29.089l.05.384zM39.293 46.168l.04.052c.351.454.842.658 1.311.298.464-.359.417-.896.065-1.352-.353-.458-.879-.58-1.322-.239-.3.23-.42.594-.288.97l.425-.226c-.037-.162-.018-.312.116-.416.213-.163.448-.003.595.186l-.942.727zm1.137-.45c.099.172.123.39-.041.516-.158.12-.367.044-.505-.096l.546-.42zM38.67 47.585l.007-.003.644 1.05.461-.282-1.526-2.491-.462.282.686 1.12-.005.004-1.443-.658-.593.366 1.769.76-.192 1.701.568-.35zM35.28 49.617l.458-.218-.077-.16a.66.66 0 0 0 .56 0c.468-.225.528-.808.312-1.262-.222-.465-.714-.792-1.191-.563a.61.61 0 0 0-.34.422l-.006.003-.077-.155-.458.219.819 1.714zm.163-1.719c.239-.116.505.065.616.298.109.229.082.549-.157.662-.24.115-.507-.062-.618-.293-.11-.229-.081-.553.159-.667zM33.903 50.14l.488-.164-.925-2.767-.489.163.378 1.131-.006.003a.59.59 0 0 0-.534-.076c-.506.171-.632.744-.467 1.237.158.475.615.852 1.101.69a.657.657 0 0 0 .4-.383l.054.166zm-.827-1.289c.251-.083.493.13.574.372.081.243.014.554-.237.638-.251.087-.492-.124-.574-.365-.079-.244-.014-.561.237-.645zM30.103 51.16l.497-.107-.038-.174a.655.655 0 0 0 .544.128c.507-.11.7-.663.594-1.155-.109-.504-.511-.937-1.03-.823a.604.604 0 0 0-.428.335l-.008.001-.037-.17-.496.106.402 1.859zm.554-1.638c.259-.056.476.183.531.433.054.248-.047.553-.305.608-.26.058-.479-.177-.534-.427-.054-.25.049-.559.308-.614zM27.691 50.03a.455.455 0 0 0-.402.502.453.453 0 0 0 .483.426.448.448 0 0 0 .398-.504.453.453 0 0 0-.479-.424zM25.937 50.849c.024-.711-.246-1.261-.989-1.285-.744-.024-1.048.506-1.072 1.216l-.057 1.748.54.019.054-1.636c.012-.359.059-.865.519-.851.46.017.473.525.46.883l-.054 1.636.541.018.058-1.748zM22.47 51.343l.511.073.264-1.884-.511-.071-.13.933c-.033.228-.086.583-.388.538-.288-.039-.236-.329-.205-.555l.14-.999-.509-.071-.162 1.15c-.062.438.027.816.508.882.182.024.37-.012.499-.168l.007.001-.024.171zM20.125 50.925l.505.108.396-1.862-.505-.106-.396 1.86zm.019 1.149a.314.314 0 0 0 .366-.251.313.313 0 0 0-.231-.378.312.312 0 0 0-.366.251.314.314 0 0 0 .231.378zM19.038 50.641l.543.163-.225-2.097-.254-.078-1.363 1.612.538.167.67-.917zM16.129 48.507l-.024.062c-.216.532-.143 1.058.407 1.28.544.22.983-.093 1.2-.628.216-.534.055-1.052-.464-1.261a.835.835 0 0 0-.983.243l.409.251c.122-.111.262-.173.417-.108.251.1.23.383.141.608l-1.103-.447zm.962.754c-.097.175-.272.303-.463.227-.185-.074-.223-.295-.174-.484l.637.257zM14.727 48.979l.464.227.834-1.71-.463-.227-.375.77c-.129.266-.309.549-.63.391a.348.348 0 0 1-.161-.154l-.277.424a.51.51 0 0 0 .689.101l.006.004-.087.174zM12.708 47.68c.056.193.233.37.397.469.291.176.626.073.81-.232.158-.262.061-.451-.052-.614-.113-.161-.247-.289-.162-.432a.201.201 0 0 1 .283-.07c.129.078.189.236.214.388l.368-.154a.813.813 0 0 0-.382-.601c-.325-.195-.733-.146-.951.215-.168.283-.079.492.038.66.114.167.255.299.184.418-.047.079-.157.096-.229.051-.088-.051-.14-.149-.166-.253l-.352.155zM11.582 47.088l.422.295 1.091-1.559-.422-.295-1.091 1.559zm-.432 1.065c.139.098.335.054.435-.089a.313.313 0 0 0-.066-.438c-.138-.099-.332-.058-.435.087-.099.144-.072.343.066.44zM10.852 45.987l-.253-.189-.275.364.252.19-.386.514.411.31.387-.513.141.106.276-.365-.141-.106.87-1.154-.412-.311zM9.42 43.972l-.044.051c-.383.427-.496.944-.054 1.343.435.391.954.248 1.34-.181.386-.429.412-.971-.005-1.346a.836.836 0 0 0-1.005-.107l.298.378c.153-.064.305-.073.431.041.199.178.084.439-.077.618l-.884-.797zm.648 1.037c-.152.13-.361.192-.514.055-.147-.135-.108-.353.003-.517l.511.462zM7.918 43.923l.358.371 1.37-1.321-.358-.372-1.37 1.322zm-.626.965c.118.121.318.115.444-.004.128-.124.136-.323.019-.443-.118-.124-.315-.121-.444.004a.315.315 0 0 0-.019.443zM7.417 42.7l-.212-.236-.341.307.212.236-.478.43.345.382.478-.429.119.131.339-.307-.117-.131 1.073-.967-.344-.383zM5.496 40.943l.31.477 1.177-1.753-.145-.221-2.081.359.306.471 1.103-.271zM3.665 37.843l.238.449.157-.084a.661.661 0 0 0 .024.559c.244.457.829.493 1.273.256.455-.241.762-.746.514-1.214a.614.614 0 0 0-.439-.321l-.003-.008.153-.081-.238-.449-1.679.893zm1.727.086c.124.235-.046.509-.272.629-.226.121-.545.107-.669-.128-.124-.234.041-.51.267-.629.224-.12.549-.107.674.128zM3.119 36.605l.193.479 1.764-.713-.193-.478-.873.353c-.213.086-.548.218-.662-.066-.109-.27.167-.369.379-.454l.934-.379-.193-.478-1.078.436c-.41.165-.691.432-.509.881.068.171.197.313.395.348l.004.006-.161.065zM2.131 32.997l.002.008-1.205.265.117.528 2.853-.628-.116-.529-1.282.283-.001-.006 1.091-1.15-.149-.679-1.298 1.423L.6 31.771l.143.653zM1.254 29.218l.065.503.176-.023a.663.663 0 0 0-.174.532c.066.515.601.754 1.101.69.511-.066.976-.429.909-.954a.615.615 0 0 0-.296-.457l-.001-.007.173-.022-.065-.506-1.888.244zm1.585.69c.034.263-.222.459-.476.492-.253.032-.547-.093-.581-.355-.034-.264.218-.464.472-.496s.552.097.585.359zM1.169 26.673l.011.507.177-.004a.664.664 0 0 0-.229.511c.012.519.52.814 1.023.802.516-.012 1.016-.326 1.004-.855a.61.61 0 0 0-.247-.484v-.009l.174-.003-.011-.508-1.902.043zm1.504.853c.006.265-.27.434-.525.439s-.534-.15-.54-.415c-.007-.264.265-.437.521-.442.255-.006.538.153.544.418zM1.247 25.322l-.042.514 2.908.239.042-.513-1.189-.099v-.008a.585.585 0 0 0 .28-.46c.042-.531-.434-.874-.951-.917-.498-.042-1.027.229-1.068.739a.654.654 0 0 0 .195.519l-.175-.014zm1.51-.252c-.022.265-.313.404-.569.381-.255-.021-.516-.204-.494-.468.021-.264.309-.403.563-.382.257.021.521.205.5.469zM1.817 22.161c-.16.12-.267.347-.302.535-.063.332.147.612.498.679.3.058.445-.098.558-.261.113-.161.186-.332.35-.301a.199.199 0 0 1 .163.241c-.028.149-.156.259-.288.335l.271.291a.817.817 0 0 0 .432-.565c.071-.372-.116-.738-.531-.817-.323-.062-.487.094-.605.263-.119.165-.192.341-.33.315-.091-.017-.143-.114-.127-.197a.401.401 0 0 1 .18-.243l-.269-.275zM2.413 21.014l.075-.307-.444-.109-.076.307-.625-.153-.122.501.624.153-.042.172.445.109.041-.173 1.405.346.122-.5zM2.727 18.424l-.158.483.169.056a.655.655 0 0 0-.384.405c-.161.494.221.939.699 1.094.49.159 1.066.029 1.231-.475a.62.62 0 0 0-.074-.54l.002-.007.166.055.157-.484-1.808-.587zm1.137 1.303c-.082.252-.397.319-.642.241-.243-.079-.454-.317-.373-.569.083-.253.396-.325.638-.247.244.078.459.323.377.575zM5.288 17.325l.218-.468-2.978-1.389-.218.467 1.412.658-.004.007a.625.625 0 0 0-.423.348c-.22.47.104.958.561 1.171.467.218 1.055.159 1.28-.322a.592.592 0 0 0-.013-.542l.003-.006.162.076zm-.538.163c-.112.239-.434.269-.666.161-.231-.108-.413-.372-.3-.611.112-.24.43-.271.662-.163s.416.372.304.613zM5.881 14.94a.456.456 0 0 0-.148-.626.454.454 0 0 0-.634.117.452.452 0 0 0 .151.626c.219.142.5.086.631-.117z"/></g><circle fill="none" cx="25.554" cy="27.002" r="21.461"/><path fill="#231F20" d="M13.393 12.517h24.323v15.38c0 12.341-12.162 16.453-12.162 16.453s-12.161-4.112-12.161-16.435V12.517z"/><path fill="#FFF" d="M37.357 12.875v15.022c0 11.378-10.581 15.621-11.804 16.074-1.221-.453-11.802-4.695-11.802-16.056v-15.04h23.606z"/><path fill="#231F20" d="M36.284 27.896c0 9.869-8.558 14.028-10.73 14.922-2.173-.894-10.729-5.051-10.729-14.904V13.948h21.46v13.948z"/><path fill="#231F20" d="M25.554 42.431c-2.353-.996-10.372-5.097-10.372-14.516V14.306h20.745v13.591c0 9.435-8.021 13.538-10.373 14.534z"/><path fill="#FFF" d="M25.647 24.429c.483 0 .761.354.761.767 0 .105-.031.299-.122.387h-.051s-.017 0-.017-.034c0-.035.041-.114.053-.171.014-.068.02-.175.02-.209 0-.226-.183-.613-.448-.613h-.201c-.038 0-.041.027-.068.053.031.119.14.111.226.189a.67.67 0 0 1 .185.441c0 .096-.084.36-.244.36H25.1c-.137 0-.17-.219-.17-.276 0-.034-.03-.076-.03-.111-.001-.396.308-.783.747-.783z"/><path fill="#FFF" d="M25.712 23.838c.092 0 .349.05.411.133.031.04.095.064.095.1 0 .004.161.257.159.326v.159c-.277-.229-.476-.295-.73-.295-.235 0-.439.082-.67.268-.004-.021-.019-.014-.019-.048 0-.036.024-.071.033-.1a.736.736 0 0 1 .721-.543zM26.809 23.769c.504.082 1.05.251 1.577.526a.263.263 0 0 1-.094.044c-.408.051-.821.104-1.235.131-.091-.215-.267-.632-.267-.667 0-.035.001-.02.019-.034zM24.467 23.753l.153.018a2.12 2.12 0 0 0-.324.77h-.223c-.279.001-1.146-.154-1.297-.216.54-.332 1.15-.454 1.691-.572z"/><path fill="#FFF" d="M26.152 23.668c.074.015.169.005.251.033.192.068.386.519.386.678 0 .036.014.082.028.128-.016.017-.014.027.001.196-.013.163-.072.413-.245.557-.016-.447-.078-.336-.063-.754a.751.751 0 0 0-.214-.521c-.205-.22-.366-.26-.584-.26-.521 0-.871.44-.871.794 0 .035-.017.046-.021.059-.009.056.002.113-.005.168-.025.17-.113.337-.093.512-.114-.003-.203-.341-.203-.436 0-.035-.029-.084-.029-.119 0-.313.26-.958.533-1.021l1.129-.014zM23.625 23.4c.07 0 .118.261.118.261 0 .108-.098.079-.196.122-.139.065-.295.107-.439.156a6.178 6.178 0 0 0-.545.235.557.557 0 0 1-.124-.273c-.001-.123 1.138-.501 1.186-.501zM27.529 23.387c.078 0 1.236.385 1.236.521 0 .048-.083.239-.123.239-.037 0-.337-.139-.501-.208-.2-.084-.428-.137-.645-.221-.062-.022-.062-.073-.062-.091 0-.009.042-.24.095-.24zM22.64 23.219c.047.087.106.246.106.281 0 .056-.31.182-.375.196a1.378 1.378 0 0 1-.138-.28c0-.054.294-.198.407-.197zM28.555 23.205c.041 0 .417.169.417.226 0 .035-.074.178-.12.266-.028-.005-.421-.131-.421-.224-.001-.046.087-.268.124-.268zM25.786 23.12c.037 0 .059.003.337.014.397.014.841.097 1.266.228v.073c.001.061-.052.22-.102.22-.037 0-.404-.096-.594-.123-.174-.026-.367-.032-.542-.06l-.441-.015c-.018-.015-.032-.03-.048-.045v-.23c.017-.028.087-.062.124-.062zM25.54 23.12a.275.275 0 0 1 .049.142c0 .208-.076.21-.274.21h-.186c-.233 0-1.118.196-1.218.196-.076 0-.125-.188-.125-.245 0-.036.001-.048.022-.074.1-.032.217-.059.335-.085.318-.07.645-.091.967-.13l.43-.014zM26.694 22.684c.158 0 1.707.345 1.707.485 0 .072-.098.266-.122.289-.312-.099-.631-.21-.956-.293-.219-.054-.502-.056-.723-.161.013-.159.016-.167-.001-.186.017-.031.01-.134.095-.134zM24.543 22.684c.069.08.063.202.063.282 0 .086-.109.074-.183.087-.233.042-.488.083-.716.156-.258.082-.59.209-.854.263a1.078 1.078 0 0 1-.107-.266c0-.1.309-.169.327-.175a7.377 7.377 0 0 1 1.47-.347zM26.033 22.612c.036 0 .295.029.445.046.03.027.047.052.047.087a.482.482 0 0 1-.03.14c.013.011-.006.074-.017.12-.371-.012-.512-.04-.548-.04h-.7c-.037 0-.324.028-.489.041-.053-.058-.063-.17-.063-.24 0-.035.002-.066.019-.091.148-.035.407-.063.445-.063h.891zM23.383 22.429c.036 0 .051.004.06.019.021.071.065.181.064.217v.086l-1.328.48a.67.67 0 0 1-.107-.253c0-.056.174-.135.195-.145.089-.043.889-.404 1.116-.404zM27.771 22.415c.088 0 1.393.439 1.393.55 0 .034-.06.165-.094.236-.01.014-.016.017-.053.017s-.605-.239-.918-.349c-.126-.043-.284-.066-.411-.121-.033-.014-.047-.051-.047-.085s.044-.159.08-.228c.011-.006.013-.02.05-.02zM22.292 22.302c.037 0 .039.016.051.021a.865.865 0 0 1 .081.233c0 .062-.358.207-.419.225a.923.923 0 0 1-.122-.273c-.001-.039.381-.206.409-.206zM28.876 22.274c.059 0 .462.201.462.248 0 .057-.083.245-.132.245-.036 0-.288-.126-.436-.188-.016-.011-.019-.016-.019-.051 0-.036.043-.126.043-.162.001-.034.046-.092.082-.092zM25.889 22.105c.037 0 .236.003.528.028.195.018 1.193.175 1.193.274a.617.617 0 0 1-.093.289c-.209-.042-.428-.089-.634-.123a14.483 14.483 0 0 0-.938-.102h-.205c-.031-.015-.049-.047-.065-.075 0-.016.015-.03 0-.143.004-.163.099-.148.214-.148zM25.478 22.105c.036 0 .043.015.09.031.001.018.021.047.02.289l-.049.047h-.265c-.346 0-1.542.225-1.631.238a.958.958 0 0 1-.076-.23v-.091c.416-.135.873-.199 1.309-.24.247-.025.565-.044.602-.044zM28.287 22.079h.061c.022-.001.375.125.375.175 0 .056-.081.246-.139.246-.038 0-.239-.07-.354-.118-.015-.005-.035-.037-.035-.072 0-.036.06-.157.092-.231zM22.87 22.078c.045 0 .11.259.11.268 0 .036-.003.041-.018.05a2.28 2.28 0 0 1-.393.147c-.049 0-.131-.252-.131-.275 0-.033.413-.19.432-.19zM26.763 21.713h.106c.035-.001.252.055.373.085.001.019.015.012.015.047 0 .039-.052.26-.101.26-.037 0-.26-.038-.39-.061-.028-.003-.066-.05-.066-.086.001-.035.03-.157.063-.245zM24.409 21.712c.059 0 .081.227.081.246 0 .146-.435.147-.509.146a.989.989 0 0 1-.062-.245c-.001-.074.431-.147.49-.147zM26.147 21.656c.052-.001.481-.044.481.118 0 .036-.016.143-.032.215a.297.297 0 0 1-.123.018c-.115 0-.244.005-.352-.049-.019-.023-.021-.057-.021-.092a.737.737 0 0 1 .047-.21zM24.894 21.656h.165a.382.382 0 0 1 .046.203c0 .034 0 .046-.012.076-.059.051-.186.072-.26.072h-.208c-.017-.076-.046-.197-.046-.232-.002-.112.216-.12.315-.119zM28.452 21.584c.042 0 1.092.383 1.092.459 0 .035-.074.187-.137.289a25.92 25.92 0 0 0-1.059-.431c-.005-.01-.02.001-.02-.034 0-.028.068-.283.124-.283zM22.746 21.584c.054 0 .117.29.117.29 0 .035-.034.048-.049.057-.205.076-.574.231-.611.231-.036 0-.305.123-.39.154-.048-.086-.123-.238-.123-.273.001-.104 1.026-.459 1.056-.459zM26.254 21.149c.11 0 .927.117 1.059.144a.08.08 0 0 1 .034.067c0 .056-.032.24-.117.268l-1.07-.157c-.015-.173 0-.252 0-.286-.001-.036.058-.036.094-.036zM24.879 21.151s.182.029.19.045c.006.028.019.178.019.212 0 .036-.028.061-.046.085-.37.034-.751.077-1.136.132-.033-.087-.062-.223-.062-.259s.001-.046.018-.072a10.58 10.58 0 0 1 1.017-.143zM24.555 20.304l2.251.006c.072-.017.213.097.273.181v.04h-2.837c.023-.135.211-.23.313-.227zM24.729 20.078l1.836.013c.002.019.107.05.106.097a.225.225 0 0 1-.095.031l-1.937-.014c-.017-.016-.019-.014-.019-.05.001-.064.055-.051.109-.077zM24.979 19.811l1.334.013c.032.005.11.05.11.086 0 .035-.048.055-.05.089l-1.351-.005c-.073-.021-.138-.015-.138-.091.001-.049.035-.086.095-.092zM25.266 19.529l.831.008c.072.008.135.042.135.105 0 .032-.014.067-.08.071l-1.017-.004c-.038-.01-.111-.089-.119-.118.061-.068.18-.062.25-.062zM25.018 19.109c.292.034.445.082.667.082.179 0 .331-.048.605-.082v.059c.001.035-.073.16-.108.228a1.01 1.01 0 0 1-.212.035h-.822c-.017-.015-.024-.043-.038-.05-.032-.066-.093-.188-.092-.223v-.049zM24.124 18.516c.094 0 .268.159.262.252h-.078c-.06.001-.257-.146-.257-.188-.001-.038.033-.064.073-.064zM24.503 18.502c.156 0 .273.262.308.345-.016.019-.016.034-.052.034-.127 0-.343-.221-.343-.31.001-.058.059-.069.087-.069zM24.929 18.488c.148 0 .175.28.175.317 0 .037-.04.102-.08.118-.066-.016-.182-.227-.182-.315 0-.076.018-.12.087-.12zM26.84 18.474c.065 0 .065.061.065.069 0 .086-.182.263-.253.296h-.065c-.016-.016-.018-.007-.018-.042.001-.047.154-.323.271-.323zM26.482 18.474c.07 0 .088.056.088.083 0 .049-.169.325-.272.325-.068 0-.065-.062-.065-.071-.001-.064.122-.337.249-.337zM26.035 18.474c.087 0 .125.11.125.147 0 .056-.08.33-.175.33-.107 0-.089-.192-.089-.197-.001-.064.001-.28.139-.28zM25.668 18.474c.118 0 .125.165.125.21 0 .048-.024.268-.117.268-.115 0-.131-.285-.131-.295-.001-.084.017-.183.123-.183zM25.288 18.474c.122 0 .168.158.168.231 0 .039-.044.233-.103.233-.121 0-.175-.314-.175-.324 0-.064.021-.14.11-.14zM22.844 17.501c.114-.011.121.17.121.211 0 .295-.38.38-.527.38-.28 0-.763-.274-1.013-.592h1.419zM28.209 17.479s-.256.649-.848.923c-.033.015-.14-.07-.177-.07-.036 0-.153.07-.189.07-.038 0-.14-.056-.176-.056-.037 0-.11.056-.146.056-.03 0-.139-.056-.19-.056-.037 0-.191.056-.206.056-.037 0-.154-.056-.19-.056s-.176.07-.211.07c-.038 0-.162-.07-.199-.07-.036 0-.139.056-.175.056-.038 0-.139-.056-.175-.056-.037 0-.191.083-.228.083-.036 0-.161-.056-.198-.056-.037 0-.123.056-.161.056-.036 0-.183-.069-.219-.069-.037 0-.161.069-.198.069-.036 0-.183-.056-.219-.056-.118 0-.191.113-.22.113-.037 0-.108-.062-.151-.097-.192-.15-.383-.4-.476-.555-.056-.089-.17-.357-.17-.357h5.122zM28.748 17.204v.126c-.024-.044-.032-.025-.046-.025h-5.483c-.071 0-.158 0-.251-.019v-.083h5.78zM20.827 17.008c.101 0 .174.197.331.197h1.613c.031.032.048.064.046.098h-1.864c-.06.002-.258-.124-.258-.21 0-.054.123-.085.132-.085zM26.396 16.644h.047c.038 0 .329.24.493.371-.014.033-.059.051-.095.051-.174 0-.461-.259-.461-.373-.001-.037.014-.029.016-.049zM25.764 16.614c.075 0 .131.229.131.246 0 .119-.085.163-.16.163-.117 0-.132-.047-.132-.113 0-.046.084-.296.161-.296zM26.016 16.6h.061c.102 0 .317.313.317.332 0 .079-.083.106-.13.106-.157 0-.279-.274-.279-.338a.202.202 0 0 1 .031-.1zM25.173 16.6c.017.017.035.029.035.064 0 .076-.26.374-.347.373h-.176c-.016-.015-.02-.005-.02-.042 0-.036.394-.363.508-.395zM25.5 16.572c.055 0 .059.062.059.071 0 .104-.145.395-.271.395-.059 0-.11-.03-.11-.091 0-.075.187-.375.322-.375zM25.243 16.292l1.131-.009c.002.019.05.044.05.079s-.042.036-.098.048l-1.158.008c-.017-.016-.032-.016-.048-.033v-.048a.666.666 0 0 1 .123-.045z"/><path fill="#FFF" d="M29.529 16.206c.418 0 .966.249.966.747 0 .594-.839 1.066-1.354 1.157-.206.039-.426.122-.631.146-.345.044-.761.149-1.113.441-.02-.016-.022-.014-.022-.049 0-.195.622-.46.65-.467.477-.146 1.026-.251 1.508-.473.421-.194.641-.468.641-.785 0-.337-.405-.479-.63-.479-.136 0-.512.089-.572.19.015.024.058.037.085.054a.302.302 0 0 1 .092.143c0 .152-.147.233-.286.233-.155 0-.33-.087-.33-.262 0-.035.045-.118.084-.173.219-.3.621-.423.912-.423zM25.771 15.643c.104 0 .242.065.242.205 0 .151-.12.231-.249.231-.126 0-.219-.123-.219-.218-.001-.13.1-.218.226-.218zM24.019 15.237c-.107.174-.309.14-.455.253-.121.092-.02.336-.225.336-.036 0-.308-.057-.343-.057-.078 0-.104-.019-.191.091.108.141.264.218.264.373 0 .035-.015.056-.015.092 0 .097-.295.19-.417.218l-.441-.014c-.081-.014-.242.116-.305.211-.069-.058-.154-.167-.154-.247 0-.16.229-.105.271-.105h.231c.119 0 .289-.167.289-.259 0-.225-.396-.235-.396-.479 0-.188.241-.233.359-.233.037 0 .527.114.563.114.139 0 .263-.134.385-.207a.757.757 0 0 1 .326-.075c.189-.008.216.001.254-.012zM25.67 34.801c.183 0 .398.112.396.373.029 1.936.038 1.943.034 1.957.004.068.033.163.033.198 0 .034.048.182.068.265.1.366.417.6.729.6.872 0 2.578-1.193 3.229-1.818-.071-.067-.226-.234-.274-.27-.018-.015-.165-.134-.165-.206 0-.067.983-.615 1.022-.643.135-.091.268-.178.382-.27.069-.055.336-.254.432-.254.096 0 .011.448.027.467-.029.157-.088.451-.088.488 0 .035-.087.31-.087.345 0 .197-.201.636-.269.777a.378.378 0 0 1-.075.103c-.177-.013-.507-.32-.561-.32-.08 0-.814.702-1.105.976-.182.167-.393.314-.556.458-.357.317-2.486 1.97-3.226 1.97-.74 0-2.869-1.652-3.225-1.97-.164-.144-.376-.291-.558-.458-.291-.273-1.024-.976-1.104-.976-.056 0-.385.308-.562.32a.345.345 0 0 1-.075-.103c-.067-.142-.267-.58-.267-.777 0-.035-.089-.31-.089-.345 0-.037-.059-.331-.088-.488.017-.019-.069-.467.028-.467.095 0 .362.199.43.254.114.092.247.179.381.27.04.027 1.024.575 1.024.643 0 .072-.148.191-.167.206-.048.035-.203.202-.273.27.652.625 2.356 1.818 3.227 1.818.314 0 .631-.233.729-.6.022-.083.07-.23.07-.265s.028-.13.032-.198c-.004-.014.005-.021.034-1.957-.003-.261.212-.373.396-.373h.111zM20.204 28.679l-.002 4.459s.463.366 2.202-.097c0 0 1.745-.66 3.088.147v-4.587s-.861-.77-2.986-.21c0 0-1.354.438-1.962.295-.459-.11-.34-.007-.34-.007zM25.452 34.418a.189.189 0 0 1-.144 0c-.001-.017-.016-.017-.016-.053 0-.101.129-.497.154-.534.007.064.022.358.006.587zM25.578 33.817c.011.04.047.09.057.141.026.133.023.278.021.303v.174l-.117.005c-.003-.076-.013-.089-.013-.096v-.366c0-.035.022-.019.001-.022.015-.035.029-.092.051-.139zM25.334 33.804v.104c.002.035-.085.299-.133.442h-.065a.107.107 0 0 1-.033-.077c0-.066.211-.458.231-.469zM25.246 33.75a5.829 5.829 0 0 1-.205.46c-.018.001-.012.014-.047.014-.037 0-.065-.034-.065-.069-.001-.058.294-.395.317-.405zM25.146 33.635l-.017.064c-.088.113-.172.229-.264.357-.073-.037-.068-.073-.068-.076-.001-.069.277-.317.349-.345zM30.982 28.679l.002 4.459s-.463.366-2.202-.097c0 0-1.717-.66-3.084.147v-4.596s.859-.761 2.982-.201c0 0 1.355.438 1.963.295.458-.11.339-.007.339-.007zM25.735 34.418a.186.186 0 0 0 .143 0c.001-.017.016-.017.016-.053 0-.101-.13-.497-.154-.534a4.503 4.503 0 0 0-.005.587zM25.853 33.804v.104c-.002.035.085.299.132.442h.065a.107.107 0 0 0 .033-.077c0-.066-.212-.458-.23-.469zM25.941 33.75c.055.149.127.304.204.46.018.001.011.014.048.014.036 0 .065-.034.065-.069.001-.058-.293-.395-.317-.405zM31.186 28.773v4.606l-.058-.072-.072-.106v-4.546l.13.118zm.176.083v4.751l-.125-.169v-4.657l.125.075zm.159.108v4.837l-.037-.039-.071-.089v-4.738l.108.029zM26.042 33.635l.017.064c.087.113.171.229.265.357.073-.037.066-.073.066-.076 0-.069-.276-.317-.348-.345z"/><path fill="#FFF" d="M31.663 29.104h.177v5.061l-5.332.002-.002-.014a1.081 1.081 0 0 1-.891.526h-.043a1.084 1.084 0 0 1-.891-.526l-.002.014h-5.332v-5.062h.176v4.893h5.179l-.014.1c.176.32.513.541.905.55.391-.009.729-.229.904-.549l-.014-.101h5.179v-4.894z"/><circle fill="#FFF" cx="21.888" cy="16.97" r=".108"/><path fill="#FFF" d="M27.198 18.516c-.095 0-.268.159-.262.252h.078c.061.001.258-.146.258-.188 0-.038-.035-.064-.074-.064zM25.587 28.418l-.425-.276c.002-.095-.001-.264.001-.371-.003-.261.212-.374.396-.374h.111c.183 0 .398.113.396.374l.005.371-.484.276zM22.54 25.783l.657-.009v.958l-.652-.12zM21.427 25.882h.98v.644l-.98-.149zM21.356 25.896l-.198.142v.499l.199-.123z"/><path fill="#231F20" d="M22.827 25.863a.16.16 0 0 1 .048-.007c.09 0 .164.071.164.157a.161.161 0 0 1-.164.158c-.035 0-.094-.057-.12-.076.065-.021.142-.008.142-.103a.17.17 0 0 0-.07-.129zM22.827 26.259a.16.16 0 0 1 .212.149.16.16 0 0 1-.164.155c-.035 0-.094-.054-.12-.073.065-.021.142-.008.142-.103a.164.164 0 0 0-.07-.128z"/><path fill="#FFF" d="M21.407 26.454l.996.153v.14l-1.182-.181zM22.548 26.699l.649.122-.002.127-.648-.13zM23.316 26.796l2.271.398v.112l-2.271-.371zM28.625 25.774h-.648v.958l.652-.12zM29.747 25.882h-.981v.644l.981-.149z"/><path fill="#231F20" d="M28.207 25.863a.153.153 0 0 1 .049-.007c.09 0 .164.071.164.157a.162.162 0 0 1-.164.158c-.036 0-.095-.057-.121-.076.064-.021.141-.008.141-.103 0-.05-.03-.098-.069-.129zM28.207 26.259a.13.13 0 0 1 .049-.008.16.16 0 0 1 .164.157c0 .086-.074.155-.164.155-.036 0-.095-.054-.121-.073.064-.021.141-.008.141-.103a.166.166 0 0 0-.069-.128z"/><path fill="#FFF" d="M29.747 26.448l-.976.159v.14l.891-.153zM28.625 26.699l-.648.122v.105l.649-.108zM25.587 27.066l-2.262-.393v-.783h4.524v.783zM27.856 26.796l-2.269.398v.112l2.269-.371z"/><path fill="#231F20" d="M26.542 29.746c.252.008.449.132.449.339 0 .099-.042.18-.162.264.077.109.236.211.236.349 0 .31-.338.363-.544.363-.037 0-.142 0-.422-.016-.019-.016-.032-.016-.049-.033.03-.047.073-.104.096-.158v-.971c-.021-.041-.066-.083-.08-.119.05-.003.108-.018.476-.018zM27.82 29.831c.373 0 .522.337.522.601 0 .32-.213.67-.566.67s-.566-.337-.566-.599c.001-.283.185-.672.61-.672zM28.525 29.889c.48 0 .342.33.676.703.08-.097.066-.262.066-.38 0-.101-.002-.107-.101-.207.021-.005.021-.021.058-.021.037 0 .2.03.294.064-.198.111-.142.339-.162.511-.036.309-.03.494-.064.685-.275-.3-.368-.623-.593-.905-.012.001-.021.025-.031.038-.017.169-.077.498-.077.534 0 .081.065.165.118.243a.622.622 0 0 1-.351-.012s0-.021.004-.034c.153-.065.127-.316.127-.43 0-.036.073-.511.073-.546 0-.042-.043-.125-.118-.194.036-.041.056-.049.081-.049zM29.832 30.044c.121.013.342.013.389.029 0 0 .017-.002.017.033 0 .034-.043.062-.043.1 0 .034.083.282.141.42.071.177.099.436.284.595v.047a2.01 2.01 0 0 1-.452.002s-.019.001-.019-.033c0-.035.06-.086.06-.119 0-.086-.065-.228-.17-.228h-.248c-.035.018-.097.175-.097.234 0 .034.028.067.058.115a1 1 0 0 1-.336-.014c.03-.05.111-.079.141-.147.129-.272.314-.838.314-.872 0-.038-.059-.086-.059-.121 0-.034.003-.025.02-.041z"/><path fill="#FFF" d="M27.849 29.93c.159 0 .188.149.214.304-.015.17-.016.179 0 .196-.005.034-.043.575-.301.575-.228 0-.257-.355-.257-.439-.001-.123.052-.636.344-.636zM29.935 30.438c.032.014.142.229.142.275 0 .034-.015.015-.017.048h-.185c-.016-.016-.033-.033-.033-.069a.834.834 0 0 1 .093-.254zM26.521 30.424c.166 0 .25.116.25.248 0 .13-.099.276-.242.276a.23.23 0 0 1-.125-.048v-.386c-.001-.073.048-.09.117-.09zM26.542 29.873c.138 0 .198.057.198.198 0 .147-.067.239-.219.239a.147.147 0 0 1-.103-.046c0-.286.014-.326.015-.373a.248.248 0 0 1 .109-.018z"/><g><path fill="#231F20" d="M24.408 29.746h.297a.971.971 0 0 1 0 .323c-.059-.001-.095-.165-.184-.194a.327.327 0 0 0-.1-.016c-.077 0-.199.029-.199.132 0 .283.618.271.618.722 0 .213-.157.345-.382.345-.037 0-.259-.041-.378-.062-.051-.058-.047-.17-.047-.256 0-.035.015-.072.035-.12.093.167.224.326.414.326.083 0 .154-.056.154-.147 0-.259-.617-.314-.617-.714-.002-.244.19-.34.389-.339zM23.605 29.859c.036 0 .055.027.085.044v.307c-.055-.059-.087-.124-.141-.166a.349.349 0 0 0-.187-.061c-.036 0-.213.024-.227.108.014.168.012.188 0 .197.019.026-.01.175.073.175.1 0 .126-.098.199-.154.02.033.02.062.035.093-.016.018-.014.027-.004.26-.067-.054-.115-.112-.187-.112-.064 0-.079.057-.088.092.016.181.012.202 0 .214.016.053.007.126.033.18s.085.036.115.036c.173 0 .339-.057.417-.281.021.016.023.035.023.07s-.028.164-.051.253a5.556 5.556 0 0 1-.692.114h-.195c-.002-.035.049-.079.067-.107a.347.347 0 0 0 .034-.146l-.045-.793c0-.075-.087-.171-.117-.188-.001-.018.018-.036.034-.047.267-.032.783-.088.819-.088zM22.217 30.025c.255 0 .434.136.434.376 0 .267-.141.401-.55.405-.05.019-.039.112-.039.126 0 .034.021.191.062.286.015.033.068.052.115.084-.045.087-.192.053-.271.065-.191 0-.226 0-.241-.018-.001-.031.038-.046.052-.076.03-.067.02-.174.02-.21l-.03-.775c-.021-.051-.025-.092-.088-.157.139-.086.374-.106.536-.106zM21.019 30.07c.037 0 .081.014.38.017-.036.055.002.14.002.188a.722.722 0 0 1-.033.162c-.053-.046-.069-.126-.118-.172a.393.393 0 0 0-.194-.067c-.077 0-.17.022-.17.128 0 .154.496.392.464.437-.018.025.05.045.074.073.02.026.05.073.053.115.01.014.042.01.042.045 0 .034-.03-.021-.03.014s.03.021.03.056c0 .036-.03.022-.03.059 0 .033.008.006.029.01-.044.063-.075.15-.15.205a.465.465 0 0 1-.217.073c-.038 0-.185-.054-.274-.082-.042-.013-.102-.003-.149-.005-.004-.033-.018-.061-.018-.273a.24.24 0 0 1 .036-.105c.113.16.19.338.383.338.079 0 .169-.081.169-.154 0-.266-.604-.276-.604-.698.001-.174.108-.364.325-.364z"/><path fill="#FFF" d="M22.165 30.14c.177 0 .221.183.221.275 0 .15-.065.289-.229.289-.034 0-.111.008-.109-.093.006-.21-.015-.279-.015-.316-.001-.122.014-.155.132-.155z"/></g><path fill="#009ADA" d="M25.554 42.431c-2.353-.996-10.372-5.097-10.372-14.516v-.987c.551-.17 1.936-.581 2.482-.731 0 0 .838-.383 2.33.224 0 0 2.391.982 4.888 1.205.075.02.047.445.058.509l-.095-.023c-.038.002-.064-.025-.112-.03a6.042 6.042 0 0 0-.854-.062c-.515 0-.542.059-1.212.16a7.32 7.32 0 0 0-.547.139c-.375.112-.782.217-1.182.217-.038 0-.386-.045-.503-.064-.146-.022-.256.027-.293.027-.081 0-.521.384-.66.451-.065.03-.283-.046-.284.069l.009 5.252h5.368c.062 0 .366.477.366.478v2.392c0 .036-.073.248-.073.281 0 .037-.134.285-.228.395-.143.169-.311.178-.446.178-.745 0-2.355-1.12-2.873-1.668.008-.011.382-.329.382-.438 0-.146-.375-.297-.42-.322-.059-.033-.129-.088-.207-.134-.171-.106-.373-.209-.557-.331-.124-.087-.653-.521-.861-.529-.142-.006-.214.2-.214.259l.019.562c0 .035.067.384.106.563.047.227.122.468.204.704.007.024.204.459.327.459 0 0 .559-.337.593-.337.074 0 .417.405.52.497.216.201.449.461.708.682.37.314.781.594 1.167.882.14.104.278.216.416.315.198.14.417.283.645.42.094.06.227.095.322.15.286.169.714.445 1.035.445h.218c.322 0 .75-.276 1.036-.445.095-.056.227-.091.323-.15.227-.137.446-.28.644-.42.137-.1.276-.211.416-.315.385-.288.796-.567 1.166-.882.26-.221.493-.48.708-.682.102-.092.445-.497.519-.497.034 0 .594.337.594.337.122 0 .32-.435.327-.459a5.82 5.82 0 0 0 .205-.704c.038-.18.106-.528.106-.563v-.616c0-.057-.087-.231-.205-.231-.209 0-.729.469-.853.556-.184.122-.385.225-.558.331-.077.046-.146.101-.206.134-.045.025-.42.177-.42.322 0 .108.373.427.38.438-.515.548-2.125 1.668-2.871 1.668-.135 0-.303-.009-.449-.178-.091-.109-.226-.357-.226-.395 0-.033-.072-.245-.072-.281V34.75c0-.001.312-.478.375-.478h5.367V29.02c0-.115-.252-.084-.319-.115-.138-.068-.534-.438-.615-.438-.037 0-.254.023-.398.046-.118.017-.303.104-.473.055-.383-.11-.774-.024-1.174-.237a2.216 2.216 0 0 0-.511-.154c-.67-.103-.653-.168-1.167-.168-.317 0-.562-.017-.856.021-.049.005-.089.021-.126.021l-.082.023c.011-.065-.038-.425.037-.444 2.497-.223 4.888-1.205 4.888-1.205 1.493-.606 2.33-.224 2.33-.224.577.158 1.933.593 2.368.738v.962c-.005 9.431-8.026 13.534-10.378 14.53z"/><path fill="#FFF" d="M19.772 33.652l-.106.144v-4.779l.106-.07v4.705zm.358-4.938v4.46l-.128.173v-4.552l.128-.081zm-.181.115v4.589l-.125.166v-4.671l.125-.084zM19.95 33.719c.021.009.047.018.079.029.075.022.178.049.306.072.331.058.836.092 1.538-.005l.375-.072.735-.172s.279-.082.653-.104c.369-.022.833.017 1.206.258l-.022.023c-.364-.233-.816-.272-1.181-.251a3.465 3.465 0 0 0-.537.075c.12-.021.338-.047.589-.051.362-.004.796.042 1.105.251l-.021.022c-.3-.2-.724-.249-1.083-.244-.378.005-.68.07-.68.07l-.759.15-.383.09c-.704.098-1.21.06-1.538-.006a2.17 2.17 0 0 1-.312-.079c-.035-.01-.063-.02-.088-.028l.018-.028zm.279-.414l.045.018c.491.18 1.105.129 1.596.007l1.079-.268s.377-.096.852-.107c.468-.013 1.035.054 1.424.37l-.022.021c-.379-.308-.935-.374-1.401-.361-.47.013-.845.105-.845.105l-1.079.271c-.498.121-1.117.171-1.615-.01a.586.586 0 0 1-.053-.021l.019-.025zm-.148.218c.085.029.234.077.436.111.329.054.796.075 1.354-.062l1.079-.268s.339-.095.77-.11c.422-.014.932.047 1.298.345l-.021.023c-.357-.291-.857-.351-1.275-.337a3.73 3.73 0 0 0-.764.109l-1.079.267a3.34 3.34 0 0 1-1.366.062 2.517 2.517 0 0 1-.449-.115l.017-.025zM31.133 33.776c-.268.09-.861.22-1.848.085l-.386-.09-.756-.15c-.002 0-1.118-.235-1.742.16l-.022-.021c.307-.2.73-.242 1.084-.238.25.004.467.029.587.051-.295-.067-1.104-.204-1.695.161l-.022-.022c.369-.23.822-.267 1.184-.244.375.022.654.104.654.104l.733.172.376.072c.702.097 1.208.062 1.537.005.13-.023.231-.05.309-.072a.973.973 0 0 0 .146-.061l.024.03a1.386 1.386 0 0 1-.163.058zm-.154-.463c-.116.055-.703.292-1.706.047l-1.078-.271c-.002-.001-1.458-.358-2.228.24l-.022-.021c.389-.305.944-.368 1.405-.355.474.012.853.107.853.107l1.077.268c.493.122 1.105.173 1.597-.007.036-.013.064-.025.083-.033l.019.025zm.167.214c-.121.049-.847.327-1.873.075l-1.079-.267c-.002-.001-1.293-.357-2.019.211l-.021-.021c.364-.286.864-.344 1.278-.33.43.016.771.11.771.11l1.077.268a3.391 3.391 0 0 0 1.354.062c.259-.044.431-.107.491-.132l.021.024z"/></g><g fill="#415D56"><path d="M60.947 8.007v10.362c0 3.099 1.175 4.673 3.258 4.673 2.137 0 3.312-1.496 3.312-4.673V8.007h4.058v10.094c0 5.555-2.803 8.199-7.503 8.199-4.54 0-7.211-2.511-7.211-8.252V8.007h4.086zM88.319 25.499c-.748.374-2.432.774-4.619.774-6.223 0-9.427-3.871-9.427-8.999 0-6.143 4.38-9.562 9.825-9.562 2.111 0 3.714.429 4.434.802l-.827 3.231a8.8 8.8 0 0 0-3.419-.667c-3.23 0-5.741 1.949-5.741 5.955 0 3.604 2.137 5.875 5.769 5.875 1.229 0 2.591-.267 3.392-.587l.613 3.178zM94.836 11.426h-4.835V8.007h13.833v3.418h-4.913v14.581h-4.085v-14.58zM56.065 28.731c.67-.114 1.61-.2 2.935-.2 1.339 0 2.294.256 2.934.771.613.484 1.026 1.28 1.026 2.222 0 .939-.314 1.737-.883 2.278-.741.698-1.837 1.012-3.12 1.012-.286 0-.542-.015-.741-.043v3.434h-2.151v-9.474zm2.151 4.358c.185.044.413.057.726.057 1.155 0 1.866-.583 1.866-1.565 0-.884-.612-1.411-1.695-1.411-.442 0-.741.043-.897.086v2.833zM67.973 38.204l-.128-.698h-.043c-.456.557-1.167.854-1.994.854-1.41 0-2.251-1.025-2.251-2.136 0-1.81 1.625-2.679 4.088-2.665v-.098c0-.372-.199-.898-1.268-.898-.711 0-1.467.243-1.923.526l-.398-1.395c.484-.271 1.438-.612 2.706-.612 2.322 0 3.062 1.366 3.062 3.006v2.42c0 .67.028 1.312.099 1.696h-1.95zm-.257-3.292c-1.14-.013-2.022.257-2.022 1.098 0 .556.37.827.854.827.54 0 .982-.355 1.125-.799.028-.114.042-.241.042-.369v-.757zM73.841 29.243v1.996h1.553v1.596h-1.553v2.521c0 .841.199 1.224.854 1.224.271 0 .484-.029.64-.058l.014 1.639c-.285.114-.798.186-1.41.186-.698 0-1.282-.242-1.624-.599-.398-.413-.598-1.083-.598-2.065v-2.847h-.925V31.24h.925v-1.512l2.124-.485zM76.646 28.091h2.164v3.974h.029c.229-.3.513-.527.854-.713.313-.171.727-.27 1.126-.27 1.382 0 2.435.954 2.435 3.047v4.075H81.09v-3.831c0-.912-.312-1.538-1.125-1.538-.569 0-.926.369-1.083.751a1.381 1.381 0 0 0-.071.486v4.132h-2.164V28.091zM85.135 35.968c.585.3 1.481.598 2.407.598.997 0 1.524-.413 1.524-1.04 0-.599-.456-.94-1.61-1.354-1.597-.556-2.634-1.438-2.634-2.835 0-1.638 1.366-2.891 3.632-2.891 1.081 0 1.881.229 2.449.484l-.483 1.752a4.588 4.588 0 0 0-2.008-.456c-.941 0-1.397.428-1.397.926 0 .612.543.884 1.78 1.353 1.697.628 2.493 1.51 2.493 2.862 0 1.61-1.239 2.979-3.873 2.979-1.099 0-2.182-.283-2.722-.583l.442-1.795zM92.627 28.091h2.164v10.113h-2.164V28.091zM98.78 29.302c0 .598-.457 1.081-1.168 1.081-.684 0-1.139-.483-1.126-1.081-.013-.627.442-1.098 1.141-1.098.696 0 1.139.471 1.153 1.098zm-2.236 8.902v-6.965h2.165v6.965h-2.165zM107.197 28.091v8.033c0 .783.029 1.609.058 2.08h-1.922l-.101-1.026h-.027c-.441.783-1.284 1.182-2.181 1.182-1.653 0-2.978-1.409-2.978-3.576-.015-2.349 1.453-3.701 3.119-3.701.855 0 1.524.299 1.837.783h.03v-3.774h2.165zm-2.164 6.096c0-.114-.017-.27-.03-.385-.128-.584-.599-1.067-1.268-1.067-.981 0-1.494.882-1.494 1.979 0 1.183.584 1.924 1.481 1.924.625 0 1.124-.428 1.253-1.04.041-.156.058-.312.058-.498v-.913zM110.602 35.411c.071.897.953 1.325 1.965 1.325.74 0 1.339-.1 1.923-.283l.286 1.465c-.713.286-1.581.428-2.522.428-2.364 0-3.718-1.368-3.718-3.547 0-1.766 1.097-3.717 3.52-3.717 2.25 0 3.104 1.753 3.104 3.475 0 .37-.043.699-.072.854h-4.486zm2.548-1.48c0-.527-.227-1.41-1.225-1.41-.912 0-1.282.825-1.339 1.41h2.564zM116.439 36.309c.4.241 1.227.528 1.866.528.655 0 .927-.229.927-.584 0-.357-.213-.527-1.024-.799-1.44-.483-1.996-1.268-1.982-2.094 0-1.296 1.111-2.278 2.835-2.278.812 0 1.538.185 1.966.398l-.383 1.496c-.314-.171-.913-.399-1.51-.399-.529 0-.828.214-.828.568 0 .33.271.501 1.126.8 1.324.456 1.881 1.124 1.896 2.149 0 1.296-1.027 2.251-3.021 2.251-.911 0-1.724-.2-2.25-.483l.382-1.553z"/></g></svg>