<svg xmlns="http://www.w3.org/2000/svg" width="521.575" height="184.251"><path fill="#FFF" d="M438.616 52.857h32.797v40.394h-32.797z"/><path d="M474.002 95.838h-37.974V50.267h37.974v45.571zm-32.796-5.179h27.618V55.445h-27.618v35.214z"/><path fill="#FFF" d="M508.906 88.849c0-19.878-16.117-35.992-35.993-35.992h-2.536v110.901h38.529V88.849z"/><path d="M511.496 166.346h-43.708V50.267h5.125c21.273 0 38.583 17.309 38.583 38.582v77.497zm-38.53-5.179h33.352V88.849c0-18.401-14.955-33.373-33.352-33.403v105.721z"/><path fill="#BDBDBE" d="M500.362 91.784c0-19.877-11.495-35.993-25.673-35.993h-1.809v110.901h27.481V91.784z"/><path fill="#FFF" d="M514.223 175.202a3.76 3.76 0 0 1-3.757 3.759H378.319a3.76 3.76 0 0 1-3.758-3.759v-9.496a3.759 3.759 0 0 1 3.758-3.756h132.146a3.76 3.76 0 0 1 3.757 3.756v9.496z"/><path fill="#BDBDBE" d="M378.318 164.539a1.17 1.17 0 0 0-1.168 1.167v9.496c0 .646.524 1.169 1.168 1.169H505.85v-11.832H378.318z"/><path fill="#FFF" d="M500.411 128.25a3.756 3.756 0 0 1-3.755 3.759h-64.297a3.76 3.76 0 0 1-3.757-3.759v-3.28a3.758 3.758 0 0 1 3.757-3.756h64.297a3.755 3.755 0 0 1 3.755 3.756v3.28z"/><path d="M496.656 134.596h-64.297a6.354 6.354 0 0 1-6.346-6.347v-3.28a6.355 6.355 0 0 1 6.346-6.347h64.297c3.5 0 6.345 2.848 6.345 6.347v3.28a6.352 6.352 0 0 1-6.345 6.347zm-64.297-10.795c-.643 0-1.166.525-1.166 1.168v3.28c0 .646.523 1.169 1.166 1.169h64.297a1.17 1.17 0 0 0 1.167-1.169v-3.28a1.17 1.17 0 0 0-1.167-1.168h-64.297z"/><path fill="#FFF" d="M443.212 6.122a3.757 3.757 0 0 1 3.758 3.756v99.51a3.76 3.76 0 0 1-3.758 3.759h-9.494a3.76 3.76 0 0 1-3.757-3.759V9.878a3.757 3.757 0 0 1 3.757-3.756h9.494z"/><path d="M443.212 115.735h-9.494a6.352 6.352 0 0 1-6.346-6.347V9.878a6.351 6.351 0 0 1 6.346-6.345h9.494c3.5 0 6.346 2.847 6.346 6.345v99.51c0 3.5-2.846 6.347-6.346 6.347zM433.718 8.711c-.645 0-1.167.524-1.167 1.167v99.51c0 .646.522 1.169 1.167 1.169h9.494c.645 0 1.167-.523 1.167-1.169V9.878c0-.642-.522-1.167-1.167-1.167h-9.494z"/><path fill="#FFF" d="M452.016 27.18a3.759 3.759 0 0 1 3.757 3.757v64.297a3.757 3.757 0 0 1-3.757 3.756h-27.102a3.758 3.758 0 0 1-3.758-3.756V30.937a3.76 3.76 0 0 1 3.758-3.757h27.102zM446.97 144.302a3.758 3.758 0 0 0-3.758-3.757h-9.494a3.758 3.758 0 0 0-3.757 3.757v8.108h17.009v-8.108z"/><path d="M449.558 155.001h-22.186v-10.699a6.352 6.352 0 0 1 6.346-6.346h9.494c3.5 0 6.346 2.847 6.346 6.346v10.699zm-17.007-5.179h11.828v-5.52c0-.644-.522-1.167-1.167-1.167h-9.494c-.645 0-1.167.523-1.167 1.167v5.52z"/><path fill="#FFF" d="M455.898 161.26c0-6.864-5.563-12.43-12.429-12.43h-10.012c-6.863 0-12.428 5.565-12.428 12.43v.69h34.868v-.69z"/><path d="M458.487 164.541H418.44v-3.28c0-8.279 6.739-15.017 15.018-15.017h10.012c8.281 0 15.018 6.737 15.018 15.017v3.28zm-34.683-5.181h29.321c-.886-4.521-4.879-7.938-9.655-7.938h-10.012c-4.774 0-8.766 3.417-9.654 7.938z"/><g><circle fill="#FFF" cx="484.703" cy="144.172" r="9.149"/><path d="M484.704 155.91c-6.473 0-11.738-5.265-11.738-11.737 0-6.475 5.266-11.739 11.738-11.739 6.474 0 11.738 5.265 11.738 11.739 0 6.472-5.264 11.737-11.738 11.737zm0-18.297a6.568 6.568 0 0 0-6.561 6.56c0 3.615 2.943 6.56 6.561 6.56s6.56-2.944 6.56-6.56a6.567 6.567 0 0 0-6.56-6.56z"/></g><path fill="#BDBDBE" d="M447.248 63.035V26.618h-24.165v64.213h9.356a24.386 24.386 0 0 1-.558-5.176c.001-10.254 6.374-19.039 15.367-22.62z"/><path d="M452.016 101.58h-27.102a6.352 6.352 0 0 1-6.345-6.346V30.937a6.353 6.353 0 0 1 6.345-6.346h27.102c3.5 0 6.347 2.847 6.347 6.346v64.297a6.354 6.354 0 0 1-6.347 6.346zm-27.102-71.811c-.646 0-1.168.525-1.168 1.168v64.297c0 .643.521 1.168 1.168 1.168h27.102a1.17 1.17 0 0 0 1.168-1.168V30.937c0-.644-.523-1.168-1.168-1.168h-27.102z"/><g><circle fill="#FFF" cx="460.366" cy="84.619" r="15.88"/><path d="M460.366 103.086c-10.184 0-18.472-8.284-18.472-18.467 0-10.186 8.288-18.471 18.472-18.471 10.185 0 18.471 8.286 18.471 18.471 0 10.183-8.286 18.467-18.471 18.467zm0-31.758c-7.331 0-13.291 5.962-13.291 13.292 0 7.329 5.96 13.29 13.291 13.29 7.33 0 13.291-5.96 13.291-13.29 0-7.33-5.961-13.292-13.291-13.292z"/></g><path d="M510.466 181.548H378.319a6.354 6.354 0 0 1-6.346-6.347v-9.496a6.353 6.353 0 0 1 6.346-6.346h132.146c3.5 0 6.346 2.848 6.346 6.346v9.496a6.352 6.352 0 0 1-6.345 6.347zm-132.147-17.009a1.17 1.17 0 0 0-1.168 1.167v9.496c0 .646.524 1.169 1.168 1.169h132.146c.643 0 1.167-.523 1.167-1.169v-9.496c0-.643-.524-1.167-1.167-1.167H378.319z"/><g><g fill="#009ADA"><path d="M24.215 45.666c1.867 1.512 3.888 1.902 5.464-.046 1.578-1.948.775-3.843-1.092-5.354l-4.578-3.707-1.146 1.417 4.283 3.469c.943.764 2.211 1.918 1.234 3.123s-2.367.205-3.312-.559l-4.283-3.469-1.146 1.418 4.576 3.708zM29.653 35.499l-1.206 1.25 4.612 4.455 1.207-1.25-2.283-2.204c-.555-.535-1.42-1.388-.704-2.129.681-.705 1.37.011 1.924.547l2.442 2.358 1.207-1.25-2.818-2.722c-1.071-1.034-2.273-1.539-3.41-.361-.432.446-.693 1.038-.53 1.696l-.017.018-.424-.408zM35.488 29.982l-1.29 1.162 4.29 4.766 1.291-1.162-4.291-4.766zm-3.171-2.223c-.424.382-.434 1.058-.04 1.495.401.446 1.066.499 1.491.116.424-.382.441-1.048.039-1.495-.392-.437-1.066-.498-1.49-.116zM38.452 27.625l-1.525 1.149 6.167 3.546.714-.538-1.7-6.913-1.515 1.143 1.177 3.643zM50.062 23.969l-.118-.188c-1.023-1.639-2.604-2.484-4.299-1.425-1.673 1.045-1.694 2.861-.663 4.511s2.757 2.235 4.356 1.235c1.084-.677 1.607-1.852 1.287-3.161l-1.502.615c.07.557-.041 1.058-.525 1.36-.769.48-1.506-.138-1.935-.824l3.399-2.123zm-3.958 1.134c-.279-.611-.285-1.347.304-1.715.567-.355 1.243-.022 1.663.485l-1.967 1.23zM51.866 19.128l-1.561.761 2.811 5.764 1.562-.762-1.265-2.594c-.436-.892-.816-1.956.266-2.484.233-.114.491-.152.749-.104l-.555-1.618a1.94 1.94 0 0 0-.716.174c-.58.283-.91.793-.977 1.45l-.021.011-.293-.598zM59.276 16.309c-.631-.238-1.469-.125-2.067.117-1.058.428-1.466 1.536-1.017 2.65.387.957 1.092 1.08 1.759 1.107.667.026 1.278-.081 1.489.44a.671.671 0 0 1-.385.902c-.472.191-1.018.031-1.476-.207l-.329 1.302c.748.43 1.631.496 2.391.189 1.186-.479 1.879-1.675 1.346-2.995-.416-1.029-1.157-1.208-1.852-1.238-.683-.034-1.318.082-1.494-.354-.117-.291.059-.615.323-.722.322-.13.694-.069 1.018.068l.294-1.259zM62.989 14.48l-1.643.565 2.088 6.063 1.642-.565-2.087-6.063zm-2.051-3.286c-.539.186-.812.805-.621 1.36.195.568.787.875 1.327.69.54-.186.816-.792.62-1.361-.19-.555-.785-.875-1.326-.689zM67.44 14.693l1.021-.311-.45-1.474-1.022.312-.633-2.074-1.662.508.635 2.074-.57.174.451 1.473.569-.174 1.425 4.659 1.66-.508zM72.604 17.474l-1.051 4.722 1.869-.397 2.288-10.54-1.894.402-.771 3.889-2.178-3.262-1.929.41zM85.206 10.151c-1.896.066-3.149 1.534-3.08 3.531.07 1.984 1.408 3.362 3.318 3.295 1.91-.066 3.149-1.534 3.08-3.518-.07-1.997-1.421-3.374-3.318-3.308zm.057 1.619c.893-.031 1.471.863 1.501 1.751.03.861-.483 1.807-1.376 1.838-.893.031-1.471-.876-1.5-1.738-.032-.888.482-1.82 1.375-1.851zM92.223 11.856l1.39.049.053-1.541-1.389-.048.057-1.619c.019-.522-.031-1.582.737-1.555.261.009.479.121.699.247l.057-1.632a1.717 1.717 0 0 0-.823-.238c-1.674-.058-2.342 1.291-2.396 2.857l-.066 1.879-.582-.021-.055 1.54.584.021-.17 4.869 1.735.061.169-4.869zM106.554 8.799a4.188 4.188 0 0 0-1.971-.887c-2.71-.419-4.939 1.733-5.367 4.495-.415 2.684 1.145 5.344 3.743 5.747.748.116 1.46-.025 2.187-.256l.35-2.258c-.596.528-1.435.835-2.207.715-1.68-.26-2.456-2.059-2.202-3.698.26-1.678 1.513-3.202 3.241-2.934.772.12 1.473.625 1.875 1.348l.351-2.272zM114.54 14.288l-1.64-.495-.174.575a2.207 2.207 0 0 0-1.394-1.266c-1.674-.506-3.146.81-3.638 2.435-.502 1.663-.022 3.595 1.688 4.111.606.183 1.307.094 1.81-.286l.024.007-.17.562 1.64.495 1.854-6.138zm-4.309 3.924c-.855-.258-1.106-1.316-.857-2.142.25-.825 1.04-1.555 1.895-1.296.855.258 1.122 1.307.873 2.132-.249.826-1.055 1.564-1.911 1.306zM118.696 15.718l-1.613-.645-3.651 9.13 1.612.645 1.494-3.735.023.009c.128.614.632 1.125 1.207 1.355 1.671.668 3.246-.53 3.896-2.155.625-1.564.276-3.532-1.324-4.172-.6-.24-1.311-.2-1.863.113l.219-.545zm-.682 5.114c-.829-.332-.987-1.407-.667-2.208s1.172-1.458 2-1.127c.83.332.992 1.396.672 2.196-.32.801-1.176 1.471-2.005 1.139zM128.13 24.037l.104-.196c.902-1.71.837-3.501-.93-4.433-1.745-.92-3.324-.025-4.232 1.696s-.545 3.507 1.123 4.387c1.131.596 2.41.458 3.379-.478l-1.287-.989c-.446.34-.936.496-1.439.23-.801-.422-.639-1.37-.261-2.086l3.543 1.869zm-2.971-2.85c.388-.549 1.021-.924 1.635-.6.593.312.646 1.064.418 1.682l-2.053-1.082zM139.027 24.875l1.532 1.1.975-1.357-4.544-3.265-.975 1.357 1.531 1.101-4.771 6.638 1.482 1.065zM142.626 29.69c-1.453-1.22-3.367-.967-4.65.564-1.276 1.521-1.203 3.44.26 4.669 1.465 1.228 3.367.967 4.645-.554 1.282-1.53 1.2-3.458-.255-4.679zm-1.04 1.241c.685.574.515 1.625-.056 2.306-.555.661-1.568 1.02-2.253.446s-.507-1.636.048-2.296c.571-.681 1.576-1.03 2.261-.456zM147.516 34.428l-1.295-1.388-2.873 6.513.609.654 3.847-1.603-1.969 3.616.602.645 6.714-2.394-1.287-1.379-3.621 1.613 1.871-3.797-.567-.608-3.872 1.574zM155.386 43.632l-1.021-1.406-5.188 3.77 1.021 1.406 2.567-1.866c.623-.452 1.613-1.157 2.219-.323.575.793-.249 1.346-.872 1.799l-2.748 1.996 1.021 1.405 3.17-2.304c1.205-.875 1.91-1.971.947-3.295-.365-.502-.901-.863-1.578-.816l-.015-.02.477-.346zM156.997 55.031c.395.713 1.33.974 2.096.549.766-.424 1.056-1.346.652-2.072-.402-.728-1.338-.97-2.1-.539-.765.425-1.044 1.349-.648 2.062zM165.528 61.639l-.651-1.61-5.945 2.402.65 1.609 5.946-2.401zm3.174-2.22c-.214-.529-.846-.769-1.391-.549-.557.226-.834.832-.619 1.361.213.529.834.773 1.391.549.545-.22.833-.831.619-1.361zM165.448 66.806l-4.289 1.393.564 1.734 4.289-1.392 5.989 1.158-.66-2.03-3.819-.637 2.761-2.619-.655-2.019zM169.082 72.174l-3.692.785c-1.826.388-2.594 1.489-2.217 3.262s1.525 2.466 3.352 2.078l3.692-.784-.36-1.699-3.398.722c-.716.151-1.595.225-1.777-.637-.184-.862.648-1.153 1.364-1.306l3.397-.722-.361-1.699zM170.963 82.061l-.212-1.725-6.365.782.212 1.724 3.15-.387c.765-.094 1.972-.229 2.097.792.12.973-.869 1.058-1.635 1.151l-3.37.413.212 1.725 3.889-.478c1.479-.181 2.626-.798 2.426-2.423-.074-.615-.369-1.192-.984-1.479l-.002-.025.582-.07zM171.591 90.472l-.061-1.736-6.408.225.061 1.735 6.408-.224zm3.742-1c-.02-.57-.531-1.012-1.119-.991-.6.021-1.067.497-1.047 1.067.02.57.519 1.012 1.119.99.587-.019 1.067-.496 1.047-1.066zM171.634 94.349l.066-1.909-6.636 2.561-.031.893 6.442 3.031.065-1.897-3.57-1.378zM167.056 106.008l.22.03c1.914.27 3.577-.398 3.855-2.377.274-1.953-1.103-3.137-3.029-3.408-1.927-.271-3.484.676-3.747 2.543-.178 1.266.385 2.423 1.594 3.019l.494-1.546c-.471-.305-.783-.713-.704-1.277.126-.896 1.073-1.064 1.875-.952l-.558 3.968zm1.675-3.76c.647.178 1.215.646 1.118 1.334-.093.664-.782.968-1.44.963l.322-2.297zM168.854 112.453c.55-.39.925-1.146 1.059-1.778.237-1.116-.453-2.075-1.629-2.325-1.009-.215-1.506.302-1.9.84-.395.537-.648 1.104-1.198.988-.409-.088-.612-.447-.532-.824.105-.498.543-.861.996-1.107l-.896-1.002c-.774.381-1.323 1.076-1.493 1.877-.267 1.25.337 2.494 1.729 2.791 1.086.23 1.649-.284 2.062-.844.41-.547.67-1.139 1.13-1.041.307.065.478.394.417.672-.071.34-.33.615-.625.807l.88.946zM168.068 116.781l.502-1.662-6.139-1.854-.502 1.662 6.139 1.854zm3.865.26c.164-.547-.178-1.129-.74-1.299-.575-.174-1.17.125-1.336.672-.164.547.166 1.125.74 1.299.562.169 1.171-.127 1.336-.672zM165.245 120.512l-.344 1.01 1.458.497.344-1.01 2.052.699.56-1.645-2.052-.698.192-.565-1.459-.496-.192.564-4.612-1.57-.558 1.645zM169.845 125.787l-10.133-4.469-.701 1.589 2.904 1.28c.705.311 1.811.812 1.395 1.755-.395.896-1.288.462-1.993.151l-3.106-1.371-.701 1.59 3.585 1.581c1.362.601 2.663.659 3.324-.839.251-.567.293-1.213-.04-1.754l.01-.022 4.756 2.098.7-1.589zM161.165 133.064l.836-1.521-5.618-3.089-.837 1.522 5.619 3.088zm3.726 1.058c.274-.5.062-1.142-.454-1.425-.525-.289-1.17-.119-1.445.381s-.072 1.135.453 1.424c.515.283 1.171.121 1.446-.38zM151.964 137.434l-2.423-4.186-1.106 1.556 5.449 9.306 1.121-1.577-2.065-3.385 3.811.928 1.143-1.608zM148.479 150.147l1.155-1.265-.444-.404a2.204 2.204 0 0 0 1.744-.709c1.18-1.292.631-3.188-.623-4.333-1.283-1.171-3.232-1.573-4.437-.255-.427.468-.649 1.138-.524 1.756l-.017.019-.435-.396-1.154 1.264 4.735 4.323zm-1.675-5.58c.602-.659 1.664-.429 2.301.152s.953 1.609.351 2.269c-.603.66-1.663.447-2.3-.134s-.956-1.628-.352-2.287zM143.276 154.5c.675.002 1.42-.398 1.895-.836.84-.772.832-1.953.019-2.838-.698-.76-1.401-.627-2.034-.418-.634.211-1.17.525-1.55.112a.671.671 0 0 1 .043-.979c.374-.345.942-.387 1.454-.326l-.149-1.334c-.853-.139-1.702.109-2.305.664-.94.865-1.17 2.229-.206 3.275.751.818 1.508.725 2.168.508.651-.208 1.205-.541 1.523-.194.213.231.161.597-.049.79-.256.234-.625.309-.977.295l.168 1.281zM134.96 157.201l.136.177c1.179 1.53 2.835 2.218 4.417.999 1.562-1.203 1.407-3.012.221-4.554-1.188-1.542-2.962-1.955-4.456-.805-1.013.78-1.419 1.999-.973 3.271l1.435-.759c-.123-.548-.062-1.056.391-1.405.717-.552 1.512-.01 2.005.633l-3.176 2.443zm3.828-1.514c.338.58.416 1.312-.135 1.736-.531.408-1.235.144-1.703-.32l1.838-1.416zM132.863 161.979l.021-.013 2.17 3.54 1.554-.952-5.143-8.396-1.556.953 2.314 3.775-.021.013-4.863-2.212-1.999 1.225 5.965 2.562-.652 5.729 1.915-1.173zM121.438 168.832l1.545-.736-.259-.543a2.208 2.208 0 0 0 1.883 0c1.579-.754 1.783-2.717 1.053-4.25-.748-1.566-2.402-2.674-4.016-1.904-.57.272-1.029.81-1.146 1.43l-.022.011-.254-.53-1.545.736 2.761 5.786zm.545-5.801c.806-.385 1.703.229 2.074 1.007s.277 1.85-.529 2.234c-.806.384-1.709-.212-2.08-.989-.371-.78-.271-1.867.535-2.252zM116.794 170.585l1.647-.551-3.12-9.324-1.646.551 1.275 3.814-.023.008c-.495-.386-1.209-.449-1.798-.253-1.706.571-2.132 2.503-1.577 4.163.535 1.598 2.074 2.873 3.709 2.326a2.204 2.204 0 0 0 1.348-1.291l.185.557zm-2.787-4.34c.848-.284 1.664.435 1.938 1.252s.049 1.87-.798 2.153-1.659-.423-1.933-1.24-.054-1.882.793-2.165zM103.988 174.028l1.673-.362-.127-.587a2.216 2.216 0 0 0 1.833.433c1.71-.37 2.36-2.234 2.002-3.894-.367-1.698-1.724-3.155-3.47-2.777-.618.134-1.188.551-1.444 1.127l-.024.005-.124-.574-1.673.362 1.354 6.267zm1.866-5.521c.873-.189 1.605.614 1.787 1.457.182.842-.156 1.864-1.029 2.053-.873.189-1.614-.6-1.797-1.441-.181-.843.166-1.88 1.039-2.069zM95.858 170.218c-.812.071-1.431.82-1.354 1.691.076.873.8 1.512 1.628 1.439.829-.072 1.431-.828 1.346-1.699-.077-.87-.807-1.501-1.62-1.431zM89.948 172.979c.079-2.401-.828-4.248-3.332-4.331-2.506-.083-3.533 1.699-3.612 4.101l-.195 5.888 1.823.06.182-5.508c.041-1.214.197-2.921 1.746-2.869 1.551.052 1.594 1.765 1.553 2.978l-.183 5.51 1.823.06.195-5.889zM78.267 174.648l1.72.242.892-6.35-1.719-.242-.442 3.143c-.107.764-.288 1.965-1.308 1.82-.971-.136-.797-1.113-.689-1.877l.473-3.362-1.72-.241-.546 3.879c-.207 1.475.092 2.743 1.713 2.971.614.087 1.248-.049 1.684-.567l.024.003-.082.581zM70.362 173.236l1.699.361 1.334-6.272-1.699-.36-1.334 6.271zm.065 3.873c.559.119 1.111-.271 1.233-.846.124-.588-.224-1.156-.782-1.275-.559-.118-1.107.259-1.232.847-.124.575.223 1.155.781 1.274zM66.7 172.273l1.827.559-.756-7.074-.855-.26-4.595 5.437 1.816.555 2.257-3.094zM56.896 165.089l-.082.205c-.725 1.793-.479 3.568 1.373 4.316 1.83.739 3.311-.311 4.04-2.115.729-1.804.188-3.544-1.562-4.25-1.185-.479-2.443-.213-3.313.816l1.381.854c.409-.384.88-.588 1.409-.375.84.34.773 1.299.471 2.05l-3.717-1.501zm3.244 2.536c-.329.586-.921 1.023-1.564.763-.622-.251-.75-.993-.586-1.632l2.15.869zM52.172 166.675l1.562.762 2.811-5.764-1.561-.762-1.266 2.595c-.436.892-1.039 1.847-2.121 1.319a1.187 1.187 0 0 1-.543-.526l-.935 1.434c.161.181.354.348.578.456.58.283 1.186.23 1.744-.123l.022.012-.291.597zM45.366 162.296c.189.648.784 1.249 1.338 1.581.979.588 2.109.247 2.729-.782.531-.885.205-1.523-.175-2.071s-.834-.974-.544-1.454a.67.67 0 0 1 .951-.236c.437.262.638.795.723 1.303l1.239-.52a2.745 2.745 0 0 0-1.288-2.023c-1.096-.658-2.469-.493-3.202.727-.571.952-.269 1.652.126 2.225.384.565.859 1.004.617 1.406-.162.27-.527.323-.771.176-.299-.178-.475-.512-.559-.854l-1.184.522zM41.57 160.302l1.423.996 3.678-5.253-1.423-.996-3.678 5.253zm-1.454 3.59c.468.328 1.129.184 1.466-.297.345-.492.245-1.152-.222-1.479-.468-.328-1.121-.195-1.466.297-.336.482-.245 1.151.222 1.479zM39.11 156.595l-.851-.641-.928 1.231.852.642-1.305 1.731 1.388 1.045 1.304-1.731.476.358.928-1.23-.477-.359 2.933-3.891-1.388-1.045zM34.286 149.802l-.148.166c-1.293 1.436-1.67 3.188-.185 4.525 1.466 1.32 3.217.84 4.519-.605 1.303-1.447 1.389-3.268-.013-4.529-.95-.855-2.224-1.035-3.394-.366l1.006 1.274c.517-.221 1.028-.252 1.453.131.673.605.282 1.484-.26 2.086l-2.978-2.682zm2.182 3.493c-.51.437-1.216.646-1.732.181-.498-.449-.364-1.189.008-1.733l1.724 1.552zM29.226 149.638l1.207 1.249 4.612-4.454-1.206-1.25-4.613 4.455zm-2.112 3.246c.396.41 1.071.396 1.494-.012.433-.418.461-1.084.064-1.494s-1.062-.405-1.495.012c-.422.408-.46 1.084-.063 1.494zM27.533 145.517l-.714-.793-1.145 1.031.714.793-1.612 1.451 1.162 1.291 1.612-1.451.398.442 1.146-1.031-.399-.442 3.62-3.26-1.162-1.291zM21.063 139.597l1.041 1.604 3.967-5.906-.486-.749-7.016 1.211 1.035 1.593 3.716-.919zM14.888 129.147l.804 1.512.53-.282a2.2 2.2 0 0 0 .084 1.881c.82 1.545 2.791 1.664 4.291.867 1.533-.816 2.566-2.518 1.729-4.096-.298-.559-.854-.993-1.479-1.082l-.012-.022.519-.276-.804-1.512-5.662 3.01zm5.82.292c.42.789-.154 1.713-.916 2.117-.761.404-1.836.357-2.255-.432-.419-.788.138-1.717.897-2.121.762-.404 1.854-.353 2.274.436zM13.048 124.978l.65 1.611 5.946-2.402-.651-1.611-2.941 1.189c-.715.289-1.846.732-2.231-.223-.367-.908.567-1.246 1.281-1.535l3.148-1.271-.65-1.611-3.634 1.469c-1.38.557-2.329 1.449-1.716 2.968.232.575.666 1.056 1.333 1.175l.01.022-.545.219zM9.72 112.816l.006.025-4.057.891.393 1.781 9.616-2.113-.392-1.781-4.324.95-.005-.025 3.682-3.871-.503-2.289-4.374 4.797-5.2-2.489.482 2.192zM6.767 100.078l.218 1.698.596-.077a2.212 2.212 0 0 0-.587 1.789c.223 1.735 2.023 2.543 3.708 2.327 1.723-.221 3.29-1.446 3.063-3.22-.08-.627-.447-1.23-1-1.535l-.003-.024.583-.075-.218-1.697-6.36.814zm5.341 2.33c.113.887-.75 1.547-1.605 1.656-.854.109-1.844-.314-1.957-1.199-.113-.887.735-1.559 1.59-1.668.855-.11 1.859.325 1.972 1.211zM6.479 91.503l.038 1.711.601-.014a2.21 2.21 0 0 0-.771 1.719c.04 1.748 1.748 2.739 3.445 2.701 1.736-.039 3.424-1.096 3.383-2.881-.014-.633-.316-1.271-.834-1.632v-.025l.588-.013-.039-1.712-6.411.146zm5.068 2.875c.021.894-.907 1.461-1.769 1.48s-1.801-.506-1.821-1.398.894-1.473 1.755-1.492c.862-.019 1.814.518 1.835 1.41zM6.739 86.953l-.143 1.73 9.801.807.143-1.73-4.009-.33.003-.025c.549-.303.889-.935.939-1.553.147-1.793-1.461-2.946-3.205-3.09-1.68-.138-3.457.774-3.599 2.492a2.194 2.194 0 0 0 .655 1.748l-.585-.049zm5.09-.852c-.074.891-1.056 1.357-1.915 1.287-.858-.07-1.738-.691-1.665-1.581s1.042-1.358 1.9-1.288c.86.071 1.752.692 1.68 1.582zM8.665 76.295c-.542.401-.9 1.167-1.021 1.801-.214 1.121.496 2.065 1.677 2.29 1.014.193 1.499-.332 1.883-.879.384-.545.626-1.118 1.177-1.013.411.078.622.435.551.812-.096.5-.525.873-.974 1.129l.916.982c.767-.396 1.301-1.104 1.454-1.907.24-1.255-.39-2.487-1.788-2.753-1.091-.209-1.643.317-2.044.885-.398.556-.645 1.152-1.107 1.064-.307-.059-.484-.383-.432-.663.065-.341.318-.622.608-.819l-.9-.929zM10.671 72.433l.254-1.036-1.496-.368-.255 1.037-2.106-.518-.415 1.687 2.106.516-.142.58 1.497.368.142-.579 4.73 1.162.415-1.687zM11.727 63.705l-.529 1.628.571.186c-.627.239-1.1.765-1.295 1.366-.541 1.664.743 3.164 2.357 3.688 1.652.536 3.594.099 4.146-1.601.195-.603.121-1.305-.248-1.816l.008-.023.559.182.529-1.629-6.098-1.981zm3.833 4.388c-.275.85-1.339 1.078-2.158.812-.82-.267-1.533-1.072-1.258-1.922.276-.85 1.33-1.094 2.15-.828.82.267 1.542 1.089 1.266 1.938zM20.359 59.996l.733-1.574-10.036-4.682-.734 1.574 4.759 2.219-.011.023c-.624.133-1.157.596-1.424 1.17-.74 1.586.352 3.23 1.891 3.948 1.574.734 3.555.535 4.311-1.084.268-.573.279-1.28-.043-1.827l.012-.021.542.254zm-1.813.55c-.377.809-1.46.906-2.242.543-.78-.365-1.391-1.252-1.013-2.061.378-.811 1.448-.913 2.229-.549s1.404 1.257 1.026 2.067zM22.36 51.962c.444-.685.234-1.633-.499-2.109-.734-.477-1.684-.301-2.137.396-.452.697-.228 1.637.511 2.107.735.477 1.681.29 2.125-.394z"/></g><circle fill="none" cx="88.658" cy="92.615" r="72.323"/><path fill="#231F20" d="M47.675 43.796h81.967v51.833c0 41.585-40.984 55.446-40.984 55.446s-40.982-13.861-40.982-55.387l-.001-51.892z"/><path fill="#FFF" d="M128.437 45.001v50.628c0 38.343-35.66 52.644-39.779 54.167-4.117-1.523-39.777-15.82-39.777-54.107V45.001h79.556z"/><path fill="#231F20" d="M124.819 95.629c0 33.259-28.84 47.271-36.162 50.282-7.322-3.012-36.161-17.018-36.161-50.223v-47.07h72.323v47.011z"/><path fill="#231F20" d="M88.657 144.605c-7.93-3.355-34.955-17.172-34.955-48.916V49.824h69.912V95.63c0 31.797-27.028 45.62-34.957 48.975z"/><path fill="#FFF" d="M88.97 83.94c1.629 0 2.566 1.198 2.566 2.587 0 .355-.104 1.011-.41 1.303h-.172s-.057.002-.057-.115c0-.118.135-.382.178-.576a4.34 4.34 0 0 0 .067-.707c0-.759-.618-2.064-1.512-2.064h-.679c-.125 0-.137.09-.229.174.104.4.473.373.762.641.426.397.62 1.074.62 1.486 0 .321-.284 1.213-.82 1.213h-2.161c-.462 0-.573-.736-.573-.928 0-.116-.1-.258-.1-.377.001-1.333 1.04-2.637 2.52-2.637z"/><path fill="#FFF" d="M89.192 81.948c.31 0 1.176.167 1.385.45.103.135.32.215.32.334 0 .011.541.865.535 1.098v.537c-.937-.773-1.604-.997-2.463-.997-.789 0-1.477.273-2.256.901-.016-.07-.066-.045-.066-.163 0-.121.083-.239.113-.339.366-1.182 1.341-1.821 2.432-1.821zM92.886 81.714c1.697.273 3.539.846 5.315 1.775-.112.066-.224.138-.317.146-1.375.174-2.768.351-4.162.442-.307-.724-.9-2.131-.9-2.249-.001-.118.005-.063.064-.114zM84.995 81.665l.515.058a7.137 7.137 0 0 0-1.091 2.596h-.75c-.943.002-3.865-.522-4.373-.73 1.823-1.121 3.875-1.527 5.699-1.924z"/><path fill="#FFF" d="M90.676 81.378c.25.047.567.015.845.109.649.23 1.301 1.746 1.301 2.287 0 .119.047.274.096.432-.054.059-.047.09.003.66-.044.547-.243 1.393-.824 1.871-.059-1.504-.263-1.129-.213-2.537.019-.521-.203-1.207-.722-1.756-.691-.74-1.234-.876-1.969-.876-1.758 0-2.937 1.483-2.937 2.679 0 .119-.053.152-.07.196-.029.188.009.382-.017.565-.088.576-.383 1.137-.316 1.723-.383-.009-.684-1.148-.684-1.463 0-.119-.1-.284-.1-.402 0-1.057.877-3.227 1.799-3.441l3.808-.047zM82.157 80.476c.234 0 .396.879.396.879 0 .361-.329.264-.658.412-.469.215-.995.357-1.482.521-.592.209-1.232.51-1.838.797-.199-.234-.416-.69-.416-.925 0-.414 3.832-1.684 3.998-1.684zM95.314 80.431c.265 0 4.17 1.297 4.17 1.752 0 .164-.281.807-.417.807-.125 0-1.136-.469-1.69-.701-.672-.283-1.442-.459-2.171-.74-.213-.078-.213-.251-.213-.312 0-.03.142-.806.321-.806zM78.838 79.863c.157.294.357.828.357.947 0 .189-1.044.615-1.265.663-.045-.034-.464-.817-.464-.946.001-.181.99-.666 1.372-.664zM98.769 79.816c.137 0 1.408.57 1.408.757 0 .118-.25.603-.408.897-.094-.018-1.42-.444-1.42-.756 0-.152.297-.898.42-.898zM89.44 79.529c.121 0 .196.012 1.137.047 1.338.047 2.832.326 4.264.768v.246c.004.202-.176.743-.343.743-.122 0-1.36-.323-2.002-.416-.586-.089-1.234-.109-1.825-.202l-1.488-.051a3.902 3.902 0 0 1-.161-.154v-.773c.057-.092.292-.208.418-.208zM88.61 79.531a.92.92 0 0 1 .163.473c0 .699-.255.711-.923.711h-.627c-.784 0-3.77.664-4.104.664-.26 0-.421-.639-.421-.828 0-.119.005-.159.072-.246.339-.111.732-.201 1.133-.291 1.072-.236 2.173-.307 3.261-.438l1.446-.045zM92.499 78.058c.531 0 5.752 1.163 5.752 1.637 0 .241-.33.895-.412.973-1.053-.334-2.125-.708-3.223-.986-.74-.185-1.693-.191-2.434-.543.045-.539.053-.566-.004-.628.059-.104.038-.453.321-.453zM85.253 78.058c.23.27.213.682.213.947 0 .291-.372.254-.615.297-.787.141-1.643.277-2.414.521-.871.273-1.99.705-2.881.888-.161-.294-.36-.78-.36-.896 0-.338 1.04-.572 1.103-.59 1.567-.539 3.367-.978 4.954-1.167zM90.273 77.818c.12 0 .994.096 1.497.156.104.09.16.177.16.295 0 .119-.051.343-.099.471.043.035-.022.248-.058.404-1.25-.043-1.725-.139-1.848-.139h-2.357c-.125 0-1.092.096-1.646.142-.181-.196-.213-.575-.213-.806 0-.119.004-.226.06-.313.502-.112 1.378-.21 1.503-.21h3.001zM81.343 77.203c.123 0 .17.012.201.062.068.238.219.608.215.729v.291l-4.473 1.622c-.209-.295-.363-.735-.363-.854 0-.187.59-.459.658-.488.303-.146 2.996-1.362 3.762-1.362zM96.13 77.156c.295 0 4.689 1.479 4.689 1.85 0 .118-.2.557-.318.795-.031.049-.053.061-.177.061-.122 0-2.038-.809-3.094-1.178-.425-.148-.958-.227-1.386-.407-.109-.048-.16-.173-.16-.29 0-.116.15-.531.268-.766.045-.018.053-.065.178-.065zM77.665 76.775c.123 0 .131.051.172.067.121.229.272.669.272.788 0 .208-1.208.697-1.414.758-.097-.104-.41-.762-.41-.926 0-.127 1.287-.687 1.38-.687zM99.854 76.679c.197 0 1.557.676 1.557.832 0 .194-.277.83-.445.83-.122 0-.973-.428-1.469-.637-.05-.031-.061-.051-.061-.17 0-.121.147-.428.147-.545.001-.117.148-.31.271-.31zM89.784 76.111c.124 0 .799.012 1.781.094.658.061 4.02.588 4.02.926 0 .244-.121.685-.312.97-.706-.14-1.444-.301-2.136-.413-1.031-.165-3.037-.342-3.162-.342h-.69c-.104-.05-.164-.156-.218-.256 0-.051.051-.098 0-.479.014-.553.333-.5.717-.5zM88.401 76.111c.122 0 .146.047.305.104.004.061.067.157.064.974a4.815 4.815 0 0 1-.162.157h-.893c-1.168 0-5.198.758-5.496.806-.108-.253-.259-.658-.256-.776v-.306c1.402-.458 2.941-.673 4.41-.813a43.22 43.22 0 0 1 2.028-.146zM97.867 76.019h.205c.074-.004 1.265.42 1.265.592 0 .188-.27.828-.469.828-.125 0-.805-.232-1.193-.398-.049-.017-.115-.123-.115-.242s.201-.53.307-.78zM79.614 76.015c.148 0 .369.875.369.902 0 .121-.01.139-.061.167-.445.211-1.196.499-1.32.499-.166 0-.443-.854-.443-.928 0-.106 1.389-.64 1.455-.64zM92.732 74.786h.354c.123-.002.851.188 1.258.289.006.063.054.04.054.158 0 .13-.179.878-.342.878-.125 0-.876-.133-1.313-.207-.093-.012-.221-.17-.221-.291 0-.119.101-.53.21-.827zM84.8 74.784c.196 0 .27.764.27.829 0 .492-1.462.498-1.715.492-.107-.246-.209-.707-.209-.824 0-.253 1.455-.497 1.654-.497zM90.659 74.597c.174-.004 1.618-.152 1.618.398 0 .119-.05.479-.104.727-.107.053-.29.057-.415.057-.387 0-.818.017-1.185-.164-.066-.081-.072-.19-.072-.309s.05-.462.158-.709zM86.433 74.595h.551c.15.242.159.506.159.686a.553.553 0 0 1-.04.253c-.203.175-.627.245-.879.241h-.702c-.056-.252-.155-.66-.155-.779-.001-.378.734-.403 1.066-.401zM98.425 74.355c.137 0 3.678 1.289 3.678 1.545 0 .115-.25.627-.461.972a80.829 80.829 0 0 0-3.569-1.45c-.017-.035-.069.003-.069-.115-.001-.097.233-.952.421-.952zM79.195 74.355c.184 0 .394.974.394.974 0 .118-.109.161-.16.194-.693.252-1.936.778-2.062.778-.12 0-1.026.414-1.316.52-.161-.294-.41-.806-.41-.921 0-.353 3.456-1.545 3.554-1.545zM91.018 72.886c.37 0 3.122.396 3.565.486a.258.258 0 0 1 .113.223c0 .191-.107.812-.393.904l-3.605-.532c-.05-.582 0-.845 0-.964 0-.117.199-.117.32-.117zM86.386 72.894s.607.098.638.148c.021.1.069.603.069.721 0 .119-.1.203-.158.284-1.246.118-2.528.26-3.826.448-.112-.297-.211-.755-.211-.873 0-.121.004-.156.06-.244.477-.131 3.102-.492 3.428-.484zM85.292 70.038l7.588.021c.244-.059.721.327.922.612v.133h-9.564c.074-.455.709-.777 1.054-.766zM85.878 69.279l6.189.041c.008.064.358.172.355.326a.744.744 0 0 1-.318.105l-6.525-.049c-.058-.052-.064-.046-.064-.164 0-.218.179-.175.363-.259zM86.722 68.38l4.496.043c.108.018.368.167.368.289 0 .117-.159.185-.166.297l-4.552-.016c-.244-.067-.465-.051-.465-.307 0-.162.114-.286.319-.306zM87.687 67.427l2.801.023c.244.029.457.147.457.357 0 .107-.047.226-.27.238l-3.428-.012c-.125-.035-.375-.302-.4-.398.203-.229.604-.208.84-.208zM86.851 66.011c.985.118 1.501.277 2.244.277.604 0 1.118-.159 2.043-.277v.2c.005.118-.246.538-.369.767a3.464 3.464 0 0 1-.713.119h-2.768c-.058-.05-.082-.146-.127-.168-.112-.227-.314-.634-.311-.752v-.166zM83.836 64.01c.32 0 .901.538.882.851h-.262c-.201.004-.867-.492-.867-.636 0-.122.117-.215.247-.215zM85.118 63.965c.525 0 .919.89 1.038 1.165-.056.062-.052.115-.172.115-.433 0-1.16-.744-1.16-1.045 0-.199.197-.235.294-.235zM86.551 63.917c.499 0 .592.943.592 1.069 0 .127-.138.345-.271.399-.225-.055-.616-.766-.616-1.065 0-.248.065-.403.295-.403zM92.992 63.872c.224 0 .224.206.224.233 0 .292-.617.883-.857.998h-.217c-.053-.054-.061-.023-.061-.142 0-.157.518-1.089.911-1.089zM91.786 63.872a.28.28 0 0 1 .295.282c0 .162-.57 1.092-.916 1.092-.229 0-.221-.209-.221-.24 0-.216.416-1.134.842-1.134zM90.278 63.872c.295 0 .42.373.42.497 0 .188-.271 1.113-.593 1.113-.359 0-.296-.646-.296-.666.001-.217.006-.944.469-.944zM89.043 63.872c.397 0 .421.555.421.709 0 .16-.079.901-.396.901-.389 0-.442-.96-.442-.996-.001-.278.061-.614.417-.614zM87.761 63.872c.412 0 .566.532.566.778 0 .129-.146.785-.346.785-.406 0-.591-1.057-.591-1.092.001-.213.074-.471.371-.471zM79.526 60.593c.383-.039.409.577.409.715 0 .996-1.282 1.281-1.776 1.281-.945 0-2.573-.924-3.414-1.996h4.781zM97.604 60.517s-.861 2.189-2.857 3.115c-.112.052-.472-.236-.594-.236-.123 0-.519.236-.641.236-.123 0-.471-.189-.593-.189-.125 0-.371.189-.494.189-.101 0-.469-.189-.64-.189-.125 0-.644.189-.695.189-.121 0-.518-.189-.641-.189-.122 0-.592.234-.715.234-.125 0-.543-.234-.668-.234-.123 0-.469.189-.59.189-.126 0-.471-.189-.592-.189-.125 0-.643.282-.767.282-.125 0-.544-.188-.668-.188-.122 0-.419.188-.542.188s-.617-.233-.74-.233c-.125 0-.544.233-.668.233-.12 0-.617-.188-.739-.188-.396 0-.642.381-.74.381-.124 0-.361-.209-.509-.326-.648-.506-1.29-1.348-1.604-1.87-.187-.3-.573-1.204-.573-1.204h17.27zM99.42 59.593v.424c-.082-.148-.108-.084-.155-.084h-18.48c-.236 0-.527 0-.844-.062v-.277H99.42zM72.728 58.933c.34 0 .586.666 1.117.666h5.434c.105.104.164.213.157.327h-6.281c-.204.007-.871-.417-.871-.708-.001-.181.414-.285.444-.285zM91.495 57.704h.158c.125-.001 1.108.808 1.66 1.249-.049.111-.197.174-.321.174-.587 0-1.554-.873-1.554-1.258 0-.122.05-.098.057-.165zM89.366 57.605c.252 0 .443.771.443.831 0 .397-.29.544-.543.544-.395 0-.443-.158-.443-.378 0-.155.282-.997.543-.997zM90.216 57.557h.203c.342 0 1.069 1.054 1.069 1.116 0 .267-.279.357-.442.357-.527 0-.94-.924-.94-1.141-.001-.118.052-.223.11-.332zM87.373 57.557c.058.055.117.096.117.214 0 .258-.878 1.26-1.169 1.256h-.595c-.056-.052-.065-.021-.065-.141 0-.119 1.326-1.22 1.712-1.329zM88.478 57.462c.184 0 .196.211.196.24 0 .35-.487 1.328-.913 1.328-.197 0-.37-.103-.37-.307 0-.251.629-1.261 1.087-1.261zM87.61 56.517l3.81-.031c.007.064.166.146.166.266 0 .118-.138.121-.327.162l-3.904.027c-.057-.053-.105-.053-.16-.109v-.163a2.43 2.43 0 0 1 .415-.152z"/><path fill="#FFF" d="M102.053 56.23c1.411 0 3.26.837 3.26 2.514 0 2.004-2.829 3.596-4.565 3.902-.695.128-1.433.41-2.125.494-1.164.148-2.564.502-3.753 1.486-.066-.052-.073-.046-.073-.164 0-.658 2.096-1.553 2.188-1.576 1.611-.492 3.46-.848 5.083-1.592 1.42-.655 2.159-1.578 2.159-2.645 0-1.14-1.364-1.615-2.123-1.615-.458 0-1.726.305-1.926.643.047.084.191.127.283.181.123.071.309.4.309.483 0 .512-.494.785-.962.785-.524 0-1.112-.293-1.112-.881 0-.119.152-.398.285-.582.739-1.02 2.09-1.433 3.072-1.433zM89.39 54.332c.346 0 .814.221.814.69 0 .509-.406.78-.838.78-.426 0-.741-.414-.741-.734 0-.44.337-.736.765-.736zM83.485 52.964c-.363.586-1.04.471-1.534.852-.407.312-.064 1.133-.757 1.133-.121 0-1.037-.189-1.16-.189-.26 0-.35-.063-.64.309.364.473.887.734.887 1.256 0 .119-.05.19-.05.309 0 .326-.994.644-1.404.736l-1.486-.047c-.273-.046-.814.391-1.029.712-.231-.198-.521-.563-.521-.831 0-.539.776-.357.918-.357h.776c.401 0 .972-.562.972-.875 0-.756-1.334-.79-1.334-1.615 0-.635.814-.783 1.211-.783.123 0 1.776.381 1.898.381.47 0 .888-.453 1.297-.697.303-.175.75-.24 1.098-.252.64-.032.729 0 .858-.042zM89.049 118.894c.617 0 1.345.381 1.334 1.256.099 6.526.124 6.555.112 6.601.014.23.113.544.113.661 0 .119.158.611.23.895.336 1.234 1.404 2.023 2.457 2.023 2.936 0 8.684-4.021 10.879-6.136-.238-.222-.76-.782-.926-.901-.059-.047-.557-.453-.557-.693 0-.23 3.312-2.078 3.447-2.172.453-.303.902-.602 1.285-.9.234-.185 1.134-.855 1.455-.855.326 0 .036 1.51.09 1.568-.098.531-.295 1.524-.295 1.643s-.295 1.045-.295 1.164c0 .665-.677 2.145-.904 2.619-.068.141-.145.24-.251.342-.599-.041-1.71-1.072-1.894-1.072-.273 0-2.744 2.363-3.725 3.285-.611.566-1.324 1.063-1.875 1.546-1.203 1.069-8.377 6.636-10.871 6.636-2.492 0-9.666-5.566-10.871-6.636-.55-.482-1.264-.979-1.875-1.546-.98-.922-3.451-3.285-3.723-3.285-.184 0-1.297 1.031-1.895 1.072a1.092 1.092 0 0 1-.25-.342c-.229-.475-.902-1.954-.902-2.619 0-.119-.298-1.045-.298-1.164 0-.118-.197-1.111-.296-1.643.056-.059-.235-1.568.093-1.568.321 0 1.22.671 1.454.855.383.299.832.598 1.282.9.135.094 3.45 1.941 3.45 2.172 0 .24-.496.646-.559.693-.165.119-.686.68-.924.901 2.196 2.115 7.939 6.136 10.876 6.136 1.058 0 2.124-.789 2.458-2.023.074-.283.236-.775.236-.895 0-.117.095-.431.109-.661-.013-.046.016-.074.112-6.601-.012-.875.714-1.256 1.334-1.256h.38zM70.626 98.261l-.006 15.029s1.562 1.232 7.419-.326c0 0 5.88-2.223 10.406.494V98.001s-2.901-2.591-10.062-.704c0 0-4.568 1.479-6.616.989-1.539-.368-1.141-.025-1.141-.025zM88.313 117.605a.678.678 0 0 1-.482 0c-.004-.059-.055-.059-.055-.178 0-.34.44-1.674.523-1.799.019.213.069 1.205.014 1.977zM88.738 115.583c.035.134.157.298.19.469.09.449.078.943.072 1.025v.58l-.393.02c-.011-.26-.043-.303-.043-.322V116.115c0-.117.074-.061.003-.072.049-.118.099-.303.171-.46zM87.919 115.537v.348c.007.116-.289 1.006-.445 1.49h-.223a.341.341 0 0 1-.112-.254c0-.231.712-1.543.78-1.584zM87.622 115.35a20.455 20.455 0 0 1-.692 1.552c-.062.006-.038.051-.161.051-.122 0-.221-.119-.221-.234 0-.198.994-1.334 1.074-1.369zM87.28 114.97l-.057.21c-.295.384-.582.77-.891 1.205-.246-.12-.229-.249-.229-.258.001-.232.933-1.063 1.177-1.157zM106.952 98.261l.008 15.029s-1.561 1.232-7.42-.326c0 0-5.789-2.223-10.393.494V97.974s2.89-2.563 10.049-.677c0 0 4.567 1.479 6.616.989 1.539-.368 1.14-.025 1.14-.025zM89.267 117.605a.678.678 0 0 0 .482 0c.004-.059.053-.059.053-.178 0-.34-.439-1.674-.521-1.799a15.98 15.98 0 0 0-.014 1.977zM89.663 115.537v.348c-.006.116.287 1.006.445 1.49h.22a.339.339 0 0 0 .114-.254c0-.231-.714-1.543-.779-1.584zM89.962 115.35c.188.503.432 1.021.689 1.552.061.006.037.051.159.051.124 0 .224-.119.224-.234 0-.198-.995-1.334-1.072-1.369zM107.636 98.586v15.521l-.192-.247-.241-.354V98.181l.433.405zm.598.277v16.011l-.421-.573V98.608l.421.255zm.531.361v16.299l-.123-.131-.236-.301V99.125l.359.099zM90.301 114.97l.058.21c.293.384.578.77.891 1.205.246-.12.226-.249.226-.258-.001-.232-.931-1.063-1.175-1.157z"/><path fill="#FFF" d="M109.245 99.693h.596v17.057l-17.969.008-.006-.045a3.68 3.68 0 0 1-3.002 1.772l-.073-.001c-.024 0-.049.002-.073.001a3.685 3.685 0 0 1-3.004-1.772l-.006.045h-17.97V99.693h.597v16.492h17.451l-.046.335a3.564 3.564 0 0 0 3.051 1.846 3.558 3.558 0 0 0 3.048-1.845l-.045-.336h17.451V99.693z"/><ellipse fill="#FFF" cx="76.304" cy="58.802" rx=".363" ry=".348"/><path fill="#FFF" d="M94.2 64.01c-.32 0-.9.538-.883.851h.261c.204.004.87-.492.87-.636 0-.122-.117-.215-.248-.215zM88.769 97.384l-1.432-.933c.007-.319-.005-.892.003-1.251-.012-.877.714-1.258 1.334-1.258h.375c.617 0 1.345.381 1.334 1.258.005.359.011.932.017 1.251l-1.631.933zM78.498 88.503l2.216-.029v3.225l-2.198-.403zM74.751 88.835h3.301v2.17l-3.301-.498zM74.513 88.883l-.67.482v1.681l.672-.416z"/><path fill="#231F20" d="M79.47 88.777a.44.44 0 0 1 .16-.025.54.54 0 0 1 .552.528.542.542 0 0 1-.552.532c-.118 0-.316-.192-.405-.254.22-.07.478-.027.478-.348a.567.567 0 0 0-.233-.433zM79.47 90.109a.54.54 0 0 1 .712.502.539.539 0 0 1-.552.527c-.118 0-.316-.188-.405-.25.22-.07.478-.027.478-.347a.562.562 0 0 0-.233-.432z"/><path fill="#FFF" d="M74.681 90.764l3.355.517v.47l-3.979-.609zM78.528 91.591l2.186.409-.006.431-2.182-.439zM81.118 91.917l7.651 1.342v.38l-7.651-1.252zM99.007 88.474h-2.184v3.225l2.2-.403zM102.786 88.835h-3.302v2.17l3.302-.498z"/><path fill="#231F20" d="M97.597 88.777c.056-.02.1-.025.164-.025a.54.54 0 0 1 .551.528.543.543 0 0 1-.551.532c-.121 0-.317-.192-.406-.254.219-.07.477-.027.477-.348a.57.57 0 0 0-.235-.433zM97.597 90.109a.541.541 0 0 1 .715.502.54.54 0 0 1-.551.527c-.121 0-.317-.188-.406-.25.219-.07.477-.027.477-.347a.564.564 0 0 0-.235-.432z"/><path fill="#FFF" d="M102.786 90.746l-3.285.535v.47l3.001-.512zM99.007 91.591L96.823 92v.355l2.188-.363zM88.769 92.827l-7.623-1.325v-2.638H96.394v2.638zM96.419 91.917l-7.65 1.342v.38l7.65-1.252z"/><path fill="#231F20" d="M91.987 101.859c.849.023 1.512.447 1.512 1.143 0 .333-.139.607-.545.887.262.374.793.71.793 1.182 0 1.037-1.14 1.217-1.832 1.217-.125 0-.475 0-1.422-.049-.061-.052-.107-.052-.165-.116.104-.157.249-.343.323-.527v-3.276c-.07-.137-.223-.279-.269-.4.169-.013.366-.061 1.605-.061zM96.298 102.144c1.255 0 1.758 1.138 1.758 2.025 0 1.082-.719 2.26-1.907 2.26s-1.907-1.137-1.907-2.023c-.001-.951.618-2.262 2.056-2.262zM98.673 102.337c1.616 0 1.152 1.111 2.277 2.377.27-.334.224-.891.224-1.285 0-.338-.01-.361-.344-.696.072-.017.072-.064.197-.064s.675.097.989.211c-.662.381-.477 1.143-.543 1.719-.119 1.042-.104 1.67-.217 2.306-.93-1.006-1.24-2.092-1.998-3.047-.038.003-.068.088-.103.13-.06.563-.259 1.681-.259 1.802 0 .268.221.551.393.816-.325.07-.793.121-1.181-.044 0 0-.003-.067.014-.112.517-.217.427-1.066.427-1.447 0-.119.248-1.717.248-1.834 0-.148-.148-.422-.397-.663.12-.139.187-.169.273-.169zM103.074 102.861c.407.048 1.154.048 1.312.1 0 0 .059-.006.059.113 0 .117-.149.211-.149.334 0 .117.283.951.477 1.418.24.596.334 1.466.956 1.998v.168a6.787 6.787 0 0 1-1.521.004s-.062.003-.062-.111c0-.12.198-.288.198-.406 0-.285-.217-.762-.574-.762h-.831c-.119.057-.327.588-.327.787 0 .113.096.225.195.387-.365.066-.771.017-1.133-.047.1-.164.369-.264.474-.494.435-.918 1.06-2.824 1.06-2.941 0-.123-.201-.285-.201-.406 0-.119.01-.087.067-.142z"/><path fill="#FFF" d="M96.394 102.478c.535 0 .634.504.722 1.023-.052.572-.058.604-.002.66-.019.119-.147 1.936-1.015 1.936-.769 0-.867-1.191-.867-1.476-.001-.411.178-2.143 1.162-2.143zM103.422 104.191c.104.047.478.774.478.929 0 .12-.049.05-.057.164h-.622c-.057-.052-.114-.114-.114-.235-.001-.118.152-.56.315-.858zM91.915 104.144c.561 0 .841.389.841.836 0 .439-.333.928-.815.928-.125 0-.264-.055-.422-.156v-1.303c-.002-.244.166-.305.396-.305zM91.987 102.288c.465 0 .668.19.668.667 0 .494-.229.811-.74.811a.505.505 0 0 1-.348-.158c0-.961.047-1.103.053-1.258.11-.058.243-.062.367-.062z"/><g><path fill="#231F20" d="M84.796 101.857h1c.057.105.057.934 0 1.09-.197-.004-.322-.553-.618-.654a1.164 1.164 0 0 0-.339-.057c-.26 0-.668.104-.668.451 0 .951 2.08.913 2.08 2.43 0 .72-.525 1.164-1.287 1.164-.125 0-.872-.143-1.273-.211-.176-.198-.161-.574-.161-.859 0-.121.05-.245.118-.403.311.554.754 1.095 1.391 1.095.283 0 .521-.186.521-.5 0-.874-2.08-1.061-2.08-2.403-.001-.825.648-1.144 1.316-1.143zM82.089 102.236c.125 0 .188.096.288.153v1.034c-.183-.197-.296-.419-.477-.562-.165-.139-.503-.197-.628-.197-.117 0-.717.082-.766.359.049.568.041.633 0 .666.064.093-.031.593.247.593.335 0 .427-.332.673-.522.066.108.066.203.117.311-.054.062-.049.092-.013.877-.226-.178-.388-.379-.631-.379-.216 0-.265.195-.296.312.051.611.042.679 0 .719.051.178.023.424.109.604.086.177.285.124.387.124.582 0 1.141-.194 1.406-.95.072.055.078.119.078.238 0 .121-.096.552-.172.85-.736.197-2.211.391-2.334.385h-.655c-.007-.115.161-.264.226-.363.08-.135.113-.371.113-.489l-.148-2.665c0-.258-.297-.576-.395-.633-.002-.059.059-.126.113-.164.898-.11 2.637-.301 2.758-.301zM77.411 102.807c.859 0 1.461.458 1.461 1.261 0 .898-.473 1.357-1.855 1.367-.166.061-.127.377-.127.418 0 .118.066.65.208.967.051.112.227.179.386.289-.15.291-.65.178-.914.22-.645 0-.762-.005-.814-.062-.005-.104.128-.15.179-.258.099-.225.064-.586.064-.705l-.098-2.611c-.071-.173-.087-.316-.298-.531.47-.297 1.261-.355 1.808-.355zM73.374 102.949c.123 0 .271.05 1.28.061-.122.186.007.469.007.629 0 .121-.051.343-.115.547-.174-.148-.23-.42-.393-.576-.142-.137-.531-.231-.656-.231-.258 0-.571.077-.571.431 0 .521 1.671 1.322 1.565 1.476-.059.083.17.15.246.245.066.09.17.25.182.387.034.044.139.033.139.152 0 .118-.1-.071-.1.047 0 .119.1.071.1.189 0 .119-.1.07-.1.192 0 .118.025.022.097.037-.148.214-.253.511-.503.696-.211.152-.609.242-.732.242-.124 0-.622-.18-.923-.275-.144-.041-.341-.012-.505-.02-.01-.111-.058-.203-.058-.92 0-.096.051-.246.124-.355.379.541.638 1.143 1.287 1.143.266 0 .57-.275.57-.525 0-.893-2.032-.928-2.032-2.354 0-.576.361-1.218 1.091-1.218z"/><path fill="#FFF" d="M77.236 103.187c.595 0 .744.611.744.928 0 .507-.224.975-.769.975-.115 0-.379.023-.371-.308.019-.714-.051-.95-.051-1.073.001-.409.052-.522.447-.522z"/></g><path fill="#009ADA" d="M88.657 144.605c-7.93-3.355-34.955-17.172-34.955-48.916v-3.328c1.857-.574 6.523-1.957 8.365-2.463 0 0 2.824-1.291 7.852.752 0 0 8.058 3.309 16.473 4.061.253.066.156 1.5.194 1.716l-.322-.077c-.124.004-.218-.086-.378-.104-.992-.128-1.81-.208-2.88-.208-1.733 0-1.825.2-4.084.544-.362.054-1.456.349-1.845.466-1.264.379-2.633.73-3.984.73-.125 0-1.299-.156-1.693-.216-.488-.077-.863.093-.988.093-.27 0-1.754 1.29-2.223 1.517-.221.104-.955-.156-.957.234l.029 17.702h18.09c.209 0 1.235 1.605 1.235 1.612v8.055c0 .118-.245.834-.245.952 0 .119-.453.957-.768 1.326-.484.568-1.049.596-1.504.596-2.512 0-7.938-3.774-9.678-5.624.025-.032 1.283-1.107 1.283-1.47 0-.492-1.265-1.005-1.418-1.09-.197-.11-.434-.285-.694-.445-.578-.359-1.258-.705-1.874-1.119-.422-.287-2.204-1.753-2.906-1.783-.477-.021-.723.676-.723.875l.063 1.896c0 .117.228 1.289.356 1.898.162.758.412 1.576.691 2.37.025.083.686 1.549 1.101 1.549 0 0 1.886-1.136 1.997-1.136.249 0 1.406 1.363 1.752 1.676.729.673 1.511 1.557 2.387 2.295 1.246 1.059 2.631 2.002 3.931 2.973.47.35.937.729 1.398 1.062.667.471 1.408.952 2.173 1.418.319.199.764.317 1.085.505.966.57 2.407 1.505 3.491 1.505h.732c1.085 0 2.529-.935 3.493-1.505.319-.188.765-.306 1.085-.505a37.747 37.747 0 0 0 2.172-1.418c.461-.332.93-.712 1.399-1.062 1.3-.971 2.682-1.914 3.931-2.973.876-.738 1.658-1.622 2.386-2.295.344-.312 1.503-1.676 1.751-1.676.111 0 2 1.136 2 1.136.412 0 1.074-1.466 1.101-1.549.273-.794.53-1.612.69-2.37.127-.609.357-1.781.357-1.898v-2.074c0-.197-.295-.789-.693-.789-.703 0-2.453 1.588-2.872 1.875-.618.414-1.296.76-1.876 1.119-.261.16-.496.335-.695.445-.153.085-1.418.598-1.418 1.09 0 .362 1.258 1.438 1.283 1.47-1.738 1.85-7.163 5.624-9.674 5.624-.458 0-1.02-.027-1.51-.596-.312-.369-.764-1.207-.764-1.326 0-.118-.244-.834-.244-.952v-8.055c0-.007 1.053-1.612 1.264-1.612h18.089V99.405c-.001-.391-.851-.284-1.074-.388-.468-.229-1.802-1.479-2.075-1.479-.121 0-.857.074-1.344.154-.396.059-1.021.351-1.592.184-1.293-.37-2.609-.078-3.958-.803-.357-.191-1.358-.463-1.722-.518-2.259-.346-2.203-.568-3.936-.568-1.067 0-1.893-.055-2.885.074-.162.02-.302.072-.424.072l-.275.072c.037-.217-.127-1.43.125-1.496 8.413-.752 16.469-4.061 16.469-4.061 5.033-2.043 7.855-.752 7.855-.752 1.942.533 6.511 1.997 7.977 2.484v3.247c.002 31.8-27.026 45.623-34.955 48.978z"/><path fill="#FFF" d="M69.175 115.026l-.36.483V99.401l.36-.237v15.862zm1.204-16.651v15.039l-.433.58V98.658l.433-.283zm-.612.401v15.456l-.421.565V99.052l.421-.276zM69.77 115.248c.073.029.161.062.263.096.258.08.603.169 1.036.246 1.114.195 2.818.312 5.181-.012l1.262-.252 2.477-.574s.945-.283 2.206-.358c1.244-.073 2.803.058 4.06.876l-.073.076c-1.227-.791-2.751-.921-3.98-.849-.771.046-1.424.171-1.81.259a14.152 14.152 0 0 1 1.984-.175c1.219-.017 2.683.144 3.726.849l-.073.076c-1.014-.678-2.442-.838-3.65-.82a13.362 13.362 0 0 0-2.291.231l-2.559.511-1.293.3c-2.373.326-4.074.198-5.182-.015a7.97 7.97 0 0 1-1.052-.27 4.96 4.96 0 0 1-.295-.1l.063-.095zm.943-1.396c.044.019.095.038.152.059 1.655.603 3.724.433 5.38.025l3.635-.905s1.272-.316 2.87-.359c1.579-.043 3.489.178 4.8 1.244l-.071.074c-1.28-1.037-3.155-1.258-4.726-1.215-1.586.043-2.848.355-2.848.355l-3.635.906c-1.678.413-3.765.581-5.441-.028-.066-.024-.126-.048-.176-.068l.06-.088zm-.498.737c.285.104.788.261 1.47.375 1.106.185 2.683.255 4.561-.205l3.634-.906s1.145-.316 2.597-.367c1.418-.05 3.141.152 4.372 1.162l-.072.076c-1.2-.981-2.888-1.184-4.296-1.135a12.428 12.428 0 0 0-2.574.364l-3.635.905c-1.895.465-3.485.395-4.604.207a8.282 8.282 0 0 1-1.512-.389l.059-.087zM107.462 115.443c-.904.305-2.906.741-6.23.284l-1.3-.3-2.551-.511c-.007-.001-3.765-.79-5.872.542l-.072-.076c1.037-.665 2.463-.818 3.654-.802.845.012 1.576.108 1.979.175-.991-.228-3.72-.688-5.714.543l-.074-.076c1.246-.777 2.769-.9 3.988-.829 1.262.075 2.207.358 2.207.358l2.471.572 1.268.254c2.363.324 4.066.207 5.18.012a8.555 8.555 0 0 0 1.038-.246c.253-.085.416-.159.495-.199l.077.1a4.764 4.764 0 0 1-.544.199zm-.52-1.561c-.394.186-2.369.986-5.748.154l-3.634-.906c-.008-.002-4.911-1.211-7.509.809l-.072-.074c1.309-1.023 3.182-1.236 4.735-1.193 1.598.043 2.87.359 2.87.359l3.635.905c1.657.407 3.723.577 5.38-.025.124-.045.216-.085.277-.112l.066.083zm.563.719c-.407.172-2.854 1.105-6.311.258l-3.635-.905c-.007-.002-4.357-1.198-6.805.718l-.072-.075c1.227-.965 2.914-1.159 4.307-1.11 1.452.051 2.597.367 2.597.367l3.634.906c1.879.46 3.455.39 4.561.205.873-.146 1.453-.363 1.658-.448l.066.084z"/></g><g fill="#415D56"><path d="M207.934 28.599v34.919c0 10.439 3.96 15.749 10.979 15.749 7.2 0 11.16-5.04 11.16-15.749V28.599h13.679v34.019c0 18.72-9.449 27.629-25.289 27.629-15.299 0-24.299-8.459-24.299-27.809V28.599h13.77zM300.182 87.547c-2.52 1.26-8.189 2.61-15.569 2.61-20.969 0-31.769-13.049-31.769-30.329 0-20.699 14.76-32.219 33.118-32.219 7.11 0 12.51 1.44 14.939 2.7l-2.789 10.89c-2.79-1.17-6.66-2.25-11.52-2.25-10.89 0-19.35 6.57-19.35 20.069 0 12.149 7.199 19.799 19.439 19.799 4.14 0 8.729-.9 11.43-1.98l2.071 10.71zM322.142 40.119h-16.29v-11.52h46.618v11.52h-16.559v49.138h-13.77V40.119zM191.483 98.439c2.256-.384 5.424-.672 9.889-.672 4.512 0 7.729.864 9.889 2.592 2.064 1.633 3.457 4.32 3.457 7.489 0 3.168-1.056 5.856-2.976 7.681-2.497 2.352-6.193 3.408-10.513 3.408-.96 0-1.824-.048-2.496-.145v11.569h-7.249V98.439zm7.248 14.689c.624.144 1.392.192 2.448.192 3.888 0 6.289-1.969 6.289-5.281 0-2.976-2.064-4.752-5.713-4.752-1.488 0-2.496.144-3.024.288v9.553zM231.612 130.362l-.432-2.353h-.144c-1.536 1.872-3.936 2.881-6.721 2.881-4.752 0-7.584-3.457-7.584-7.201 0-6.097 5.473-9.024 13.777-8.977v-.336c0-1.248-.672-3.024-4.272-3.024-2.4 0-4.944.816-6.48 1.776l-1.344-4.704c1.632-.912 4.849-2.064 9.121-2.064 7.825 0 10.321 4.608 10.321 10.129v8.16c0 2.257.096 4.417.336 5.713h-6.578zm-.864-11.089c-3.84-.048-6.816.864-6.816 3.696 0 1.872 1.248 2.784 2.88 2.784 1.824 0 3.312-1.2 3.792-2.688.096-.384.144-.815.144-1.248v-2.544zM251.388 100.167v6.721h5.232v5.376h-5.232v8.497c0 2.832.672 4.128 2.88 4.128.912 0 1.632-.096 2.16-.191l.048 5.521c-.96.384-2.688.624-4.752.624-2.352 0-4.32-.816-5.472-2.017-1.344-1.393-2.016-3.648-2.016-6.961v-9.601h-3.121v-5.376h3.121v-5.089l7.152-1.632zM260.843 96.279h7.296v13.394h.097c.768-1.009 1.728-1.776 2.88-2.4 1.056-.576 2.448-.912 3.792-.912 4.656 0 8.209 3.216 8.209 10.272v13.729h-7.297v-12.913c0-3.072-1.056-5.185-3.792-5.185-1.92 0-3.12 1.248-3.648 2.544-.192.48-.24 1.104-.24 1.633v13.921h-7.296V96.279zM289.451 122.825c1.969 1.009 4.992 2.017 8.113 2.017 3.359 0 5.136-1.393 5.136-3.504 0-2.017-1.536-3.169-5.424-4.561-5.377-1.872-8.881-4.849-8.881-9.553 0-5.521 4.608-9.745 12.241-9.745 3.647 0 6.336.768 8.256 1.632l-1.632 5.904c-1.296-.624-3.601-1.535-6.769-1.535s-4.704 1.439-4.704 3.12c0 2.063 1.824 2.976 6 4.56 5.713 2.112 8.401 5.089 8.401 9.649 0 5.425-4.177 10.033-13.058 10.033-3.696 0-7.345-.961-9.169-1.969l1.49-6.048zM314.699 96.279h7.296v34.083h-7.296V96.279zM335.436 100.359c0 2.017-1.536 3.648-3.937 3.648-2.304 0-3.84-1.632-3.792-3.648-.048-2.112 1.488-3.696 3.84-3.696s3.841 1.584 3.889 3.696zm-7.537 30.003v-23.474h7.296v23.474h-7.296zM363.804 96.279v27.074c0 2.641.096 5.425.191 7.009h-6.48l-.336-3.456h-.096c-1.488 2.64-4.32 3.984-7.345 3.984-5.568 0-10.033-4.753-10.033-12.049-.048-7.921 4.896-12.481 10.513-12.481 2.881 0 5.137 1.008 6.193 2.64h.096V96.279h7.297zm-7.297 20.546c0-.384-.048-.912-.096-1.296-.433-1.969-2.017-3.601-4.272-3.601-3.312 0-5.041 2.977-5.041 6.673 0 3.984 1.969 6.48 4.992 6.48 2.112 0 3.793-1.44 4.225-3.505.145-.527.192-1.056.192-1.68v-3.071zM375.274 120.953c.24 3.024 3.216 4.465 6.624 4.465 2.496 0 4.513-.336 6.48-.96l.961 4.944c-2.4.96-5.329 1.44-8.497 1.44-7.969 0-12.529-4.608-12.529-11.953 0-5.953 3.696-12.529 11.857-12.529 7.584 0 10.465 5.904 10.465 11.713 0 1.248-.145 2.353-.24 2.88h-15.121zm8.593-4.993c0-1.776-.769-4.752-4.129-4.752-3.072 0-4.32 2.784-4.512 4.752h8.641zM394.953 123.977c1.345.816 4.129 1.776 6.289 1.776 2.208 0 3.12-.768 3.12-1.968s-.72-1.776-3.456-2.688c-4.849-1.632-6.721-4.272-6.673-7.057 0-4.368 3.744-7.681 9.553-7.681 2.736 0 5.185.624 6.625 1.344l-1.297 5.041c-1.056-.576-3.072-1.345-5.088-1.345-1.776 0-2.784.721-2.784 1.921 0 1.104.912 1.68 3.792 2.688 4.465 1.536 6.337 3.793 6.385 7.249 0 4.368-3.456 7.585-10.177 7.585-3.072 0-5.809-.673-7.585-1.633l1.296-5.232z"/></g></svg>